<?xml version="1.0" encoding="utf-8" standalone="no"?>
<!DOCTYPE svg PUBLIC "-//W3C//DTD SVG 1.1//EN"
  "http://www.w3.org/Graphics/SVG/1.1/DTD/svg11.dtd">
<!-- Created with matplotlib (https://matplotlib.org/) -->
<svg height="144pt" version="1.1" viewBox="0 0 216 144" width="216pt" xmlns="http://www.w3.org/2000/svg" xmlns:xlink="http://www.w3.org/1999/xlink">
 <defs>
  <style type="text/css">
*{stroke-linecap:butt;stroke-linejoin:round;}
  </style>
 </defs>
 <g id="figure_1">
  <g id="patch_1">
   <path d="M 0 144 
L 216 144 
L 216 0 
L 0 0 
z
" style="fill:#ffffff;"/>
  </g>
  <g id="axes_1">
   <g id="patch_2">
    <path d="M 27 126 
L 194.4 126 
L 194.4 17.28 
L 27 17.28 
z
" style="fill:#ffffff;"/>
   </g>
   <g id="matplotlib.axis_1">
    <g id="xtick_1">
     <g id="line2d_1">
      <path clip-path="url(#p75ca9772e1)" d="M 27 126 
L 27 17.28 
" style="fill:none;stroke:#cccccc;stroke-linecap:round;stroke-width:0.8;"/>
     </g>
     <g id="line2d_2">
      <defs>
       <path d="M 0 0 
L 0 3.5 
" id="mc3590e124f" style="stroke:#262626;stroke-width:0.8;"/>
      </defs>
      <g>
       <use style="fill:#262626;stroke:#262626;stroke-width:0.8;" x="27" xlink:href="#mc3590e124f" y="126"/>
      </g>
     </g>
     <g id="text_1">
      <!-- 0 -->
      <defs>
       <path d="M 31.78125 66.40625 
Q 24.171875 66.40625 20.328125 58.90625 
Q 16.5 51.421875 16.5 36.375 
Q 16.5 21.390625 20.328125 13.890625 
Q 24.171875 6.390625 31.78125 6.390625 
Q 39.453125 6.390625 43.28125 13.890625 
Q 47.125 21.390625 47.125 36.375 
Q 47.125 51.421875 43.28125 58.90625 
Q 39.453125 66.40625 31.78125 66.40625 
z
M 31.78125 74.21875 
Q 44.046875 74.21875 50.515625 64.515625 
Q 56.984375 54.828125 56.984375 36.375 
Q 56.984375 17.96875 50.515625 8.265625 
Q 44.046875 -1.421875 31.78125 -1.421875 
Q 19.53125 -1.421875 13.0625 8.265625 
Q 6.59375 17.96875 6.59375 36.375 
Q 6.59375 54.828125 13.0625 64.515625 
Q 19.53125 74.21875 31.78125 74.21875 
z
" id="DejaVuSans-48"/>
      </defs>
      <g style="fill:#262626;" transform="translate(23.81875 140.598437)scale(0.1 -0.1)">
       <use xlink:href="#DejaVuSans-48"/>
      </g>
     </g>
    </g>
    <g id="xtick_2">
     <g id="line2d_3">
      <path clip-path="url(#p75ca9772e1)" d="M 60.48 126 
L 60.48 17.28 
" style="fill:none;stroke:#cccccc;stroke-linecap:round;stroke-width:0.8;"/>
     </g>
     <g id="line2d_4">
      <g>
       <use style="fill:#262626;stroke:#262626;stroke-width:0.8;" x="60.48" xlink:href="#mc3590e124f" y="126"/>
      </g>
     </g>
     <g id="text_2">
      <!-- 10 -->
      <defs>
       <path d="M 12.40625 8.296875 
L 28.515625 8.296875 
L 28.515625 63.921875 
L 10.984375 60.40625 
L 10.984375 69.390625 
L 28.421875 72.90625 
L 38.28125 72.90625 
L 38.28125 8.296875 
L 54.390625 8.296875 
L 54.390625 0 
L 12.40625 0 
z
" id="DejaVuSans-49"/>
      </defs>
      <g style="fill:#262626;" transform="translate(54.1175 140.598437)scale(0.1 -0.1)">
       <use xlink:href="#DejaVuSans-49"/>
       <use x="63.623047" xlink:href="#DejaVuSans-48"/>
      </g>
     </g>
    </g>
    <g id="xtick_3">
     <g id="line2d_5">
      <path clip-path="url(#p75ca9772e1)" d="M 93.96 126 
L 93.96 17.28 
" style="fill:none;stroke:#cccccc;stroke-linecap:round;stroke-width:0.8;"/>
     </g>
     <g id="line2d_6">
      <g>
       <use style="fill:#262626;stroke:#262626;stroke-width:0.8;" x="93.96" xlink:href="#mc3590e124f" y="126"/>
      </g>
     </g>
     <g id="text_3">
      <!-- 20 -->
      <defs>
       <path d="M 19.1875 8.296875 
L 53.609375 8.296875 
L 53.609375 0 
L 7.328125 0 
L 7.328125 8.296875 
Q 12.9375 14.109375 22.625 23.890625 
Q 32.328125 33.6875 34.8125 36.53125 
Q 39.546875 41.84375 41.421875 45.53125 
Q 43.3125 49.21875 43.3125 52.78125 
Q 43.3125 58.59375 39.234375 62.25 
Q 35.15625 65.921875 28.609375 65.921875 
Q 23.96875 65.921875 18.8125 64.3125 
Q 13.671875 62.703125 7.8125 59.421875 
L 7.8125 69.390625 
Q 13.765625 71.78125 18.9375 73 
Q 24.125 74.21875 28.421875 74.21875 
Q 39.75 74.21875 46.484375 68.546875 
Q 53.21875 62.890625 53.21875 53.421875 
Q 53.21875 48.921875 51.53125 44.890625 
Q 49.859375 40.875 45.40625 35.40625 
Q 44.1875 33.984375 37.640625 27.21875 
Q 31.109375 20.453125 19.1875 8.296875 
z
" id="DejaVuSans-50"/>
      </defs>
      <g style="fill:#262626;" transform="translate(87.5975 140.598437)scale(0.1 -0.1)">
       <use xlink:href="#DejaVuSans-50"/>
       <use x="63.623047" xlink:href="#DejaVuSans-48"/>
      </g>
     </g>
    </g>
    <g id="xtick_4">
     <g id="line2d_7">
      <path clip-path="url(#p75ca9772e1)" d="M 127.44 126 
L 127.44 17.28 
" style="fill:none;stroke:#cccccc;stroke-linecap:round;stroke-width:0.8;"/>
     </g>
     <g id="line2d_8">
      <g>
       <use style="fill:#262626;stroke:#262626;stroke-width:0.8;" x="127.44" xlink:href="#mc3590e124f" y="126"/>
      </g>
     </g>
     <g id="text_4">
      <!-- 30 -->
      <defs>
       <path d="M 40.578125 39.3125 
Q 47.65625 37.796875 51.625 33 
Q 55.609375 28.21875 55.609375 21.1875 
Q 55.609375 10.40625 48.1875 4.484375 
Q 40.765625 -1.421875 27.09375 -1.421875 
Q 22.515625 -1.421875 17.65625 -0.515625 
Q 12.796875 0.390625 7.625 2.203125 
L 7.625 11.71875 
Q 11.71875 9.328125 16.59375 8.109375 
Q 21.484375 6.890625 26.8125 6.890625 
Q 36.078125 6.890625 40.9375 10.546875 
Q 45.796875 14.203125 45.796875 21.1875 
Q 45.796875 27.640625 41.28125 31.265625 
Q 36.765625 34.90625 28.71875 34.90625 
L 20.21875 34.90625 
L 20.21875 43.015625 
L 29.109375 43.015625 
Q 36.375 43.015625 40.234375 45.921875 
Q 44.09375 48.828125 44.09375 54.296875 
Q 44.09375 59.90625 40.109375 62.90625 
Q 36.140625 65.921875 28.71875 65.921875 
Q 24.65625 65.921875 20.015625 65.03125 
Q 15.375 64.15625 9.8125 62.3125 
L 9.8125 71.09375 
Q 15.4375 72.65625 20.34375 73.4375 
Q 25.25 74.21875 29.59375 74.21875 
Q 40.828125 74.21875 47.359375 69.109375 
Q 53.90625 64.015625 53.90625 55.328125 
Q 53.90625 49.265625 50.4375 45.09375 
Q 46.96875 40.921875 40.578125 39.3125 
z
" id="DejaVuSans-51"/>
      </defs>
      <g style="fill:#262626;" transform="translate(121.0775 140.598437)scale(0.1 -0.1)">
       <use xlink:href="#DejaVuSans-51"/>
       <use x="63.623047" xlink:href="#DejaVuSans-48"/>
      </g>
     </g>
    </g>
    <g id="xtick_5">
     <g id="line2d_9">
      <path clip-path="url(#p75ca9772e1)" d="M 160.92 126 
L 160.92 17.28 
" style="fill:none;stroke:#cccccc;stroke-linecap:round;stroke-width:0.8;"/>
     </g>
     <g id="line2d_10">
      <g>
       <use style="fill:#262626;stroke:#262626;stroke-width:0.8;" x="160.92" xlink:href="#mc3590e124f" y="126"/>
      </g>
     </g>
     <g id="text_5">
      <!-- 40 -->
      <defs>
       <path d="M 37.796875 64.3125 
L 12.890625 25.390625 
L 37.796875 25.390625 
z
M 35.203125 72.90625 
L 47.609375 72.90625 
L 47.609375 25.390625 
L 58.015625 25.390625 
L 58.015625 17.1875 
L 47.609375 17.1875 
L 47.609375 0 
L 37.796875 0 
L 37.796875 17.1875 
L 4.890625 17.1875 
L 4.890625 26.703125 
z
" id="DejaVuSans-52"/>
      </defs>
      <g style="fill:#262626;" transform="translate(154.5575 140.598437)scale(0.1 -0.1)">
       <use xlink:href="#DejaVuSans-52"/>
       <use x="63.623047" xlink:href="#DejaVuSans-48"/>
      </g>
     </g>
    </g>
    <g id="xtick_6">
     <g id="line2d_11">
      <path clip-path="url(#p75ca9772e1)" d="M 194.4 126 
L 194.4 17.28 
" style="fill:none;stroke:#cccccc;stroke-linecap:round;stroke-width:0.8;"/>
     </g>
     <g id="line2d_12">
      <g>
       <use style="fill:#262626;stroke:#262626;stroke-width:0.8;" x="194.4" xlink:href="#mc3590e124f" y="126"/>
      </g>
     </g>
     <g id="text_6">
      <!-- 50 -->
      <defs>
       <path d="M 10.796875 72.90625 
L 49.515625 72.90625 
L 49.515625 64.59375 
L 19.828125 64.59375 
L 19.828125 46.734375 
Q 21.96875 47.46875 24.109375 47.828125 
Q 26.265625 48.1875 28.421875 48.1875 
Q 40.625 48.1875 47.75 41.5 
Q 54.890625 34.8125 54.890625 23.390625 
Q 54.890625 11.625 47.5625 5.09375 
Q 40.234375 -1.421875 26.90625 -1.421875 
Q 22.3125 -1.421875 17.546875 -0.640625 
Q 12.796875 0.140625 7.71875 1.703125 
L 7.71875 11.625 
Q 12.109375 9.234375 16.796875 8.0625 
Q 21.484375 6.890625 26.703125 6.890625 
Q 35.15625 6.890625 40.078125 11.328125 
Q 45.015625 15.765625 45.015625 23.390625 
Q 45.015625 31 40.078125 35.4375 
Q 35.15625 39.890625 26.703125 39.890625 
Q 22.75 39.890625 18.8125 39.015625 
Q 14.890625 38.140625 10.796875 36.28125 
z
" id="DejaVuSans-53"/>
      </defs>
      <g style="fill:#262626;" transform="translate(188.0375 140.598437)scale(0.1 -0.1)">
       <use xlink:href="#DejaVuSans-53"/>
       <use x="63.623047" xlink:href="#DejaVuSans-48"/>
      </g>
     </g>
    </g>
    <g id="text_7">
     <!-- Time (days) -->
     <defs>
      <path d="M -0.296875 72.90625 
L 61.375 72.90625 
L 61.375 64.59375 
L 35.5 64.59375 
L 35.5 0 
L 25.59375 0 
L 25.59375 64.59375 
L -0.296875 64.59375 
z
" id="DejaVuSans-84"/>
      <path d="M 9.421875 54.6875 
L 18.40625 54.6875 
L 18.40625 0 
L 9.421875 0 
z
M 9.421875 75.984375 
L 18.40625 75.984375 
L 18.40625 64.59375 
L 9.421875 64.59375 
z
" id="DejaVuSans-105"/>
      <path d="M 52 44.1875 
Q 55.375 50.25 60.0625 53.125 
Q 64.75 56 71.09375 56 
Q 79.640625 56 84.28125 50.015625 
Q 88.921875 44.046875 88.921875 33.015625 
L 88.921875 0 
L 79.890625 0 
L 79.890625 32.71875 
Q 79.890625 40.578125 77.09375 44.375 
Q 74.3125 48.1875 68.609375 48.1875 
Q 61.625 48.1875 57.5625 43.546875 
Q 53.515625 38.921875 53.515625 30.90625 
L 53.515625 0 
L 44.484375 0 
L 44.484375 32.71875 
Q 44.484375 40.625 41.703125 44.40625 
Q 38.921875 48.1875 33.109375 48.1875 
Q 26.21875 48.1875 22.15625 43.53125 
Q 18.109375 38.875 18.109375 30.90625 
L 18.109375 0 
L 9.078125 0 
L 9.078125 54.6875 
L 18.109375 54.6875 
L 18.109375 46.1875 
Q 21.1875 51.21875 25.484375 53.609375 
Q 29.78125 56 35.6875 56 
Q 41.65625 56 45.828125 52.96875 
Q 50 49.953125 52 44.1875 
z
" id="DejaVuSans-109"/>
      <path d="M 56.203125 29.59375 
L 56.203125 25.203125 
L 14.890625 25.203125 
Q 15.484375 15.921875 20.484375 11.0625 
Q 25.484375 6.203125 34.421875 6.203125 
Q 39.59375 6.203125 44.453125 7.46875 
Q 49.3125 8.734375 54.109375 11.28125 
L 54.109375 2.78125 
Q 49.265625 0.734375 44.1875 -0.34375 
Q 39.109375 -1.421875 33.890625 -1.421875 
Q 20.796875 -1.421875 13.15625 6.1875 
Q 5.515625 13.8125 5.515625 26.8125 
Q 5.515625 40.234375 12.765625 48.109375 
Q 20.015625 56 32.328125 56 
Q 43.359375 56 49.78125 48.890625 
Q 56.203125 41.796875 56.203125 29.59375 
z
M 47.21875 32.234375 
Q 47.125 39.59375 43.09375 43.984375 
Q 39.0625 48.390625 32.421875 48.390625 
Q 24.90625 48.390625 20.390625 44.140625 
Q 15.875 39.890625 15.1875 32.171875 
z
" id="DejaVuSans-101"/>
      <path id="DejaVuSans-32"/>
      <path d="M 31 75.875 
Q 24.46875 64.65625 21.28125 53.65625 
Q 18.109375 42.671875 18.109375 31.390625 
Q 18.109375 20.125 21.3125 9.0625 
Q 24.515625 -2 31 -13.1875 
L 23.1875 -13.1875 
Q 15.875 -1.703125 12.234375 9.375 
Q 8.59375 20.453125 8.59375 31.390625 
Q 8.59375 42.28125 12.203125 53.3125 
Q 15.828125 64.359375 23.1875 75.875 
z
" id="DejaVuSans-40"/>
      <path d="M 45.40625 46.390625 
L 45.40625 75.984375 
L 54.390625 75.984375 
L 54.390625 0 
L 45.40625 0 
L 45.40625 8.203125 
Q 42.578125 3.328125 38.25 0.953125 
Q 33.9375 -1.421875 27.875 -1.421875 
Q 17.96875 -1.421875 11.734375 6.484375 
Q 5.515625 14.40625 5.515625 27.296875 
Q 5.515625 40.1875 11.734375 48.09375 
Q 17.96875 56 27.875 56 
Q 33.9375 56 38.25 53.625 
Q 42.578125 51.265625 45.40625 46.390625 
z
M 14.796875 27.296875 
Q 14.796875 17.390625 18.875 11.75 
Q 22.953125 6.109375 30.078125 6.109375 
Q 37.203125 6.109375 41.296875 11.75 
Q 45.40625 17.390625 45.40625 27.296875 
Q 45.40625 37.203125 41.296875 42.84375 
Q 37.203125 48.484375 30.078125 48.484375 
Q 22.953125 48.484375 18.875 42.84375 
Q 14.796875 37.203125 14.796875 27.296875 
z
" id="DejaVuSans-100"/>
      <path d="M 34.28125 27.484375 
Q 23.390625 27.484375 19.1875 25 
Q 14.984375 22.515625 14.984375 16.5 
Q 14.984375 11.71875 18.140625 8.90625 
Q 21.296875 6.109375 26.703125 6.109375 
Q 34.1875 6.109375 38.703125 11.40625 
Q 43.21875 16.703125 43.21875 25.484375 
L 43.21875 27.484375 
z
M 52.203125 31.203125 
L 52.203125 0 
L 43.21875 0 
L 43.21875 8.296875 
Q 40.140625 3.328125 35.546875 0.953125 
Q 30.953125 -1.421875 24.3125 -1.421875 
Q 15.921875 -1.421875 10.953125 3.296875 
Q 6 8.015625 6 15.921875 
Q 6 25.140625 12.171875 29.828125 
Q 18.359375 34.515625 30.609375 34.515625 
L 43.21875 34.515625 
L 43.21875 35.40625 
Q 43.21875 41.609375 39.140625 45 
Q 35.0625 48.390625 27.6875 48.390625 
Q 23 48.390625 18.546875 47.265625 
Q 14.109375 46.140625 10.015625 43.890625 
L 10.015625 52.203125 
Q 14.9375 54.109375 19.578125 55.046875 
Q 24.21875 56 28.609375 56 
Q 40.484375 56 46.34375 49.84375 
Q 52.203125 43.703125 52.203125 31.203125 
z
" id="DejaVuSans-97"/>
      <path d="M 32.171875 -5.078125 
Q 28.375 -14.84375 24.75 -17.8125 
Q 21.140625 -20.796875 15.09375 -20.796875 
L 7.90625 -20.796875 
L 7.90625 -13.28125 
L 13.1875 -13.28125 
Q 16.890625 -13.28125 18.9375 -11.515625 
Q 21 -9.765625 23.484375 -3.21875 
L 25.09375 0.875 
L 2.984375 54.6875 
L 12.5 54.6875 
L 29.59375 11.921875 
L 46.6875 54.6875 
L 56.203125 54.6875 
z
" id="DejaVuSans-121"/>
      <path d="M 44.28125 53.078125 
L 44.28125 44.578125 
Q 40.484375 46.53125 36.375 47.5 
Q 32.28125 48.484375 27.875 48.484375 
Q 21.1875 48.484375 17.84375 46.4375 
Q 14.5 44.390625 14.5 40.28125 
Q 14.5 37.15625 16.890625 35.375 
Q 19.28125 33.59375 26.515625 31.984375 
L 29.59375 31.296875 
Q 39.15625 29.25 43.1875 25.515625 
Q 47.21875 21.78125 47.21875 15.09375 
Q 47.21875 7.46875 41.1875 3.015625 
Q 35.15625 -1.421875 24.609375 -1.421875 
Q 20.21875 -1.421875 15.453125 -0.5625 
Q 10.6875 0.296875 5.421875 2 
L 5.421875 11.28125 
Q 10.40625 8.6875 15.234375 7.390625 
Q 20.0625 6.109375 24.8125 6.109375 
Q 31.15625 6.109375 34.5625 8.28125 
Q 37.984375 10.453125 37.984375 14.40625 
Q 37.984375 18.0625 35.515625 20.015625 
Q 33.0625 21.96875 24.703125 23.78125 
L 21.578125 24.515625 
Q 13.234375 26.265625 9.515625 29.90625 
Q 5.8125 33.546875 5.8125 39.890625 
Q 5.8125 47.609375 11.28125 51.796875 
Q 16.75 56 26.8125 56 
Q 31.78125 56 36.171875 55.265625 
Q 40.578125 54.546875 44.28125 53.078125 
z
" id="DejaVuSans-115"/>
      <path d="M 8.015625 75.875 
L 15.828125 75.875 
Q 23.140625 64.359375 26.78125 53.3125 
Q 30.421875 42.28125 30.421875 31.390625 
Q 30.421875 20.453125 26.78125 9.375 
Q 23.140625 -1.703125 15.828125 -13.1875 
L 8.015625 -13.1875 
Q 14.5 -2 17.703125 9.0625 
Q 20.90625 20.125 20.90625 31.390625 
Q 20.90625 42.671875 17.703125 53.65625 
Q 14.5 64.65625 8.015625 75.875 
z
" id="DejaVuSans-41"/>
     </defs>
     <g style="fill:#262626;" transform="translate(81.019531 154.276563)scale(0.1 -0.1)">
      <use xlink:href="#DejaVuSans-84"/>
      <use x="61.037109" xlink:href="#DejaVuSans-105"/>
      <use x="88.820312" xlink:href="#DejaVuSans-109"/>
      <use x="186.232422" xlink:href="#DejaVuSans-101"/>
      <use x="247.755859" xlink:href="#DejaVuSans-32"/>
      <use x="279.542969" xlink:href="#DejaVuSans-40"/>
      <use x="318.556641" xlink:href="#DejaVuSans-100"/>
      <use x="382.033203" xlink:href="#DejaVuSans-97"/>
      <use x="443.3125" xlink:href="#DejaVuSans-121"/>
      <use x="502.492188" xlink:href="#DejaVuSans-115"/>
      <use x="554.591797" xlink:href="#DejaVuSans-41"/>
     </g>
    </g>
   </g>
   <g id="matplotlib.axis_2">
    <g id="ytick_1">
     <g id="line2d_13">
      <path clip-path="url(#p75ca9772e1)" d="M 27 121.081676 
L 194.4 121.081676 
" style="fill:none;stroke:#cccccc;stroke-linecap:round;stroke-width:0.8;"/>
     </g>
     <g id="line2d_14">
      <defs>
       <path d="M 0 0 
L -3.5 0 
" id="m20fa65cf67" style="stroke:#262626;stroke-width:0.8;"/>
      </defs>
      <g>
       <use style="fill:#262626;stroke:#262626;stroke-width:0.8;" x="27" xlink:href="#m20fa65cf67" y="121.081676"/>
      </g>
     </g>
     <g id="text_8">
      <!-- $\mathdefault{0}$ -->
      <g style="fill:#262626;" transform="translate(13.6 124.880894)scale(0.1 -0.1)">
       <use transform="translate(0 0.78125)" xlink:href="#DejaVuSans-48"/>
      </g>
     </g>
    </g>
    <g id="ytick_2">
     <g id="line2d_15">
      <path clip-path="url(#p75ca9772e1)" d="M 27 94.366376 
L 194.4 94.366376 
" style="fill:none;stroke:#cccccc;stroke-linecap:round;stroke-width:0.8;"/>
     </g>
     <g id="line2d_16">
      <g>
       <use style="fill:#262626;stroke:#262626;stroke-width:0.8;" x="27" xlink:href="#m20fa65cf67" y="94.366376"/>
      </g>
     </g>
     <g id="text_9">
      <!-- $\mathdefault{10^{-3}}$ -->
      <defs>
       <path d="M 10.59375 35.5 
L 73.1875 35.5 
L 73.1875 27.203125 
L 10.59375 27.203125 
z
" id="DejaVuSans-8722"/>
      </defs>
      <g style="fill:#262626;" transform="translate(-3.5 98.165595)scale(0.1 -0.1)">
       <use transform="translate(0 0.765625)" xlink:href="#DejaVuSans-49"/>
       <use transform="translate(63.623047 0.765625)" xlink:href="#DejaVuSans-48"/>
       <use transform="translate(128.203125 39.046875)scale(0.7)" xlink:href="#DejaVuSans-8722"/>
       <use transform="translate(186.855469 39.046875)scale(0.7)" xlink:href="#DejaVuSans-51"/>
      </g>
     </g>
    </g>
    <g id="ytick_3">
     <g id="line2d_17">
      <path clip-path="url(#p75ca9772e1)" d="M 27 70.322606 
L 194.4 70.322606 
" style="fill:none;stroke:#cccccc;stroke-linecap:round;stroke-width:0.8;"/>
     </g>
     <g id="line2d_18">
      <g>
       <use style="fill:#262626;stroke:#262626;stroke-width:0.8;" x="27" xlink:href="#m20fa65cf67" y="70.322606"/>
      </g>
     </g>
     <g id="text_10">
      <!-- $\mathdefault{10^{-2}}$ -->
      <g style="fill:#262626;" transform="translate(-3.5 74.121825)scale(0.1 -0.1)">
       <use transform="translate(0 0.765625)" xlink:href="#DejaVuSans-49"/>
       <use transform="translate(63.623047 0.765625)" xlink:href="#DejaVuSans-48"/>
       <use transform="translate(128.203125 39.046875)scale(0.7)" xlink:href="#DejaVuSans-8722"/>
       <use transform="translate(186.855469 39.046875)scale(0.7)" xlink:href="#DejaVuSans-50"/>
      </g>
     </g>
    </g>
    <g id="ytick_4">
     <g id="line2d_19">
      <path clip-path="url(#p75ca9772e1)" d="M 27 46.278837 
L 194.4 46.278837 
" style="fill:none;stroke:#cccccc;stroke-linecap:round;stroke-width:0.8;"/>
     </g>
     <g id="line2d_20">
      <g>
       <use style="fill:#262626;stroke:#262626;stroke-width:0.8;" x="27" xlink:href="#m20fa65cf67" y="46.278837"/>
      </g>
     </g>
     <g id="text_11">
      <!-- $\mathdefault{10^{-1}}$ -->
      <g style="fill:#262626;" transform="translate(-3.5 50.078055)scale(0.1 -0.1)">
       <use transform="translate(0 0.684375)" xlink:href="#DejaVuSans-49"/>
       <use transform="translate(63.623047 0.684375)" xlink:href="#DejaVuSans-48"/>
       <use transform="translate(128.203125 38.965625)scale(0.7)" xlink:href="#DejaVuSans-8722"/>
       <use transform="translate(186.855469 38.965625)scale(0.7)" xlink:href="#DejaVuSans-49"/>
      </g>
     </g>
    </g>
    <g id="ytick_5">
     <g id="line2d_21">
      <path clip-path="url(#p75ca9772e1)" d="M 27 22.235067 
L 194.4 22.235067 
" style="fill:none;stroke:#cccccc;stroke-linecap:round;stroke-width:0.8;"/>
     </g>
     <g id="line2d_22">
      <g>
       <use style="fill:#262626;stroke:#262626;stroke-width:0.8;" x="27" xlink:href="#m20fa65cf67" y="22.235067"/>
      </g>
     </g>
     <g id="text_12">
      <!-- $\mathdefault{10^{0}}$ -->
      <g style="fill:#262626;" transform="translate(2.4 26.034286)scale(0.1 -0.1)">
       <use transform="translate(0 0.765625)" xlink:href="#DejaVuSans-49"/>
       <use transform="translate(63.623047 0.765625)" xlink:href="#DejaVuSans-48"/>
       <use transform="translate(128.203125 39.046875)scale(0.7)" xlink:href="#DejaVuSans-48"/>
      </g>
     </g>
    </g>
    <g id="ytick_6">
     <g id="line2d_23">
      <defs>
       <path d="M 0 0 
L -2 0 
" id="m31d0537f08" style="stroke:#262626;stroke-width:0.6;"/>
      </defs>
      <g>
       <use style="fill:#262626;stroke:#262626;stroke-width:0.6;" x="27" xlink:href="#m31d0537f08" y="118.410146"/>
      </g>
     </g>
    </g>
    <g id="ytick_7">
     <g id="line2d_24">
      <g>
       <use style="fill:#262626;stroke:#262626;stroke-width:0.6;" x="27" xlink:href="#m31d0537f08" y="115.738616"/>
      </g>
     </g>
    </g>
    <g id="ytick_8">
     <g id="line2d_25">
      <g>
       <use style="fill:#262626;stroke:#262626;stroke-width:0.6;" x="27" xlink:href="#m31d0537f08" y="113.067086"/>
      </g>
     </g>
    </g>
    <g id="ytick_9">
     <g id="line2d_26">
      <g>
       <use style="fill:#262626;stroke:#262626;stroke-width:0.6;" x="27" xlink:href="#m31d0537f08" y="110.395556"/>
      </g>
     </g>
    </g>
    <g id="ytick_10">
     <g id="line2d_27">
      <g>
       <use style="fill:#262626;stroke:#262626;stroke-width:0.6;" x="27" xlink:href="#m31d0537f08" y="107.724026"/>
      </g>
     </g>
    </g>
    <g id="ytick_11">
     <g id="line2d_28">
      <g>
       <use style="fill:#262626;stroke:#262626;stroke-width:0.6;" x="27" xlink:href="#m31d0537f08" y="105.052496"/>
      </g>
     </g>
    </g>
    <g id="ytick_12">
     <g id="line2d_29">
      <g>
       <use style="fill:#262626;stroke:#262626;stroke-width:0.6;" x="27" xlink:href="#m31d0537f08" y="102.380966"/>
      </g>
     </g>
    </g>
    <g id="ytick_13">
     <g id="line2d_30">
      <g>
       <use style="fill:#262626;stroke:#262626;stroke-width:0.6;" x="27" xlink:href="#m31d0537f08" y="99.709436"/>
      </g>
     </g>
    </g>
    <g id="ytick_14">
     <g id="line2d_31">
      <g>
       <use style="fill:#262626;stroke:#262626;stroke-width:0.6;" x="27" xlink:href="#m31d0537f08" y="97.037906"/>
      </g>
     </g>
    </g>
    <g id="ytick_15">
     <g id="line2d_32">
      <g>
       <use style="fill:#262626;stroke:#262626;stroke-width:0.6;" x="27" xlink:href="#m31d0537f08" y="87.12848"/>
      </g>
     </g>
    </g>
    <g id="ytick_16">
     <g id="line2d_33">
      <g>
       <use style="fill:#262626;stroke:#262626;stroke-width:0.6;" x="27" xlink:href="#m31d0537f08" y="82.894582"/>
      </g>
     </g>
    </g>
    <g id="ytick_17">
     <g id="line2d_34">
      <g>
       <use style="fill:#262626;stroke:#262626;stroke-width:0.6;" x="27" xlink:href="#m31d0537f08" y="79.890584"/>
      </g>
     </g>
    </g>
    <g id="ytick_18">
     <g id="line2d_35">
      <g>
       <use style="fill:#262626;stroke:#262626;stroke-width:0.6;" x="27" xlink:href="#m31d0537f08" y="77.560502"/>
      </g>
     </g>
    </g>
    <g id="ytick_19">
     <g id="line2d_36">
      <g>
       <use style="fill:#262626;stroke:#262626;stroke-width:0.6;" x="27" xlink:href="#m31d0537f08" y="75.656687"/>
      </g>
     </g>
    </g>
    <g id="ytick_20">
     <g id="line2d_37">
      <g>
       <use style="fill:#262626;stroke:#262626;stroke-width:0.6;" x="27" xlink:href="#m31d0537f08" y="74.047033"/>
      </g>
     </g>
    </g>
    <g id="ytick_21">
     <g id="line2d_38">
      <g>
       <use style="fill:#262626;stroke:#262626;stroke-width:0.6;" x="27" xlink:href="#m31d0537f08" y="72.652688"/>
      </g>
     </g>
    </g>
    <g id="ytick_22">
     <g id="line2d_39">
      <g>
       <use style="fill:#262626;stroke:#262626;stroke-width:0.6;" x="27" xlink:href="#m31d0537f08" y="71.422789"/>
      </g>
     </g>
    </g>
    <g id="ytick_23">
     <g id="line2d_40">
      <g>
       <use style="fill:#262626;stroke:#262626;stroke-width:0.6;" x="27" xlink:href="#m31d0537f08" y="63.08471"/>
      </g>
     </g>
    </g>
    <g id="ytick_24">
     <g id="line2d_41">
      <g>
       <use style="fill:#262626;stroke:#262626;stroke-width:0.6;" x="27" xlink:href="#m31d0537f08" y="58.850813"/>
      </g>
     </g>
    </g>
    <g id="ytick_25">
     <g id="line2d_42">
      <g>
       <use style="fill:#262626;stroke:#262626;stroke-width:0.6;" x="27" xlink:href="#m31d0537f08" y="55.846815"/>
      </g>
     </g>
    </g>
    <g id="ytick_26">
     <g id="line2d_43">
      <g>
       <use style="fill:#262626;stroke:#262626;stroke-width:0.6;" x="27" xlink:href="#m31d0537f08" y="53.516733"/>
      </g>
     </g>
    </g>
    <g id="ytick_27">
     <g id="line2d_44">
      <g>
       <use style="fill:#262626;stroke:#262626;stroke-width:0.6;" x="27" xlink:href="#m31d0537f08" y="51.612917"/>
      </g>
     </g>
    </g>
    <g id="ytick_28">
     <g id="line2d_45">
      <g>
       <use style="fill:#262626;stroke:#262626;stroke-width:0.6;" x="27" xlink:href="#m31d0537f08" y="50.003264"/>
      </g>
     </g>
    </g>
    <g id="ytick_29">
     <g id="line2d_46">
      <g>
       <use style="fill:#262626;stroke:#262626;stroke-width:0.6;" x="27" xlink:href="#m31d0537f08" y="48.608919"/>
      </g>
     </g>
    </g>
    <g id="ytick_30">
     <g id="line2d_47">
      <g>
       <use style="fill:#262626;stroke:#262626;stroke-width:0.6;" x="27" xlink:href="#m31d0537f08" y="47.379019"/>
      </g>
     </g>
    </g>
    <g id="ytick_31">
     <g id="line2d_48">
      <g>
       <use style="fill:#262626;stroke:#262626;stroke-width:0.6;" x="27" xlink:href="#m31d0537f08" y="39.040941"/>
      </g>
     </g>
    </g>
    <g id="ytick_32">
     <g id="line2d_49">
      <g>
       <use style="fill:#262626;stroke:#262626;stroke-width:0.6;" x="27" xlink:href="#m31d0537f08" y="34.807043"/>
      </g>
     </g>
    </g>
    <g id="ytick_33">
     <g id="line2d_50">
      <g>
       <use style="fill:#262626;stroke:#262626;stroke-width:0.6;" x="27" xlink:href="#m31d0537f08" y="31.803045"/>
      </g>
     </g>
    </g>
    <g id="ytick_34">
     <g id="line2d_51">
      <g>
       <use style="fill:#262626;stroke:#262626;stroke-width:0.6;" x="27" xlink:href="#m31d0537f08" y="29.472963"/>
      </g>
     </g>
    </g>
    <g id="ytick_35">
     <g id="line2d_52">
      <g>
       <use style="fill:#262626;stroke:#262626;stroke-width:0.6;" x="27" xlink:href="#m31d0537f08" y="27.569147"/>
      </g>
     </g>
    </g>
    <g id="ytick_36">
     <g id="line2d_53">
      <g>
       <use style="fill:#262626;stroke:#262626;stroke-width:0.6;" x="27" xlink:href="#m31d0537f08" y="25.959494"/>
      </g>
     </g>
    </g>
    <g id="ytick_37">
     <g id="line2d_54">
      <g>
       <use style="fill:#262626;stroke:#262626;stroke-width:0.6;" x="27" xlink:href="#m31d0537f08" y="24.565149"/>
      </g>
     </g>
    </g>
    <g id="ytick_38">
     <g id="line2d_55">
      <g>
       <use style="fill:#262626;stroke:#262626;stroke-width:0.6;" x="27" xlink:href="#m31d0537f08" y="23.33525"/>
      </g>
     </g>
    </g>
    <g id="text_13">
     <!-- Population (symlog) -->
     <defs>
      <path d="M 19.671875 64.796875 
L 19.671875 37.40625 
L 32.078125 37.40625 
Q 38.96875 37.40625 42.71875 40.96875 
Q 46.484375 44.53125 46.484375 51.125 
Q 46.484375 57.671875 42.71875 61.234375 
Q 38.96875 64.796875 32.078125 64.796875 
z
M 9.8125 72.90625 
L 32.078125 72.90625 
Q 44.34375 72.90625 50.609375 67.359375 
Q 56.890625 61.8125 56.890625 51.125 
Q 56.890625 40.328125 50.609375 34.8125 
Q 44.34375 29.296875 32.078125 29.296875 
L 19.671875 29.296875 
L 19.671875 0 
L 9.8125 0 
z
" id="DejaVuSans-80"/>
      <path d="M 30.609375 48.390625 
Q 23.390625 48.390625 19.1875 42.75 
Q 14.984375 37.109375 14.984375 27.296875 
Q 14.984375 17.484375 19.15625 11.84375 
Q 23.34375 6.203125 30.609375 6.203125 
Q 37.796875 6.203125 41.984375 11.859375 
Q 46.1875 17.53125 46.1875 27.296875 
Q 46.1875 37.015625 41.984375 42.703125 
Q 37.796875 48.390625 30.609375 48.390625 
z
M 30.609375 56 
Q 42.328125 56 49.015625 48.375 
Q 55.71875 40.765625 55.71875 27.296875 
Q 55.71875 13.875 49.015625 6.21875 
Q 42.328125 -1.421875 30.609375 -1.421875 
Q 18.84375 -1.421875 12.171875 6.21875 
Q 5.515625 13.875 5.515625 27.296875 
Q 5.515625 40.765625 12.171875 48.375 
Q 18.84375 56 30.609375 56 
z
" id="DejaVuSans-111"/>
      <path d="M 18.109375 8.203125 
L 18.109375 -20.796875 
L 9.078125 -20.796875 
L 9.078125 54.6875 
L 18.109375 54.6875 
L 18.109375 46.390625 
Q 20.953125 51.265625 25.265625 53.625 
Q 29.59375 56 35.59375 56 
Q 45.5625 56 51.78125 48.09375 
Q 58.015625 40.1875 58.015625 27.296875 
Q 58.015625 14.40625 51.78125 6.484375 
Q 45.5625 -1.421875 35.59375 -1.421875 
Q 29.59375 -1.421875 25.265625 0.953125 
Q 20.953125 3.328125 18.109375 8.203125 
z
M 48.6875 27.296875 
Q 48.6875 37.203125 44.609375 42.84375 
Q 40.53125 48.484375 33.40625 48.484375 
Q 26.265625 48.484375 22.1875 42.84375 
Q 18.109375 37.203125 18.109375 27.296875 
Q 18.109375 17.390625 22.1875 11.75 
Q 26.265625 6.109375 33.40625 6.109375 
Q 40.53125 6.109375 44.609375 11.75 
Q 48.6875 17.390625 48.6875 27.296875 
z
" id="DejaVuSans-112"/>
      <path d="M 8.5 21.578125 
L 8.5 54.6875 
L 17.484375 54.6875 
L 17.484375 21.921875 
Q 17.484375 14.15625 20.5 10.265625 
Q 23.53125 6.390625 29.59375 6.390625 
Q 36.859375 6.390625 41.078125 11.03125 
Q 45.3125 15.671875 45.3125 23.6875 
L 45.3125 54.6875 
L 54.296875 54.6875 
L 54.296875 0 
L 45.3125 0 
L 45.3125 8.40625 
Q 42.046875 3.421875 37.71875 1 
Q 33.40625 -1.421875 27.6875 -1.421875 
Q 18.265625 -1.421875 13.375 4.4375 
Q 8.5 10.296875 8.5 21.578125 
z
M 31.109375 56 
z
" id="DejaVuSans-117"/>
      <path d="M 9.421875 75.984375 
L 18.40625 75.984375 
L 18.40625 0 
L 9.421875 0 
z
" id="DejaVuSans-108"/>
      <path d="M 18.3125 70.21875 
L 18.3125 54.6875 
L 36.8125 54.6875 
L 36.8125 47.703125 
L 18.3125 47.703125 
L 18.3125 18.015625 
Q 18.3125 11.328125 20.140625 9.421875 
Q 21.96875 7.515625 27.59375 7.515625 
L 36.8125 7.515625 
L 36.8125 0 
L 27.59375 0 
Q 17.1875 0 13.234375 3.875 
Q 9.28125 7.765625 9.28125 18.015625 
L 9.28125 47.703125 
L 2.6875 47.703125 
L 2.6875 54.6875 
L 9.28125 54.6875 
L 9.28125 70.21875 
z
" id="DejaVuSans-116"/>
      <path d="M 54.890625 33.015625 
L 54.890625 0 
L 45.90625 0 
L 45.90625 32.71875 
Q 45.90625 40.484375 42.875 44.328125 
Q 39.84375 48.1875 33.796875 48.1875 
Q 26.515625 48.1875 22.3125 43.546875 
Q 18.109375 38.921875 18.109375 30.90625 
L 18.109375 0 
L 9.078125 0 
L 9.078125 54.6875 
L 18.109375 54.6875 
L 18.109375 46.1875 
Q 21.34375 51.125 25.703125 53.5625 
Q 30.078125 56 35.796875 56 
Q 45.21875 56 50.046875 50.171875 
Q 54.890625 44.34375 54.890625 33.015625 
z
" id="DejaVuSans-110"/>
      <path d="M 45.40625 27.984375 
Q 45.40625 37.75 41.375 43.109375 
Q 37.359375 48.484375 30.078125 48.484375 
Q 22.859375 48.484375 18.828125 43.109375 
Q 14.796875 37.75 14.796875 27.984375 
Q 14.796875 18.265625 18.828125 12.890625 
Q 22.859375 7.515625 30.078125 7.515625 
Q 37.359375 7.515625 41.375 12.890625 
Q 45.40625 18.265625 45.40625 27.984375 
z
M 54.390625 6.78125 
Q 54.390625 -7.171875 48.1875 -13.984375 
Q 42 -20.796875 29.203125 -20.796875 
Q 24.46875 -20.796875 20.265625 -20.09375 
Q 16.0625 -19.390625 12.109375 -17.921875 
L 12.109375 -9.1875 
Q 16.0625 -11.328125 19.921875 -12.34375 
Q 23.78125 -13.375 27.78125 -13.375 
Q 36.625 -13.375 41.015625 -8.765625 
Q 45.40625 -4.15625 45.40625 5.171875 
L 45.40625 9.625 
Q 42.625 4.78125 38.28125 2.390625 
Q 33.9375 0 27.875 0 
Q 17.828125 0 11.671875 7.65625 
Q 5.515625 15.328125 5.515625 27.984375 
Q 5.515625 40.671875 11.671875 48.328125 
Q 17.828125 56 27.875 56 
Q 33.9375 56 38.28125 53.609375 
Q 42.625 51.21875 45.40625 46.390625 
L 45.40625 54.6875 
L 54.390625 54.6875 
z
" id="DejaVuSans-103"/>
     </defs>
     <g style="fill:#262626;" transform="translate(-9.579688 121.632969)rotate(-90)scale(0.1 -0.1)">
      <use xlink:href="#DejaVuSans-80"/>
      <use x="60.255859" xlink:href="#DejaVuSans-111"/>
      <use x="121.4375" xlink:href="#DejaVuSans-112"/>
      <use x="184.914062" xlink:href="#DejaVuSans-117"/>
      <use x="248.292969" xlink:href="#DejaVuSans-108"/>
      <use x="276.076172" xlink:href="#DejaVuSans-97"/>
      <use x="337.355469" xlink:href="#DejaVuSans-116"/>
      <use x="376.564453" xlink:href="#DejaVuSans-105"/>
      <use x="404.347656" xlink:href="#DejaVuSans-111"/>
      <use x="465.529297" xlink:href="#DejaVuSans-110"/>
      <use x="528.908203" xlink:href="#DejaVuSans-32"/>
      <use x="560.695312" xlink:href="#DejaVuSans-40"/>
      <use x="599.708984" xlink:href="#DejaVuSans-115"/>
      <use x="651.808594" xlink:href="#DejaVuSans-121"/>
      <use x="710.988281" xlink:href="#DejaVuSans-109"/>
      <use x="808.400391" xlink:href="#DejaVuSans-108"/>
      <use x="836.183594" xlink:href="#DejaVuSans-111"/>
      <use x="897.365234" xlink:href="#DejaVuSans-103"/>
      <use x="960.841797" xlink:href="#DejaVuSans-41"/>
     </g>
    </g>
   </g>
   <g id="line2d_56">
    <path clip-path="url(#p75ca9772e1)" d="M 27 120.814523 
L 29.681081 120.489614 
L 31.524324 120.058695 
L 33.032432 119.480829 
L 34.205405 118.814788 
L 35.210811 118.02667 
L 36.216216 116.963891 
L 37.221622 115.531994 
L 38.059459 113.966771 
L 38.897297 111.958375 
L 39.735135 109.381859 
L 40.572973 106.076439 
L 41.410811 101.843425 
L 42.248649 96.416102 
L 42.583784 94.161234 
L 63.027027 31.114528 
L 64.535135 27.166317 
L 65.540541 25.123966 
L 66.378378 23.919495 
L 67.216216 23.148053 
L 68.054054 22.705632 
L 69.059459 22.439379 
L 70.735135 22.282236 
L 75.091892 22.235657 
L 194.4 22.237714 
L 194.4 22.237714 
" style="fill:none;stroke:#ff1700;stroke-linecap:round;stroke-width:1.5;"/>
   </g>
   <g id="line2d_57">
    <path clip-path="url(#p75ca9772e1)" d="M 27 120.814523 
L 49.621622 120.521928 
L 104.416216 120.909511 
L 167.756757 121.039286 
L 194.4 121.058182 
L 194.4 121.058182 
" style="fill:none;stroke:#0017f4;stroke-linecap:round;stroke-width:1.5;"/>
   </g>
   <g id="line2d_58">
    <path clip-path="url(#p75ca9772e1)" d="M 27 120.181063 
L 28.508108 119.67248 
L 29.848649 118.984092 
L 31.021622 118.111235 
L 32.027027 117.077986 
L 33.032432 115.684986 
L 33.87027 114.162633 
L 34.708108 112.210532 
L 35.545946 109.70531 
L 36.383784 106.49156 
L 37.221622 102.372859 
L 38.059459 97.096286 
L 38.562162 93.934482 
L 59.005405 30.905888 
L 60.513514 26.996652 
L 61.518919 24.99921 
L 62.356757 23.833358 
L 63.194595 23.096263 
L 64.032432 22.678307 
L 65.037838 22.427244 
L 66.713514 22.280533 
L 70.567568 22.237213 
L 194.4 22.239269 
L 194.4 22.239269 
" style="fill:none;stroke:#ff2e00;stroke-linecap:round;stroke-width:1.5;"/>
   </g>
   <g id="line2d_59">
    <path clip-path="url(#p75ca9772e1)" d="M 27 120.181063 
L 30.854054 119.847892 
L 37.891892 119.193504 
L 42.081081 119.065204 
L 47.778378 119.13429 
L 66.545946 119.728635 
L 87.156757 120.216558 
L 112.627027 120.586489 
L 146.978378 120.849327 
L 194.4 121.000234 
L 194.4 121.000234 
" style="fill:none;stroke:#002ee8;stroke-linecap:round;stroke-width:1.5;"/>
   </g>
   <g id="line2d_60">
    <path clip-path="url(#p75ca9772e1)" d="M 27 118.045579 
L 28.005405 116.990014 
L 29.010811 115.56619 
L 29.848649 114.010409 
L 30.686486 112.015961 
L 31.524324 109.455886 
L 32.362162 106.172092 
L 33.2 101.961233 
L 34.037838 96.568272 
L 34.372973 94.226644 
L 54.983784 30.696885 
L 56.491892 26.823578 
L 57.497297 24.880255 
L 58.335135 23.754153 
L 59.172973 23.050096 
L 60.010811 22.651982 
L 61.183784 22.390461 
L 62.859459 22.272305 
L 67.383784 22.236065 
L 124.021622 22.238528 
L 194.4 22.239351 
L 194.4 22.239351 
" style="fill:none;stroke:#ff4500;stroke-linecap:round;stroke-width:1.5;"/>
   </g>
   <g id="line2d_61">
    <path clip-path="url(#p75ca9772e1)" d="M 27 118.045579 
L 29.010811 117.540347 
L 31.691892 116.615271 
L 35.881081 115.185486 
L 38.227027 114.639987 
L 40.572973 114.331208 
L 43.086486 114.225831 
L 46.27027 114.324077 
L 50.962162 114.714185 
L 79.448649 117.435787 
L 92.183784 118.288761 
L 106.594595 119.025014 
L 123.183784 119.641852 
L 142.789189 120.140925 
L 167.254054 120.530872 
L 194.4 120.778558 
L 194.4 120.778558 
" style="fill:none;stroke:#0045dc;stroke-linecap:round;stroke-width:1.5;"/>
   </g>
   <g id="line2d_62">
    <path clip-path="url(#p75ca9772e1)" d="M 27 110.846545 
L 27.837838 107.957254 
L 28.675676 104.250421 
L 29.513514 99.499732 
L 30.518919 93.480058 
L 50.794595 30.966009 
L 52.302703 27.045452 
L 53.308108 25.034823 
L 54.145946 23.858588 
L 54.983784 23.111871 
L 55.821622 22.686263 
L 56.827027 22.430832 
L 58.502703 22.280758 
L 63.362162 22.236427 
L 194.4 22.241938 
L 194.4 22.241938 
" style="fill:none;stroke:#ff5d00;stroke-linecap:round;stroke-width:1.5;"/>
   </g>
   <g id="line2d_63">
    <path clip-path="url(#p75ca9772e1)" d="M 27 110.846545 
L 28.172973 109.938095 
L 29.513514 108.616962 
L 31.356757 106.441927 
L 35.043243 102.009768 
L 36.718919 100.366116 
L 38.227027 99.202346 
L 39.567568 98.428284 
L 40.908108 97.88695 
L 42.416216 97.517942 
L 44.091892 97.354201 
L 45.935135 97.402493 
L 48.281081 97.706531 
L 51.297297 98.342572 
L 55.989189 99.591465 
L 77.940541 105.68856 
L 86.989189 107.868849 
L 95.87027 109.781528 
L 104.918919 111.50254 
L 114.135135 113.029965 
L 123.854054 114.412501 
L 134.075676 115.637926 
L 144.967568 116.717605 
L 156.864865 117.669368 
L 169.935135 118.488896 
L 184.848649 119.194661 
L 194.4 119.545011 
L 194.4 119.545011 
" style="fill:none;stroke:#005dd0;stroke-linecap:round;stroke-width:1.5;"/>
   </g>
   <g id="line2d_64">
    <path clip-path="url(#p75ca9772e1)" d="M 27 91.694846 
L 46.772973 30.761166 
L 48.113514 27.265483 
L 49.118919 25.197778 
L 49.956757 23.969368 
L 50.794595 23.178058 
L 51.632432 22.722349 
L 52.637838 22.446972 
L 54.145946 22.292723 
L 58 22.236553 
L 194.4 22.235308 
L 194.4 22.235308 
" style="fill:none;stroke:#ff7400;stroke-linecap:round;stroke-width:1.5;"/>
   </g>
   <g id="line2d_65">
    <path clip-path="url(#p75ca9772e1)" d="M 27 91.694846 
L 28.508108 90.527514 
L 34.708108 85.344225 
L 36.551351 84.271002 
L 38.394595 83.448089 
L 40.405405 82.783941 
L 42.918919 82.202192 
L 46.102703 81.711623 
L 50.962162 81.2155 
L 75.92973 78.953694 
L 84.308108 77.873504 
L 91.681081 76.700324 
L 98.048649 75.46973 
L 103.745946 74.149122 
L 108.940541 72.7189 
L 113.464865 71.250261 
L 117.654054 69.665777 
L 121.508108 67.977087 
L 125.027027 66.200856 
L 128.378378 64.269837 
L 131.72973 62.074333 
L 134.913514 59.723045 
L 138.432432 56.836464 
L 142.956757 52.786778 
L 147.481081 48.825966 
L 149.827027 47.05606 
L 151.837838 45.790494 
L 153.681081 44.871264 
L 155.524324 44.20183 
L 157.535135 43.723877 
L 159.713514 43.452364 
L 162.227027 43.383992 
L 165.578378 43.544518 
L 177.810811 44.310539 
L 184.513514 44.384157 
L 194.4 44.317027 
L 194.4 44.317027 
" style="fill:none;stroke:#0074c5;stroke-linecap:round;stroke-width:1.5;"/>
   </g>
   <g id="line2d_66">
    <path clip-path="url(#p75ca9772e1)" d="M 27 79.005079 
L 42.583784 31.026991 
L 44.091892 27.095056 
L 45.097297 25.071397 
L 45.935135 23.88386 
L 46.772973 23.126616 
L 47.610811 22.69406 
L 48.616216 22.434088 
L 50.291892 22.281664 
L 54.816216 22.236005 
L 186.691892 22.228264 
L 194.4 22.235976 
L 194.4 22.235976 
" style="fill:none;stroke:#ff8b00;stroke-linecap:round;stroke-width:1.5;"/>
   </g>
   <g id="line2d_67">
    <path clip-path="url(#p75ca9772e1)" d="M 27 79.005079 
L 28.508108 77.843963 
L 31.356757 75.278436 
L 33.87027 73.146101 
L 36.216216 71.426516 
L 39.064865 69.63959 
L 45.6 65.936979 
L 49.454054 63.569872 
L 52.805405 61.257096 
L 56.156757 58.668905 
L 59.843243 55.523787 
L 68.556757 47.915831 
L 70.735135 46.396945 
L 72.745946 45.268373 
L 74.589189 44.482553 
L 76.432432 43.935747 
L 78.443243 43.57469 
L 80.621622 43.406635 
L 83.47027 43.432178 
L 88.162162 43.752839 
L 96.037838 44.254569 
L 102.07027 44.377906 
L 112.627027 44.328273 
L 134.243243 44.287844 
L 194.4 44.290359 
L 194.4 44.290359 
" style="fill:none;stroke:#008bba;stroke-linecap:round;stroke-width:1.5;"/>
   </g>
   <g id="line2d_68">
    <path clip-path="url(#p75ca9772e1)" d="M 27 66.315311 
L 38.562162 30.819539 
L 39.902703 27.31394 
L 40.908108 25.233939 
L 41.745946 23.99426 
L 42.583784 23.193197 
L 43.421622 22.730568 
L 44.427027 22.450756 
L 45.935135 22.292128 
L 49.621622 22.23699 
L 89.502703 22.236778 
L 194.4 22.235228 
L 194.4 22.235228 
" style="fill:none;stroke:#ffa200;stroke-linecap:round;stroke-width:1.5;"/>
   </g>
   <g id="line2d_69">
    <path clip-path="url(#p75ca9772e1)" d="M 27 66.315311 
L 28.675676 65.037401 
L 31.356757 62.656996 
L 42.248649 52.829535 
L 46.605405 49.028267 
L 49.118919 47.125438 
L 51.12973 45.859053 
L 52.972973 44.938678 
L 54.816216 44.254806 
L 56.827027 43.760355 
L 58.837838 43.493276 
L 61.183784 43.404898 
L 64.535135 43.526381 
L 79.113514 44.352085 
L 86.821622 44.367871 
L 121.340541 44.29 
L 194.4 44.290338 
L 194.4 44.290338 
" style="fill:none;stroke:#00a2ae;stroke-linecap:round;stroke-width:1.5;"/>
   </g>
   <g id="line2d_70">
    <path clip-path="url(#p75ca9772e1)" d="M 27 53.625544 
L 34.540541 30.612913 
L 35.881081 27.140499 
L 36.886486 25.106827 
L 37.724324 23.90617 
L 38.562162 23.139551 
L 39.4 22.699258 
L 40.405405 22.430599 
L 42.081081 22.282626 
L 46.27027 22.235853 
L 194.4 22.243195 
L 194.4 22.243195 
" style="fill:none;stroke:#ffba00;stroke-linecap:round;stroke-width:1.5;"/>
   </g>
   <g id="line2d_71">
    <path clip-path="url(#p75ca9772e1)" d="M 27 53.625544 
L 30.016216 51.453777 
L 34.875676 47.956269 
L 37.389189 46.424652 
L 39.567568 45.355194 
L 41.578378 44.60543 
L 43.589189 44.079851 
L 45.767568 43.741347 
L 48.281081 43.586003 
L 51.464865 43.623828 
L 57.832432 43.993842 
L 64.702703 44.292746 
L 71.908108 44.362041 
L 194.4 44.290276 
L 194.4 44.290276 
" style="fill:none;stroke:#00baa2;stroke-linecap:round;stroke-width:1.5;"/>
   </g>
   <g id="line2d_72">
    <path clip-path="url(#p75ca9772e1)" d="M 27 40.935777 
L 30.686486 29.929212 
L 32.027027 26.582384 
L 32.864865 24.979165 
L 33.702703 23.82103 
L 34.540541 23.085682 
L 35.378378 22.671854 
L 36.551351 22.395816 
L 38.227027 22.274083 
L 42.751351 22.235808 
L 99.389189 22.239171 
L 107.432432 22.234366 
L 191.383784 22.23924 
L 194.4 22.237845 
L 194.4 22.237845 
" style="fill:none;stroke:#ffd100;stroke-linecap:round;stroke-width:1.5;"/>
   </g>
   <g id="line2d_73">
    <path clip-path="url(#p75ca9772e1)" d="M 27 40.935777 
L 28.005405 40.384207 
L 29.010811 40.073099 
L 30.183784 39.969441 
L 31.356757 40.086873 
L 32.864865 40.464782 
L 35.210811 41.322577 
L 40.572973 43.338021 
L 43.086486 44.013595 
L 45.6 44.463053 
L 48.281081 44.723101 
L 51.464865 44.800336 
L 56.156757 44.672164 
L 67.886486 44.276115 
L 77.437838 44.250517 
L 129.551351 44.290149 
L 194.4 44.290262 
L 194.4 44.290262 
" style="fill:none;stroke:#00d196;stroke-linecap:round;stroke-width:1.5;"/>
   </g>
   <g id="line2d_74">
    <path clip-path="url(#p75ca9772e1)" d="M 27 28.246009 
L 28.172973 25.626741 
L 29.010811 24.269667 
L 29.848649 23.360874 
L 30.686486 22.822739 
L 31.691892 22.492767 
L 33.032432 22.317757 
L 35.713514 22.242849 
L 51.8 22.236798 
L 86.654054 22.234917 
L 155.356757 22.235669 
L 163.232432 22.234935 
L 194.4 22.235283 
L 194.4 22.235283 
" style="fill:none;stroke:#ffe800;stroke-linecap:round;stroke-width:1.5;"/>
   </g>
   <g id="line2d_75">
    <path clip-path="url(#p75ca9772e1)" d="M 27 28.246009 
L 27.502703 28.103392 
L 28.005405 28.22664 
L 28.675676 28.717329 
L 29.681081 29.85115 
L 31.356757 32.192914 
L 36.718919 39.931419 
L 38.72973 42.357929 
L 40.405405 44.00126 
L 41.913514 45.174326 
L 43.254054 45.959527 
L 44.594595 46.509963 
L 46.102703 46.880076 
L 47.610811 47.023468 
L 49.454054 46.956954 
L 51.632432 46.64455 
L 55.318919 45.853065 
L 60.178378 44.850221 
L 63.697297 44.370421 
L 67.216216 44.120142 
L 71.740541 44.046068 
L 79.951351 44.189993 
L 92.016216 44.313728 
L 194.4 44.290291 
L 194.4 44.290291 
" style="fill:none;stroke:#00e88b;stroke-linecap:round;stroke-width:1.5;"/>
   </g>
   <g id="patch_3">
    <path d="M 27 126 
L 27 17.28 
" style="fill:none;stroke:#262626;stroke-linecap:square;stroke-linejoin:miter;stroke-width:0.8;"/>
   </g>
   <g id="patch_4">
    <path d="M 194.4 126 
L 194.4 17.28 
" style="fill:none;stroke:#262626;stroke-linecap:square;stroke-linejoin:miter;stroke-width:0.8;"/>
   </g>
   <g id="patch_5">
    <path d="M 27 126 
L 194.4 126 
" style="fill:none;stroke:#262626;stroke-linecap:square;stroke-linejoin:miter;stroke-width:0.8;"/>
   </g>
   <g id="patch_6">
    <path d="M 27 17.28 
L 194.4 17.28 
" style="fill:none;stroke:#262626;stroke-linecap:square;stroke-linejoin:miter;stroke-width:0.8;"/>
   </g>
  </g>
 </g>
 <defs>
  <clipPath id="p75ca9772e1">
   <rect height="108.72" width="167.4" x="27" y="17.28"/>
  </clipPath>
 </defs>
</svg>
