<?xml version="1.0" encoding="utf-8" standalone="no"?>
<!DOCTYPE svg PUBLIC "-//W3C//DTD SVG 1.1//EN"
  "http://www.w3.org/Graphics/SVG/1.1/DTD/svg11.dtd">
<!-- Created with matplotlib (https://matplotlib.org/) -->
<svg height="144pt" version="1.1" viewBox="0 0 216 144" width="216pt" xmlns="http://www.w3.org/2000/svg" xmlns:xlink="http://www.w3.org/1999/xlink">
 <defs>
  <style type="text/css">
*{stroke-linecap:butt;stroke-linejoin:round;}
  </style>
 </defs>
 <g id="figure_1">
  <g id="patch_1">
   <path d="M 0 144 
L 216 144 
L 216 0 
L 0 0 
z
" style="fill:#ffffff;"/>
  </g>
  <g id="axes_1">
   <g id="patch_2">
    <path d="M 27 126 
L 194.4 126 
L 194.4 17.28 
L 27 17.28 
z
" style="fill:#ffffff;"/>
   </g>
   <g id="matplotlib.axis_1">
    <g id="xtick_1">
     <g id="line2d_1">
      <path clip-path="url(#p29e4a84322)" d="M 27 126 
L 27 17.28 
" style="fill:none;stroke:#cccccc;stroke-linecap:round;stroke-width:0.8;"/>
     </g>
     <g id="line2d_2">
      <defs>
       <path d="M 0 0 
L 0 3.5 
" id="m2c4396f4c8" style="stroke:#262626;stroke-width:0.8;"/>
      </defs>
      <g>
       <use style="fill:#262626;stroke:#262626;stroke-width:0.8;" x="27" xlink:href="#m2c4396f4c8" y="126"/>
      </g>
     </g>
     <g id="text_1">
      <!-- 0 -->
      <defs>
       <path d="M 31.78125 66.40625 
Q 24.171875 66.40625 20.328125 58.90625 
Q 16.5 51.421875 16.5 36.375 
Q 16.5 21.390625 20.328125 13.890625 
Q 24.171875 6.390625 31.78125 6.390625 
Q 39.453125 6.390625 43.28125 13.890625 
Q 47.125 21.390625 47.125 36.375 
Q 47.125 51.421875 43.28125 58.90625 
Q 39.453125 66.40625 31.78125 66.40625 
z
M 31.78125 74.21875 
Q 44.046875 74.21875 50.515625 64.515625 
Q 56.984375 54.828125 56.984375 36.375 
Q 56.984375 17.96875 50.515625 8.265625 
Q 44.046875 -1.421875 31.78125 -1.421875 
Q 19.53125 -1.421875 13.0625 8.265625 
Q 6.59375 17.96875 6.59375 36.375 
Q 6.59375 54.828125 13.0625 64.515625 
Q 19.53125 74.21875 31.78125 74.21875 
z
" id="DejaVuSans-48"/>
      </defs>
      <g style="fill:#262626;" transform="translate(23.81875 140.598437)scale(0.1 -0.1)">
       <use xlink:href="#DejaVuSans-48"/>
      </g>
     </g>
    </g>
    <g id="xtick_2">
     <g id="line2d_3">
      <path clip-path="url(#p29e4a84322)" d="M 82.8 126 
L 82.8 17.28 
" style="fill:none;stroke:#cccccc;stroke-linecap:round;stroke-width:0.8;"/>
     </g>
     <g id="line2d_4">
      <g>
       <use style="fill:#262626;stroke:#262626;stroke-width:0.8;" x="82.8" xlink:href="#m2c4396f4c8" y="126"/>
      </g>
     </g>
     <g id="text_2">
      <!-- 10 -->
      <defs>
       <path d="M 12.40625 8.296875 
L 28.515625 8.296875 
L 28.515625 63.921875 
L 10.984375 60.40625 
L 10.984375 69.390625 
L 28.421875 72.90625 
L 38.28125 72.90625 
L 38.28125 8.296875 
L 54.390625 8.296875 
L 54.390625 0 
L 12.40625 0 
z
" id="DejaVuSans-49"/>
      </defs>
      <g style="fill:#262626;" transform="translate(76.4375 140.598437)scale(0.1 -0.1)">
       <use xlink:href="#DejaVuSans-49"/>
       <use x="63.623047" xlink:href="#DejaVuSans-48"/>
      </g>
     </g>
    </g>
    <g id="xtick_3">
     <g id="line2d_5">
      <path clip-path="url(#p29e4a84322)" d="M 138.6 126 
L 138.6 17.28 
" style="fill:none;stroke:#cccccc;stroke-linecap:round;stroke-width:0.8;"/>
     </g>
     <g id="line2d_6">
      <g>
       <use style="fill:#262626;stroke:#262626;stroke-width:0.8;" x="138.6" xlink:href="#m2c4396f4c8" y="126"/>
      </g>
     </g>
     <g id="text_3">
      <!-- 20 -->
      <defs>
       <path d="M 19.1875 8.296875 
L 53.609375 8.296875 
L 53.609375 0 
L 7.328125 0 
L 7.328125 8.296875 
Q 12.9375 14.109375 22.625 23.890625 
Q 32.328125 33.6875 34.8125 36.53125 
Q 39.546875 41.84375 41.421875 45.53125 
Q 43.3125 49.21875 43.3125 52.78125 
Q 43.3125 58.59375 39.234375 62.25 
Q 35.15625 65.921875 28.609375 65.921875 
Q 23.96875 65.921875 18.8125 64.3125 
Q 13.671875 62.703125 7.8125 59.421875 
L 7.8125 69.390625 
Q 13.765625 71.78125 18.9375 73 
Q 24.125 74.21875 28.421875 74.21875 
Q 39.75 74.21875 46.484375 68.546875 
Q 53.21875 62.890625 53.21875 53.421875 
Q 53.21875 48.921875 51.53125 44.890625 
Q 49.859375 40.875 45.40625 35.40625 
Q 44.1875 33.984375 37.640625 27.21875 
Q 31.109375 20.453125 19.1875 8.296875 
z
" id="DejaVuSans-50"/>
      </defs>
      <g style="fill:#262626;" transform="translate(132.2375 140.598437)scale(0.1 -0.1)">
       <use xlink:href="#DejaVuSans-50"/>
       <use x="63.623047" xlink:href="#DejaVuSans-48"/>
      </g>
     </g>
    </g>
    <g id="xtick_4">
     <g id="line2d_7">
      <path clip-path="url(#p29e4a84322)" d="M 194.4 126 
L 194.4 17.28 
" style="fill:none;stroke:#cccccc;stroke-linecap:round;stroke-width:0.8;"/>
     </g>
     <g id="line2d_8">
      <g>
       <use style="fill:#262626;stroke:#262626;stroke-width:0.8;" x="194.4" xlink:href="#m2c4396f4c8" y="126"/>
      </g>
     </g>
     <g id="text_4">
      <!-- 30 -->
      <defs>
       <path d="M 40.578125 39.3125 
Q 47.65625 37.796875 51.625 33 
Q 55.609375 28.21875 55.609375 21.1875 
Q 55.609375 10.40625 48.1875 4.484375 
Q 40.765625 -1.421875 27.09375 -1.421875 
Q 22.515625 -1.421875 17.65625 -0.515625 
Q 12.796875 0.390625 7.625 2.203125 
L 7.625 11.71875 
Q 11.71875 9.328125 16.59375 8.109375 
Q 21.484375 6.890625 26.8125 6.890625 
Q 36.078125 6.890625 40.9375 10.546875 
Q 45.796875 14.203125 45.796875 21.1875 
Q 45.796875 27.640625 41.28125 31.265625 
Q 36.765625 34.90625 28.71875 34.90625 
L 20.21875 34.90625 
L 20.21875 43.015625 
L 29.109375 43.015625 
Q 36.375 43.015625 40.234375 45.921875 
Q 44.09375 48.828125 44.09375 54.296875 
Q 44.09375 59.90625 40.109375 62.90625 
Q 36.140625 65.921875 28.71875 65.921875 
Q 24.65625 65.921875 20.015625 65.03125 
Q 15.375 64.15625 9.8125 62.3125 
L 9.8125 71.09375 
Q 15.4375 72.65625 20.34375 73.4375 
Q 25.25 74.21875 29.59375 74.21875 
Q 40.828125 74.21875 47.359375 69.109375 
Q 53.90625 64.015625 53.90625 55.328125 
Q 53.90625 49.265625 50.4375 45.09375 
Q 46.96875 40.921875 40.578125 39.3125 
z
" id="DejaVuSans-51"/>
      </defs>
      <g style="fill:#262626;" transform="translate(188.0375 140.598437)scale(0.1 -0.1)">
       <use xlink:href="#DejaVuSans-51"/>
       <use x="63.623047" xlink:href="#DejaVuSans-48"/>
      </g>
     </g>
    </g>
    <g id="text_5">
     <!-- Time (days) -->
     <defs>
      <path d="M -0.296875 72.90625 
L 61.375 72.90625 
L 61.375 64.59375 
L 35.5 64.59375 
L 35.5 0 
L 25.59375 0 
L 25.59375 64.59375 
L -0.296875 64.59375 
z
" id="DejaVuSans-84"/>
      <path d="M 9.421875 54.6875 
L 18.40625 54.6875 
L 18.40625 0 
L 9.421875 0 
z
M 9.421875 75.984375 
L 18.40625 75.984375 
L 18.40625 64.59375 
L 9.421875 64.59375 
z
" id="DejaVuSans-105"/>
      <path d="M 52 44.1875 
Q 55.375 50.25 60.0625 53.125 
Q 64.75 56 71.09375 56 
Q 79.640625 56 84.28125 50.015625 
Q 88.921875 44.046875 88.921875 33.015625 
L 88.921875 0 
L 79.890625 0 
L 79.890625 32.71875 
Q 79.890625 40.578125 77.09375 44.375 
Q 74.3125 48.1875 68.609375 48.1875 
Q 61.625 48.1875 57.5625 43.546875 
Q 53.515625 38.921875 53.515625 30.90625 
L 53.515625 0 
L 44.484375 0 
L 44.484375 32.71875 
Q 44.484375 40.625 41.703125 44.40625 
Q 38.921875 48.1875 33.109375 48.1875 
Q 26.21875 48.1875 22.15625 43.53125 
Q 18.109375 38.875 18.109375 30.90625 
L 18.109375 0 
L 9.078125 0 
L 9.078125 54.6875 
L 18.109375 54.6875 
L 18.109375 46.1875 
Q 21.1875 51.21875 25.484375 53.609375 
Q 29.78125 56 35.6875 56 
Q 41.65625 56 45.828125 52.96875 
Q 50 49.953125 52 44.1875 
z
" id="DejaVuSans-109"/>
      <path d="M 56.203125 29.59375 
L 56.203125 25.203125 
L 14.890625 25.203125 
Q 15.484375 15.921875 20.484375 11.0625 
Q 25.484375 6.203125 34.421875 6.203125 
Q 39.59375 6.203125 44.453125 7.46875 
Q 49.3125 8.734375 54.109375 11.28125 
L 54.109375 2.78125 
Q 49.265625 0.734375 44.1875 -0.34375 
Q 39.109375 -1.421875 33.890625 -1.421875 
Q 20.796875 -1.421875 13.15625 6.1875 
Q 5.515625 13.8125 5.515625 26.8125 
Q 5.515625 40.234375 12.765625 48.109375 
Q 20.015625 56 32.328125 56 
Q 43.359375 56 49.78125 48.890625 
Q 56.203125 41.796875 56.203125 29.59375 
z
M 47.21875 32.234375 
Q 47.125 39.59375 43.09375 43.984375 
Q 39.0625 48.390625 32.421875 48.390625 
Q 24.90625 48.390625 20.390625 44.140625 
Q 15.875 39.890625 15.1875 32.171875 
z
" id="DejaVuSans-101"/>
      <path id="DejaVuSans-32"/>
      <path d="M 31 75.875 
Q 24.46875 64.65625 21.28125 53.65625 
Q 18.109375 42.671875 18.109375 31.390625 
Q 18.109375 20.125 21.3125 9.0625 
Q 24.515625 -2 31 -13.1875 
L 23.1875 -13.1875 
Q 15.875 -1.703125 12.234375 9.375 
Q 8.59375 20.453125 8.59375 31.390625 
Q 8.59375 42.28125 12.203125 53.3125 
Q 15.828125 64.359375 23.1875 75.875 
z
" id="DejaVuSans-40"/>
      <path d="M 45.40625 46.390625 
L 45.40625 75.984375 
L 54.390625 75.984375 
L 54.390625 0 
L 45.40625 0 
L 45.40625 8.203125 
Q 42.578125 3.328125 38.25 0.953125 
Q 33.9375 -1.421875 27.875 -1.421875 
Q 17.96875 -1.421875 11.734375 6.484375 
Q 5.515625 14.40625 5.515625 27.296875 
Q 5.515625 40.1875 11.734375 48.09375 
Q 17.96875 56 27.875 56 
Q 33.9375 56 38.25 53.625 
Q 42.578125 51.265625 45.40625 46.390625 
z
M 14.796875 27.296875 
Q 14.796875 17.390625 18.875 11.75 
Q 22.953125 6.109375 30.078125 6.109375 
Q 37.203125 6.109375 41.296875 11.75 
Q 45.40625 17.390625 45.40625 27.296875 
Q 45.40625 37.203125 41.296875 42.84375 
Q 37.203125 48.484375 30.078125 48.484375 
Q 22.953125 48.484375 18.875 42.84375 
Q 14.796875 37.203125 14.796875 27.296875 
z
" id="DejaVuSans-100"/>
      <path d="M 34.28125 27.484375 
Q 23.390625 27.484375 19.1875 25 
Q 14.984375 22.515625 14.984375 16.5 
Q 14.984375 11.71875 18.140625 8.90625 
Q 21.296875 6.109375 26.703125 6.109375 
Q 34.1875 6.109375 38.703125 11.40625 
Q 43.21875 16.703125 43.21875 25.484375 
L 43.21875 27.484375 
z
M 52.203125 31.203125 
L 52.203125 0 
L 43.21875 0 
L 43.21875 8.296875 
Q 40.140625 3.328125 35.546875 0.953125 
Q 30.953125 -1.421875 24.3125 -1.421875 
Q 15.921875 -1.421875 10.953125 3.296875 
Q 6 8.015625 6 15.921875 
Q 6 25.140625 12.171875 29.828125 
Q 18.359375 34.515625 30.609375 34.515625 
L 43.21875 34.515625 
L 43.21875 35.40625 
Q 43.21875 41.609375 39.140625 45 
Q 35.0625 48.390625 27.6875 48.390625 
Q 23 48.390625 18.546875 47.265625 
Q 14.109375 46.140625 10.015625 43.890625 
L 10.015625 52.203125 
Q 14.9375 54.109375 19.578125 55.046875 
Q 24.21875 56 28.609375 56 
Q 40.484375 56 46.34375 49.84375 
Q 52.203125 43.703125 52.203125 31.203125 
z
" id="DejaVuSans-97"/>
      <path d="M 32.171875 -5.078125 
Q 28.375 -14.84375 24.75 -17.8125 
Q 21.140625 -20.796875 15.09375 -20.796875 
L 7.90625 -20.796875 
L 7.90625 -13.28125 
L 13.1875 -13.28125 
Q 16.890625 -13.28125 18.9375 -11.515625 
Q 21 -9.765625 23.484375 -3.21875 
L 25.09375 0.875 
L 2.984375 54.6875 
L 12.5 54.6875 
L 29.59375 11.921875 
L 46.6875 54.6875 
L 56.203125 54.6875 
z
" id="DejaVuSans-121"/>
      <path d="M 44.28125 53.078125 
L 44.28125 44.578125 
Q 40.484375 46.53125 36.375 47.5 
Q 32.28125 48.484375 27.875 48.484375 
Q 21.1875 48.484375 17.84375 46.4375 
Q 14.5 44.390625 14.5 40.28125 
Q 14.5 37.15625 16.890625 35.375 
Q 19.28125 33.59375 26.515625 31.984375 
L 29.59375 31.296875 
Q 39.15625 29.25 43.1875 25.515625 
Q 47.21875 21.78125 47.21875 15.09375 
Q 47.21875 7.46875 41.1875 3.015625 
Q 35.15625 -1.421875 24.609375 -1.421875 
Q 20.21875 -1.421875 15.453125 -0.5625 
Q 10.6875 0.296875 5.421875 2 
L 5.421875 11.28125 
Q 10.40625 8.6875 15.234375 7.390625 
Q 20.0625 6.109375 24.8125 6.109375 
Q 31.15625 6.109375 34.5625 8.28125 
Q 37.984375 10.453125 37.984375 14.40625 
Q 37.984375 18.0625 35.515625 20.015625 
Q 33.0625 21.96875 24.703125 23.78125 
L 21.578125 24.515625 
Q 13.234375 26.265625 9.515625 29.90625 
Q 5.8125 33.546875 5.8125 39.890625 
Q 5.8125 47.609375 11.28125 51.796875 
Q 16.75 56 26.8125 56 
Q 31.78125 56 36.171875 55.265625 
Q 40.578125 54.546875 44.28125 53.078125 
z
" id="DejaVuSans-115"/>
      <path d="M 8.015625 75.875 
L 15.828125 75.875 
Q 23.140625 64.359375 26.78125 53.3125 
Q 30.421875 42.28125 30.421875 31.390625 
Q 30.421875 20.453125 26.78125 9.375 
Q 23.140625 -1.703125 15.828125 -13.1875 
L 8.015625 -13.1875 
Q 14.5 -2 17.703125 9.0625 
Q 20.90625 20.125 20.90625 31.390625 
Q 20.90625 42.671875 17.703125 53.65625 
Q 14.5 64.65625 8.015625 75.875 
z
" id="DejaVuSans-41"/>
     </defs>
     <g style="fill:#262626;" transform="translate(81.019531 154.276563)scale(0.1 -0.1)">
      <use xlink:href="#DejaVuSans-84"/>
      <use x="61.037109" xlink:href="#DejaVuSans-105"/>
      <use x="88.820312" xlink:href="#DejaVuSans-109"/>
      <use x="186.232422" xlink:href="#DejaVuSans-101"/>
      <use x="247.755859" xlink:href="#DejaVuSans-32"/>
      <use x="279.542969" xlink:href="#DejaVuSans-40"/>
      <use x="318.556641" xlink:href="#DejaVuSans-100"/>
      <use x="382.033203" xlink:href="#DejaVuSans-97"/>
      <use x="443.3125" xlink:href="#DejaVuSans-121"/>
      <use x="502.492188" xlink:href="#DejaVuSans-115"/>
      <use x="554.591797" xlink:href="#DejaVuSans-41"/>
     </g>
    </g>
   </g>
   <g id="matplotlib.axis_2">
    <g id="ytick_1">
     <g id="line2d_9">
      <path clip-path="url(#p29e4a84322)" d="M 27 121.058182 
L 194.4 121.058182 
" style="fill:none;stroke:#cccccc;stroke-linecap:round;stroke-width:0.8;"/>
     </g>
     <g id="line2d_10">
      <defs>
       <path d="M 0 0 
L -3.5 0 
" id="m690712739f" style="stroke:#262626;stroke-width:0.8;"/>
      </defs>
      <g>
       <use style="fill:#262626;stroke:#262626;stroke-width:0.8;" x="27" xlink:href="#m690712739f" y="121.058182"/>
      </g>
     </g>
     <g id="text_6">
      <!-- $\mathdefault{0}$ -->
      <g style="fill:#262626;" transform="translate(13.6 124.857401)scale(0.1 -0.1)">
       <use transform="translate(0 0.78125)" xlink:href="#DejaVuSans-48"/>
      </g>
     </g>
    </g>
    <g id="ytick_2">
     <g id="line2d_11">
      <path clip-path="url(#p29e4a84322)" d="M 27 94.346221 
L 194.4 94.346221 
" style="fill:none;stroke:#cccccc;stroke-linecap:round;stroke-width:0.8;"/>
     </g>
     <g id="line2d_12">
      <g>
       <use style="fill:#262626;stroke:#262626;stroke-width:0.8;" x="27" xlink:href="#m690712739f" y="94.346221"/>
      </g>
     </g>
     <g id="text_7">
      <!-- $\mathdefault{10^{4}}$ -->
      <defs>
       <path d="M 37.796875 64.3125 
L 12.890625 25.390625 
L 37.796875 25.390625 
z
M 35.203125 72.90625 
L 47.609375 72.90625 
L 47.609375 25.390625 
L 58.015625 25.390625 
L 58.015625 17.1875 
L 47.609375 17.1875 
L 47.609375 0 
L 37.796875 0 
L 37.796875 17.1875 
L 4.890625 17.1875 
L 4.890625 26.703125 
z
" id="DejaVuSans-52"/>
      </defs>
      <g style="fill:#262626;" transform="translate(2.4 98.14544)scale(0.1 -0.1)">
       <use transform="translate(0 0.684375)" xlink:href="#DejaVuSans-49"/>
       <use transform="translate(63.623047 0.684375)" xlink:href="#DejaVuSans-48"/>
       <use transform="translate(128.203125 38.965625)scale(0.7)" xlink:href="#DejaVuSans-52"/>
      </g>
     </g>
    </g>
    <g id="ytick_3">
     <g id="line2d_13">
      <path clip-path="url(#p29e4a84322)" d="M 27 70.305456 
L 194.4 70.305456 
" style="fill:none;stroke:#cccccc;stroke-linecap:round;stroke-width:0.8;"/>
     </g>
     <g id="line2d_14">
      <g>
       <use style="fill:#262626;stroke:#262626;stroke-width:0.8;" x="27" xlink:href="#m690712739f" y="70.305456"/>
      </g>
     </g>
     <g id="text_8">
      <!-- $\mathdefault{10^{5}}$ -->
      <defs>
       <path d="M 10.796875 72.90625 
L 49.515625 72.90625 
L 49.515625 64.59375 
L 19.828125 64.59375 
L 19.828125 46.734375 
Q 21.96875 47.46875 24.109375 47.828125 
Q 26.265625 48.1875 28.421875 48.1875 
Q 40.625 48.1875 47.75 41.5 
Q 54.890625 34.8125 54.890625 23.390625 
Q 54.890625 11.625 47.5625 5.09375 
Q 40.234375 -1.421875 26.90625 -1.421875 
Q 22.3125 -1.421875 17.546875 -0.640625 
Q 12.796875 0.140625 7.71875 1.703125 
L 7.71875 11.625 
Q 12.109375 9.234375 16.796875 8.0625 
Q 21.484375 6.890625 26.703125 6.890625 
Q 35.15625 6.890625 40.078125 11.328125 
Q 45.015625 15.765625 45.015625 23.390625 
Q 45.015625 31 40.078125 35.4375 
Q 35.15625 39.890625 26.703125 39.890625 
Q 22.75 39.890625 18.8125 39.015625 
Q 14.890625 38.140625 10.796875 36.28125 
z
" id="DejaVuSans-53"/>
      </defs>
      <g style="fill:#262626;" transform="translate(2.4 74.104675)scale(0.1 -0.1)">
       <use transform="translate(0 0.684375)" xlink:href="#DejaVuSans-49"/>
       <use transform="translate(63.623047 0.684375)" xlink:href="#DejaVuSans-48"/>
       <use transform="translate(128.203125 38.965625)scale(0.7)" xlink:href="#DejaVuSans-53"/>
      </g>
     </g>
    </g>
    <g id="ytick_4">
     <g id="line2d_15">
      <path clip-path="url(#p29e4a84322)" d="M 27 46.264691 
L 194.4 46.264691 
" style="fill:none;stroke:#cccccc;stroke-linecap:round;stroke-width:0.8;"/>
     </g>
     <g id="line2d_16">
      <g>
       <use style="fill:#262626;stroke:#262626;stroke-width:0.8;" x="27" xlink:href="#m690712739f" y="46.264691"/>
      </g>
     </g>
     <g id="text_9">
      <!-- $\mathdefault{10^{6}}$ -->
      <defs>
       <path d="M 33.015625 40.375 
Q 26.375 40.375 22.484375 35.828125 
Q 18.609375 31.296875 18.609375 23.390625 
Q 18.609375 15.53125 22.484375 10.953125 
Q 26.375 6.390625 33.015625 6.390625 
Q 39.65625 6.390625 43.53125 10.953125 
Q 47.40625 15.53125 47.40625 23.390625 
Q 47.40625 31.296875 43.53125 35.828125 
Q 39.65625 40.375 33.015625 40.375 
z
M 52.59375 71.296875 
L 52.59375 62.3125 
Q 48.875 64.0625 45.09375 64.984375 
Q 41.3125 65.921875 37.59375 65.921875 
Q 27.828125 65.921875 22.671875 59.328125 
Q 17.53125 52.734375 16.796875 39.40625 
Q 19.671875 43.65625 24.015625 45.921875 
Q 28.375 48.1875 33.59375 48.1875 
Q 44.578125 48.1875 50.953125 41.515625 
Q 57.328125 34.859375 57.328125 23.390625 
Q 57.328125 12.15625 50.6875 5.359375 
Q 44.046875 -1.421875 33.015625 -1.421875 
Q 20.359375 -1.421875 13.671875 8.265625 
Q 6.984375 17.96875 6.984375 36.375 
Q 6.984375 53.65625 15.1875 63.9375 
Q 23.390625 74.21875 37.203125 74.21875 
Q 40.921875 74.21875 44.703125 73.484375 
Q 48.484375 72.75 52.59375 71.296875 
z
" id="DejaVuSans-54"/>
      </defs>
      <g style="fill:#262626;" transform="translate(2.4 50.06391)scale(0.1 -0.1)">
       <use transform="translate(0 0.765625)" xlink:href="#DejaVuSans-49"/>
       <use transform="translate(63.623047 0.765625)" xlink:href="#DejaVuSans-48"/>
       <use transform="translate(128.203125 39.046875)scale(0.7)" xlink:href="#DejaVuSans-54"/>
      </g>
     </g>
    </g>
    <g id="ytick_5">
     <g id="line2d_17">
      <path clip-path="url(#p29e4a84322)" d="M 27 22.223926 
L 194.4 22.223926 
" style="fill:none;stroke:#cccccc;stroke-linecap:round;stroke-width:0.8;"/>
     </g>
     <g id="line2d_18">
      <g>
       <use style="fill:#262626;stroke:#262626;stroke-width:0.8;" x="27" xlink:href="#m690712739f" y="22.223926"/>
      </g>
     </g>
     <g id="text_10">
      <!-- $\mathdefault{10^{7}}$ -->
      <defs>
       <path d="M 8.203125 72.90625 
L 55.078125 72.90625 
L 55.078125 68.703125 
L 28.609375 0 
L 18.3125 0 
L 43.21875 64.59375 
L 8.203125 64.59375 
z
" id="DejaVuSans-55"/>
      </defs>
      <g style="fill:#262626;" transform="translate(2.4 26.023145)scale(0.1 -0.1)">
       <use transform="translate(0 0.684375)" xlink:href="#DejaVuSans-49"/>
       <use transform="translate(63.623047 0.684375)" xlink:href="#DejaVuSans-48"/>
       <use transform="translate(128.203125 38.965625)scale(0.7)" xlink:href="#DejaVuSans-55"/>
      </g>
     </g>
    </g>
    <g id="text_11">
     <!-- Population (symlog) -->
     <defs>
      <path d="M 19.671875 64.796875 
L 19.671875 37.40625 
L 32.078125 37.40625 
Q 38.96875 37.40625 42.71875 40.96875 
Q 46.484375 44.53125 46.484375 51.125 
Q 46.484375 57.671875 42.71875 61.234375 
Q 38.96875 64.796875 32.078125 64.796875 
z
M 9.8125 72.90625 
L 32.078125 72.90625 
Q 44.34375 72.90625 50.609375 67.359375 
Q 56.890625 61.8125 56.890625 51.125 
Q 56.890625 40.328125 50.609375 34.8125 
Q 44.34375 29.296875 32.078125 29.296875 
L 19.671875 29.296875 
L 19.671875 0 
L 9.8125 0 
z
" id="DejaVuSans-80"/>
      <path d="M 30.609375 48.390625 
Q 23.390625 48.390625 19.1875 42.75 
Q 14.984375 37.109375 14.984375 27.296875 
Q 14.984375 17.484375 19.15625 11.84375 
Q 23.34375 6.203125 30.609375 6.203125 
Q 37.796875 6.203125 41.984375 11.859375 
Q 46.1875 17.53125 46.1875 27.296875 
Q 46.1875 37.015625 41.984375 42.703125 
Q 37.796875 48.390625 30.609375 48.390625 
z
M 30.609375 56 
Q 42.328125 56 49.015625 48.375 
Q 55.71875 40.765625 55.71875 27.296875 
Q 55.71875 13.875 49.015625 6.21875 
Q 42.328125 -1.421875 30.609375 -1.421875 
Q 18.84375 -1.421875 12.171875 6.21875 
Q 5.515625 13.875 5.515625 27.296875 
Q 5.515625 40.765625 12.171875 48.375 
Q 18.84375 56 30.609375 56 
z
" id="DejaVuSans-111"/>
      <path d="M 18.109375 8.203125 
L 18.109375 -20.796875 
L 9.078125 -20.796875 
L 9.078125 54.6875 
L 18.109375 54.6875 
L 18.109375 46.390625 
Q 20.953125 51.265625 25.265625 53.625 
Q 29.59375 56 35.59375 56 
Q 45.5625 56 51.78125 48.09375 
Q 58.015625 40.1875 58.015625 27.296875 
Q 58.015625 14.40625 51.78125 6.484375 
Q 45.5625 -1.421875 35.59375 -1.421875 
Q 29.59375 -1.421875 25.265625 0.953125 
Q 20.953125 3.328125 18.109375 8.203125 
z
M 48.6875 27.296875 
Q 48.6875 37.203125 44.609375 42.84375 
Q 40.53125 48.484375 33.40625 48.484375 
Q 26.265625 48.484375 22.1875 42.84375 
Q 18.109375 37.203125 18.109375 27.296875 
Q 18.109375 17.390625 22.1875 11.75 
Q 26.265625 6.109375 33.40625 6.109375 
Q 40.53125 6.109375 44.609375 11.75 
Q 48.6875 17.390625 48.6875 27.296875 
z
" id="DejaVuSans-112"/>
      <path d="M 8.5 21.578125 
L 8.5 54.6875 
L 17.484375 54.6875 
L 17.484375 21.921875 
Q 17.484375 14.15625 20.5 10.265625 
Q 23.53125 6.390625 29.59375 6.390625 
Q 36.859375 6.390625 41.078125 11.03125 
Q 45.3125 15.671875 45.3125 23.6875 
L 45.3125 54.6875 
L 54.296875 54.6875 
L 54.296875 0 
L 45.3125 0 
L 45.3125 8.40625 
Q 42.046875 3.421875 37.71875 1 
Q 33.40625 -1.421875 27.6875 -1.421875 
Q 18.265625 -1.421875 13.375 4.4375 
Q 8.5 10.296875 8.5 21.578125 
z
M 31.109375 56 
z
" id="DejaVuSans-117"/>
      <path d="M 9.421875 75.984375 
L 18.40625 75.984375 
L 18.40625 0 
L 9.421875 0 
z
" id="DejaVuSans-108"/>
      <path d="M 18.3125 70.21875 
L 18.3125 54.6875 
L 36.8125 54.6875 
L 36.8125 47.703125 
L 18.3125 47.703125 
L 18.3125 18.015625 
Q 18.3125 11.328125 20.140625 9.421875 
Q 21.96875 7.515625 27.59375 7.515625 
L 36.8125 7.515625 
L 36.8125 0 
L 27.59375 0 
Q 17.1875 0 13.234375 3.875 
Q 9.28125 7.765625 9.28125 18.015625 
L 9.28125 47.703125 
L 2.6875 47.703125 
L 2.6875 54.6875 
L 9.28125 54.6875 
L 9.28125 70.21875 
z
" id="DejaVuSans-116"/>
      <path d="M 54.890625 33.015625 
L 54.890625 0 
L 45.90625 0 
L 45.90625 32.71875 
Q 45.90625 40.484375 42.875 44.328125 
Q 39.84375 48.1875 33.796875 48.1875 
Q 26.515625 48.1875 22.3125 43.546875 
Q 18.109375 38.921875 18.109375 30.90625 
L 18.109375 0 
L 9.078125 0 
L 9.078125 54.6875 
L 18.109375 54.6875 
L 18.109375 46.1875 
Q 21.34375 51.125 25.703125 53.5625 
Q 30.078125 56 35.796875 56 
Q 45.21875 56 50.046875 50.171875 
Q 54.890625 44.34375 54.890625 33.015625 
z
" id="DejaVuSans-110"/>
      <path d="M 45.40625 27.984375 
Q 45.40625 37.75 41.375 43.109375 
Q 37.359375 48.484375 30.078125 48.484375 
Q 22.859375 48.484375 18.828125 43.109375 
Q 14.796875 37.75 14.796875 27.984375 
Q 14.796875 18.265625 18.828125 12.890625 
Q 22.859375 7.515625 30.078125 7.515625 
Q 37.359375 7.515625 41.375 12.890625 
Q 45.40625 18.265625 45.40625 27.984375 
z
M 54.390625 6.78125 
Q 54.390625 -7.171875 48.1875 -13.984375 
Q 42 -20.796875 29.203125 -20.796875 
Q 24.46875 -20.796875 20.265625 -20.09375 
Q 16.0625 -19.390625 12.109375 -17.921875 
L 12.109375 -9.1875 
Q 16.0625 -11.328125 19.921875 -12.34375 
Q 23.78125 -13.375 27.78125 -13.375 
Q 36.625 -13.375 41.015625 -8.765625 
Q 45.40625 -4.15625 45.40625 5.171875 
L 45.40625 9.625 
Q 42.625 4.78125 38.28125 2.390625 
Q 33.9375 0 27.875 0 
Q 17.828125 0 11.671875 7.65625 
Q 5.515625 15.328125 5.515625 27.984375 
Q 5.515625 40.671875 11.671875 48.328125 
Q 17.828125 56 27.875 56 
Q 33.9375 56 38.28125 53.609375 
Q 42.625 51.21875 45.40625 46.390625 
L 45.40625 54.6875 
L 54.390625 54.6875 
z
" id="DejaVuSans-103"/>
     </defs>
     <g style="fill:#262626;" transform="translate(-3.679688 121.632969)rotate(-90)scale(0.1 -0.1)">
      <use xlink:href="#DejaVuSans-80"/>
      <use x="60.255859" xlink:href="#DejaVuSans-111"/>
      <use x="121.4375" xlink:href="#DejaVuSans-112"/>
      <use x="184.914062" xlink:href="#DejaVuSans-117"/>
      <use x="248.292969" xlink:href="#DejaVuSans-108"/>
      <use x="276.076172" xlink:href="#DejaVuSans-97"/>
      <use x="337.355469" xlink:href="#DejaVuSans-116"/>
      <use x="376.564453" xlink:href="#DejaVuSans-105"/>
      <use x="404.347656" xlink:href="#DejaVuSans-111"/>
      <use x="465.529297" xlink:href="#DejaVuSans-110"/>
      <use x="528.908203" xlink:href="#DejaVuSans-32"/>
      <use x="560.695312" xlink:href="#DejaVuSans-40"/>
      <use x="599.708984" xlink:href="#DejaVuSans-115"/>
      <use x="651.808594" xlink:href="#DejaVuSans-121"/>
      <use x="710.988281" xlink:href="#DejaVuSans-109"/>
      <use x="808.400391" xlink:href="#DejaVuSans-108"/>
      <use x="836.183594" xlink:href="#DejaVuSans-111"/>
      <use x="897.365234" xlink:href="#DejaVuSans-103"/>
      <use x="960.841797" xlink:href="#DejaVuSans-41"/>
     </g>
    </g>
   </g>
   <g id="line2d_19">
    <path clip-path="url(#p29e4a84322)" d="M 27 118.386986 
L 29.310351 117.514386 
L 31.352835 116.508423 
L 33.194419 115.358575 
L 34.90207 114.03431 
L 36.509271 112.50863 
L 38.049505 110.736211 
L 39.522772 108.697822 
L 40.962556 106.317617 
L 42.368857 103.5521 
L 43.741674 100.352846 
L 45.114491 96.568887 
L 46.052025 94.056395 
L 70.59532 62.904923 
L 79.50189 51.936145 
L 85.160576 45.29839 
L 89.647345 40.367222 
L 93.19658 36.785477 
L 96.344014 33.913536 
L 99.190099 31.609289 
L 101.90225 29.694947 
L 104.513951 28.121756 
L 107.092169 26.825584 
L 109.737354 25.742389 
L 112.549955 24.833993 
L 115.59694 24.088861 
L 119.012241 23.486975 
L 122.99676 23.017819 
L 128.052745 22.658612 
L 134.849865 22.415134 
L 145.564536 22.275397 
L 169.873447 22.227303 
L 194.416742 22.224332 
L 194.416742 22.224332 
" style="fill:none;stroke:#ff1100;stroke-linecap:round;stroke-width:1.5;"/>
   </g>
   <g id="line2d_20">
    <path clip-path="url(#p29e4a84322)" d="M 27 118.386986 
L 32.625203 117.850465 
L 35.40432 117.837107 
L 38.149955 118.048603 
L 41.565257 118.552877 
L 51.543294 120.156718 
L 56.09703 120.572491 
L 61.621782 120.842942 
L 69.758236 120.997386 
L 87.30351 121.054531 
L 194.416742 121.058182 
L 194.416742 121.058182 
" style="fill:none;stroke:#0011f6;stroke-linecap:round;stroke-width:1.5;"/>
   </g>
   <g id="line2d_21">
    <path clip-path="url(#p29e4a84322)" d="M 27 115.90091 
L 28.774617 114.650423 
L 30.448785 113.19408 
L 32.022502 111.52477 
L 33.529253 109.595031 
L 34.969037 107.387782 
L 36.375338 104.823013 
L 37.748155 101.855677 
L 39.120972 98.345976 
L 40.862106 93.817137 
L 65.639784 62.377063 
L 74.345455 51.67044 
L 80.00414 45.044596 
L 84.290009 40.346492 
L 87.872727 36.737182 
L 91.020162 33.868991 
L 93.866247 31.566413 
L 96.544914 29.679567 
L 99.156616 28.109772 
L 101.768317 26.800886 
L 104.446985 25.709861 
L 107.259586 24.809064 
L 110.306571 24.070604 
L 113.721872 23.475978 
L 117.773357 23.003637 
L 122.79586 22.652947 
L 129.592979 22.412934 
L 140.609001 22.273614 
L 167.127813 22.225726 
L 194.416742 22.224755 
L 194.416742 22.224755 
" style="fill:none;stroke:#ff2200;stroke-linecap:round;stroke-width:1.5;"/>
   </g>
   <g id="line2d_22">
    <path clip-path="url(#p29e4a84322)" d="M 27 115.90091 
L 31.754635 114.958513 
L 33.864086 114.797377 
L 35.839604 114.871024 
L 37.815122 115.168207 
L 40.125473 115.754194 
L 43.473807 116.860855 
L 48.764176 118.593121 
L 52.012061 119.405052 
L 55.326913 120.001254 
L 59.077048 120.44239 
L 63.731233 120.753115 
L 70.260486 120.948116 
L 82.046625 121.04146 
L 129.626463 121.058174 
L 194.416742 121.058182 
L 194.416742 121.058182 
" style="fill:none;stroke:#0022ee;stroke-linecap:round;stroke-width:1.5;"/>
   </g>
   <g id="line2d_23">
    <path clip-path="url(#p29e4a84322)" d="M 27 111.101048 
L 28.473267 109.134958 
L 29.913051 106.839152 
L 31.319352 104.171067 
L 32.692169 101.084345 
L 34.064986 97.433169 
L 35.370837 93.961876 
L 60.449865 62.141784 
L 69.021602 51.607536 
L 74.780738 44.868111 
L 79.033123 40.222879 
L 82.682808 36.556073 
L 85.79676 33.734361 
L 88.642844 31.450018 
L 91.321512 29.58013 
L 93.933213 28.02682 
L 96.544914 26.73155 
L 99.190099 25.666887 
L 102.0027 24.775742 
L 105.049685 24.046345 
L 108.49847 23.45363 
L 112.549955 22.989793 
L 117.672907 22.639711 
L 124.60396 22.404024 
L 135.686949 22.270378 
L 161.636544 22.22654 
L 194.416742 22.222518 
L 194.416742 22.222518 
" style="fill:none;stroke:#ff3300;stroke-linecap:round;stroke-width:1.5;"/>
   </g>
   <g id="line2d_24">
    <path clip-path="url(#p29e4a84322)" d="M 27 111.101048 
L 31.118452 109.456236 
L 32.759136 109.072852 
L 34.232403 108.954666 
L 35.638704 109.062439 
L 37.078488 109.399586 
L 38.618722 109.998141 
L 40.460306 110.965569 
L 43.005041 112.577966 
L 48.194959 115.911031 
L 50.706211 117.22861 
L 53.117012 118.245796 
L 55.594779 119.05056 
L 58.306931 119.695278 
L 61.420882 120.198283 
L 65.2045 120.575841 
L 70.227003 120.83822 
L 77.928173 120.993645 
L 94.468947 121.053702 
L 194.416742 121.058182 
L 194.416742 121.058182 
" style="fill:none;stroke:#0033e6;stroke-linecap:round;stroke-width:1.5;"/>
   </g>
   <g id="line2d_25">
    <path clip-path="url(#p29e4a84322)" d="M 27 101.833966 
L 28.372817 98.320591 
L 30.080468 93.848551 
L 54.891629 62.365445 
L 63.5973 51.659994 
L 69.189019 45.112121 
L 73.642304 40.232336 
L 77.191539 36.661286 
L 80.338974 33.802342 
L 83.185059 31.511471 
L 85.89721 29.611522 
L 88.508911 28.05135 
L 91.120612 26.752424 
L 93.79928 25.671642 
L 96.611881 24.779338 
L 99.658866 24.048627 
L 103.107651 23.454256 
L 107.125653 22.993627 
L 112.248605 22.641788 
L 119.213141 22.403942 
L 130.29613 22.270136 
L 156.513591 22.226416 
L 194.416742 22.222948 
L 194.416742 22.222948 
" style="fill:none;stroke:#ff4400;stroke-linecap:round;stroke-width:1.5;"/>
   </g>
   <g id="line2d_26">
    <path clip-path="url(#p29e4a84322)" d="M 27 101.833966 
L 30.716652 98.901646 
L 32.055986 98.166933 
L 33.194419 97.78368 
L 34.265887 97.655027 
L 35.30387 97.7578 
L 36.341854 98.08846 
L 37.413321 98.664722 
L 38.618722 99.577413 
L 40.058506 100.965266 
L 41.866607 103.03754 
L 45.482808 107.623459 
L 48.228443 110.901496 
L 50.337894 113.084328 
L 52.313411 114.812505 
L 54.221962 116.191783 
L 56.19748 117.343096 
L 58.239964 118.277459 
L 60.449865 119.043057 
L 62.994599 119.681384 
L 65.907651 120.176325 
L 69.557336 120.558654 
L 74.378938 120.825127 
L 81.711791 120.986101 
L 97.047165 121.052115 
L 194.416742 121.058182 
L 194.416742 121.058182 
" style="fill:none;stroke:#0044dd;stroke-linecap:round;stroke-width:1.5;"/>
   </g>
   <g id="line2d_27">
    <path clip-path="url(#p29e4a84322)" d="M 27 90.911826 
L 49.835644 61.958283 
L 58.407381 51.429015 
L 63.9991 44.894475 
L 68.284968 40.205269 
L 71.867687 36.607431 
L 75.015122 33.754878 
L 77.861206 31.467237 
L 80.539874 29.59286 
L 83.151575 28.036306 
L 85.763276 26.740267 
L 88.441944 25.661736 
L 91.254545 24.771751 
L 94.30153 24.042969 
L 97.750315 23.451904 
L 101.835284 22.985425 
L 106.891269 22.641216 
L 113.855806 22.403702 
L 125.240144 22.26902 
L 154.772457 22.225094 
L 194.416742 22.223825 
L 194.416742 22.223825 
" style="fill:none;stroke:#ff5500;stroke-linecap:round;stroke-width:1.5;"/>
   </g>
   <g id="line2d_28">
    <path clip-path="url(#p29e4a84322)" d="M 27 90.911826 
L 30.214401 89.589133 
L 32.055986 89.079601 
L 33.69667 88.852562 
L 35.270387 88.85707 
L 36.810621 89.0826 
L 38.350855 89.534074 
L 39.991539 90.253966 
L 41.69919 91.249093 
L 43.507291 92.56174 
L 45.516292 94.301904 
L 45.650225 94.553639 
L 48.328893 100.68166 
L 50.337894 104.73729 
L 52.145995 107.896796 
L 53.853645 110.441069 
L 55.494329 112.498719 
L 57.168497 114.244666 
L 58.842664 115.671819 
L 60.583798 116.863202 
L 62.458866 117.872599 
L 64.467867 118.702078 
L 66.711251 119.383143 
L 69.356436 119.945232 
L 72.50387 120.37823 
L 76.588839 120.702328 
L 82.347975 120.916488 
L 92.225563 121.029328 
L 122.327093 121.057961 
L 194.416742 121.058182 
L 194.416742 121.058182 
" style="fill:none;stroke:#0055d4;stroke-linecap:round;stroke-width:1.5;"/>
   </g>
   <g id="line2d_29">
    <path clip-path="url(#p29e4a84322)" d="M 27 84.043036 
L 45.650225 60.459822 
L 53.686229 50.633693 
L 59.210981 44.216483 
L 63.362916 39.723174 
L 66.912151 36.198769 
L 69.992619 33.443465 
L 72.805221 31.219572 
L 75.483888 29.381512 
L 78.09559 27.859584 
L 80.707291 26.594359 
L 83.385959 25.545373 
L 86.232043 24.673082 
L 89.312511 23.964041 
L 92.828263 23.38756 
L 96.980198 22.939308 
L 102.270567 22.604037 
L 109.569937 22.381072 
L 121.590459 22.259639 
L 153.131773 22.224489 
L 194.416742 22.224761 
L 194.416742 22.224761 
" style="fill:none;stroke:#ff6600;stroke-linecap:round;stroke-width:1.5;"/>
   </g>
   <g id="line2d_30">
    <path clip-path="url(#p29e4a84322)" d="M 27 84.043036 
L 30.281368 82.693944 
L 32.156436 82.171489 
L 33.830603 81.929424 
L 35.471287 81.916673 
L 37.078488 82.128852 
L 38.685689 82.568854 
L 40.393339 83.272823 
L 42.167957 84.247666 
L 44.076508 85.557588 
L 46.152475 87.259822 
L 48.39586 89.391985 
L 50.907111 92.095533 
L 52.849145 94.450308 
L 54.523312 99.295319 
L 56.130513 103.275816 
L 57.670747 106.518386 
L 59.177498 109.191879 
L 60.684248 111.422072 
L 62.224482 113.305032 
L 63.7982 114.883376 
L 65.405401 116.186 
L 67.113051 117.281637 
L 68.988119 118.212824 
L 71.030603 118.979583 
L 73.340954 119.605488 
L 76.120072 120.118972 
L 79.50189 120.508102 
L 83.988659 120.789424 
L 90.718812 120.967083 
L 103.743834 121.047066 
L 171.949415 121.058182 
L 194.416742 121.058182 
L 194.416742 121.058182 
" style="fill:none;stroke:#0066cc;stroke-linecap:round;stroke-width:1.5;"/>
   </g>
   <g id="line2d_31">
    <path clip-path="url(#p29e4a84322)" d="M 27 77.174246 
L 41.933573 58.373968 
L 49.366877 49.352116 
L 54.489829 43.464859 
L 58.641764 39.025238 
L 62.023582 35.721535 
L 65.070567 33.048536 
L 67.849685 30.899887 
L 70.528353 29.108184 
L 73.106571 27.646048 
L 75.718272 26.420223 
L 78.430423 25.395668 
L 81.309991 24.549765 
L 84.457426 23.860842 
L 88.073627 23.30319 
L 92.359496 22.876508 
L 97.917732 22.559142 
L 105.819802 22.352132 
L 119.614941 22.247411 
L 170.509631 22.222917 
L 194.416742 22.225293 
L 194.416742 22.225293 
" style="fill:none;stroke:#ff7700;stroke-linecap:round;stroke-width:1.5;"/>
   </g>
   <g id="line2d_32">
    <path clip-path="url(#p29e4a84322)" d="M 27 77.174246 
L 30.381818 75.783541 
L 32.357336 75.222689 
L 34.131953 74.945294 
L 35.873087 74.895176 
L 37.580738 75.065937 
L 39.321872 75.464546 
L 41.163456 76.114715 
L 43.105491 77.040953 
L 45.181458 78.28665 
L 47.391359 79.878672 
L 49.735194 81.845657 
L 52.279928 84.276876 
L 55.025563 87.217209 
L 58.005581 90.741775 
L 60.818182 94.348229 
L 62.324932 99.055716 
L 63.831683 103.042702 
L 65.30495 106.324189 
L 66.744734 109.005105 
L 68.184518 111.233459 
L 69.691269 113.157472 
L 71.19802 114.730359 
L 72.771737 116.05438 
L 74.445905 117.169773 
L 76.287489 118.124341 
L 78.263006 118.896447 
L 80.539874 119.541656 
L 83.218542 120.063833 
L 86.49991 120.467131 
L 90.785779 120.76011 
L 97.080648 120.949861 
L 108.69937 121.041592 
L 156.480108 121.058175 
L 194.416742 121.058182 
L 194.416742 121.058182 
" style="fill:none;stroke:#0077c3;stroke-linecap:round;stroke-width:1.5;"/>
   </g>
   <g id="line2d_33">
    <path clip-path="url(#p29e4a84322)" d="M 27 70.305456 
L 38.719172 55.661922 
L 45.382358 47.670688 
L 50.20396 42.21994 
L 54.054545 38.186266 
L 57.369397 35.026045 
L 60.349415 32.486513 
L 63.09505 30.431735 
L 65.740234 28.727914 
L 68.318452 27.328804 
L 70.930153 26.161736 
L 73.675788 25.180649 
L 76.588839 24.378375 
L 79.836724 23.71937 
L 83.586859 23.193575 
L 88.107111 22.792252 
L 94.067147 22.50141 
L 102.772817 22.320045 
L 119.112691 22.236297 
L 194.416742 22.224164 
L 194.416742 22.224164 
" style="fill:none;stroke:#ff8800;stroke-linecap:round;stroke-width:1.5;"/>
   </g>
   <g id="line2d_34">
    <path clip-path="url(#p29e4a84322)" d="M 27 70.305456 
L 30.582718 68.830339 
L 32.759136 68.186011 
L 34.80162 67.813956 
L 36.844104 67.669066 
L 38.886589 67.750206 
L 41.063006 68.063788 
L 43.339874 68.618049 
L 45.750675 69.436973 
L 48.261926 70.525477 
L 50.873627 71.90226 
L 53.552295 73.567561 
L 56.264446 75.518366 
L 59.043564 77.793854 
L 61.889649 80.416105 
L 64.836184 83.438493 
L 67.883168 86.88614 
L 71.231503 91.015068 
L 73.776238 94.439646 
L 75.249505 99.1416 
L 76.689289 103.008489 
L 78.129073 106.249625 
L 79.60234 109.025365 
L 81.042124 111.276826 
L 82.481908 113.130009 
L 83.988659 114.709095 
L 85.59586 116.066318 
L 87.270027 117.187627 
L 89.044644 118.109039 
L 91.053645 118.89646 
L 93.330513 119.544433 
L 96.009181 120.065084 
L 99.290549 120.468625 
L 103.643384 120.76425 
L 110.005221 120.952469 
L 121.858326 121.042602 
L 172.150315 121.058177 
L 194.416742 121.058182 
L 194.416742 121.058182 
" style="fill:none;stroke:#0088bb;stroke-linecap:round;stroke-width:1.5;"/>
   </g>
   <g id="line2d_35">
    <path clip-path="url(#p29e4a84322)" d="M 27 63.436666 
L 36.073987 52.24645 
L 41.866607 45.436675 
L 46.252925 40.605759 
L 49.869127 36.940635 
L 53.050045 34.023299 
L 55.929613 31.679159 
L 58.641764 29.755268 
L 61.253465 28.174599 
L 63.865167 26.853563 
L 66.510351 25.764621 
L 69.289469 24.860834 
L 72.30297 24.116252 
L 75.718272 23.507368 
L 79.70279 23.030156 
L 84.691809 22.669309 
L 91.354995 22.423531 
L 101.835284 22.279803 
L 125.374077 22.226764 
L 194.416742 22.224221 
L 194.416742 22.224221 
" style="fill:none;stroke:#ff9900;stroke-linecap:round;stroke-width:1.5;"/>
   </g>
   <g id="line2d_36">
    <path clip-path="url(#p29e4a84322)" d="M 27 63.436666 
L 31.151935 61.72659 
L 33.89757 60.852806 
L 36.810621 60.165242 
L 39.958056 59.653382 
L 44.076508 59.224328 
L 50.40486 58.817066 
L 67.012601 57.820044 
L 74.144554 57.135296 
L 80.238524 56.331931 
L 85.59586 55.405522 
L 90.517912 54.331535 
L 95.138614 53.097432 
L 99.692349 51.651435 
L 104.480468 49.894927 
L 112.315572 46.725634 
L 116.869307 45.017463 
L 120.083708 44.042574 
L 122.829343 43.438313 
L 125.508011 43.079962 
L 128.287129 42.935511 
L 131.334113 43.006448 
L 135.318632 43.343133 
L 145.59802 44.282679 
L 150.787939 44.472302 
L 157.149775 44.467932 
L 185.911971 44.180883 
L 194.416742 44.214242 
L 194.416742 44.214242 
" style="fill:none;stroke:#0099b2;stroke-linecap:round;stroke-width:1.5;"/>
   </g>
   <g id="line2d_37">
    <path clip-path="url(#p29e4a84322)" d="M 27 56.567876 
L 33.89757 48.259884 
L 38.853105 42.623548 
L 42.770657 38.491707 
L 46.118992 35.270587 
L 49.132493 32.675754 
L 51.878128 30.597823 
L 54.523312 28.87064 
L 57.10153 27.447272 
L 59.713231 26.258116 
L 62.425383 25.267484 
L 65.338434 24.444001 
L 68.552835 23.772313 
L 72.236004 23.235482 
L 76.655806 22.825178 
L 82.414941 22.525046 
L 90.819262 22.3321 
L 106.288569 22.240653 
L 178.478668 22.225588 
L 194.416742 22.224286 
L 194.416742 22.224286 
" style="fill:none;stroke:#ffaa00;stroke-linecap:round;stroke-width:1.5;"/>
   </g>
   <g id="line2d_38">
    <path clip-path="url(#p29e4a84322)" d="M 27 56.567876 
L 33.361836 53.937327 
L 51.878128 46.619235 
L 56.29793 44.981745 
L 59.411881 44.053927 
L 62.224482 43.447057 
L 64.90315 43.094158 
L 67.615302 42.96296 
L 70.762736 43.043307 
L 75.015122 43.392779 
L 84.926193 44.273797 
L 90.149595 44.464972 
L 96.544914 44.459465 
L 123.90081 44.177546 
L 170.007381 44.218859 
L 194.416742 44.218321 
L 194.416742 44.218321 
" style="fill:none;stroke:#00aaaa;stroke-linecap:round;stroke-width:1.5;"/>
   </g>
   <g id="line2d_39">
    <path clip-path="url(#p29e4a84322)" d="M 27 49.699086 
L 32.223402 43.67759 
L 36.308371 39.292326 
L 39.757156 35.902708 
L 42.837624 33.182555 
L 45.650225 30.992736 
L 48.328893 29.18713 
L 50.907111 27.712744 
L 53.518812 26.474716 
L 56.19748 25.450177 
L 59.043564 24.600058 
L 62.190999 23.896814 
L 65.740234 23.336295 
L 69.992619 22.899727 
L 75.383438 22.578468 
L 83.051125 22.363578 
L 96.210081 22.25182 
L 140.106751 22.224256 
L 194.416742 22.223983 
L 194.416742 22.223983 
" style="fill:none;stroke:#ffbb00;stroke-linecap:round;stroke-width:1.5;"/>
   </g>
   <g id="line2d_40">
    <path clip-path="url(#p29e4a84322)" d="M 27 49.699086 
L 35.605221 46.231836 
L 39.656706 44.834585 
L 42.737174 43.998288 
L 45.583258 43.455507 
L 48.39586 43.143756 
L 51.308911 43.046037 
L 54.556796 43.167725 
L 59.847165 43.623368 
L 67.548335 44.24996 
L 73.106571 44.446387 
L 79.769757 44.441741 
L 107.828803 44.18345 
L 146.836904 44.217584 
L 194.416742 44.224358 
L 194.416742 44.224358 
" style="fill:none;stroke:#00bba2;stroke-linecap:round;stroke-width:1.5;"/>
   </g>
   <g id="line2d_41">
    <path clip-path="url(#p29e4a84322)" d="M 27 42.830296 
L 30.951035 38.647687 
L 34.332853 35.381459 
L 37.312871 32.802056 
L 40.091989 30.683764 
L 42.737174 28.942109 
L 45.315392 27.507451 
L 47.927093 26.307173 
L 50.639244 25.306129 
L 53.518812 24.481637 
L 56.69973 23.805187 
L 60.349415 23.262912 
L 64.769217 22.840863 
L 70.427903 22.537295 
L 78.49739 22.341937 
L 93.163096 22.243305 
L 141.847885 22.223572 
L 194.416742 22.224056 
L 194.416742 22.224056 
" style="fill:none;stroke:#ffcc00;stroke-linecap:round;stroke-width:1.5;"/>
   </g>
   <g id="line2d_42">
    <path clip-path="url(#p29e4a84322)" d="M 27 42.830296 
L 30.013501 41.781594 
L 31.955536 41.344335 
L 33.763636 41.163655 
L 35.672187 41.202362 
L 37.781638 41.474513 
L 40.393339 42.052442 
L 49.634743 44.287859 
L 52.748695 44.702577 
L 56.063546 44.912946 
L 59.947615 44.926755 
L 65.539334 44.702421 
L 77.928173 44.151186 
L 85.629343 44.079593 
L 173.355716 44.219061 
L 194.416742 44.220595 
L 194.416742 44.220595 
" style="fill:none;stroke:#00cc99;stroke-linecap:round;stroke-width:1.5;"/>
   </g>
   <g id="line2d_43">
    <path clip-path="url(#p29e4a84322)" d="M 27 35.961506 
L 30.046985 33.263411 
L 32.859586 31.062812 
L 35.50477 29.267984 
L 38.116472 27.763871 
L 40.728173 26.515991 
L 43.406841 25.483068 
L 46.252925 24.625266 
L 49.366877 23.922569 
L 52.916112 23.354484 
L 57.10153 22.91581 
L 62.492349 22.586934 
L 69.992619 22.370219 
L 82.548875 22.254847 
L 118.074707 22.223671 
L 194.416742 22.223992 
L 194.416742 22.223992 
" style="fill:none;stroke:#ffdd00;stroke-linecap:round;stroke-width:1.5;"/>
   </g>
   <g id="line2d_44">
    <path clip-path="url(#p29e4a84322)" d="M 27 35.961506 
L 28.640684 35.538826 
L 29.712151 35.502839 
L 30.750135 35.695372 
L 31.855086 36.139853 
L 33.127453 36.901715 
L 34.734653 38.139806 
L 37.446805 40.562354 
L 40.527273 43.227314 
L 42.50279 44.636689 
L 44.243924 45.610592 
L 45.918092 46.293404 
L 47.625743 46.747062 
L 49.433843 46.993422 
L 51.476328 47.041007 
L 53.920612 46.865186 
L 57.168497 46.3883 
L 70.99712 44.105782 
L 75.015122 43.815877 
L 79.40144 43.727022 
L 84.926193 43.853447 
L 100.428983 44.300831 
L 111.378038 44.287663 
L 138.29865 44.208738 
L 194.416742 44.218907 
L 194.416742 44.218907 
" style="fill:none;stroke:#00dd90;stroke-linecap:round;stroke-width:1.5;"/>
   </g>
   <g id="line2d_45">
    <path clip-path="url(#p29e4a84322)" d="M 27 29.092716 
L 29.611701 27.616363 
L 32.223402 26.395669 
L 34.935554 25.376253 
L 37.815122 24.535185 
L 40.962556 23.850405 
L 44.578758 23.296735 
L 48.89811 22.869812 
L 54.422862 22.556958 
L 62.391899 22.35015 
L 76.387939 22.246468 
L 131.20018 22.222229 
L 194.416742 22.223919 
L 194.416742 22.223919 
" style="fill:none;stroke:#ffee00;stroke-linecap:round;stroke-width:1.5;"/>
   </g>
   <g id="line2d_46">
    <path clip-path="url(#p29e4a84322)" d="M 27 29.092716 
L 28.10495 28.961247 
L 28.875068 29.107704 
L 29.678668 29.490462 
L 30.616202 30.198096 
L 31.788119 31.384902 
L 33.160936 33.109383 
L 34.935554 35.724439 
L 37.815122 40.425459 
L 40.560756 44.773254 
L 42.335374 47.170559 
L 43.741674 48.725114 
L 44.980558 49.772072 
L 46.219442 50.533534 
L 47.458326 51.030363 
L 48.730693 51.296083 
L 50.10351 51.3535 
L 51.710711 51.190683 
L 53.719712 50.749823 
L 56.532313 49.884236 
L 61.722232 47.998584 
L 68.753735 45.543213 
L 72.236004 44.547054 
L 75.416922 43.87217 
L 78.430423 43.459033 
L 81.443924 43.270302 
L 84.859226 43.290491 
L 89.479928 43.558322 
L 100.964716 44.30494 
L 107.125653 44.420372 
L 116.19964 44.335501 
L 133.912331 44.180837 
L 194.416742 44.21986 
L 194.416742 44.21986 
" style="fill:none;stroke:#00ee88;stroke-linecap:round;stroke-width:1.5;"/>
   </g>
   <g id="patch_3">
    <path d="M 27 126 
L 27 17.28 
" style="fill:none;stroke:#262626;stroke-linecap:square;stroke-linejoin:miter;stroke-width:0.8;"/>
   </g>
   <g id="patch_4">
    <path d="M 194.4 126 
L 194.4 17.28 
" style="fill:none;stroke:#262626;stroke-linecap:square;stroke-linejoin:miter;stroke-width:0.8;"/>
   </g>
   <g id="patch_5">
    <path d="M 27 126 
L 194.4 126 
" style="fill:none;stroke:#262626;stroke-linecap:square;stroke-linejoin:miter;stroke-width:0.8;"/>
   </g>
   <g id="patch_6">
    <path d="M 27 17.28 
L 194.4 17.28 
" style="fill:none;stroke:#262626;stroke-linecap:square;stroke-linejoin:miter;stroke-width:0.8;"/>
   </g>
  </g>
 </g>
 <defs>
  <clipPath id="p29e4a84322">
   <rect height="108.72" width="167.4" x="27" y="17.28"/>
  </clipPath>
 </defs>
</svg>
