<?xml version="1.0" encoding="utf-8" standalone="no"?>
<!DOCTYPE svg PUBLIC "-//W3C//DTD SVG 1.1//EN"
  "http://www.w3.org/Graphics/SVG/1.1/DTD/svg11.dtd">
<!-- Created with matplotlib (https://matplotlib.org/) -->
<svg height="144pt" version="1.1" viewBox="0 0 216 144" width="216pt" xmlns="http://www.w3.org/2000/svg" xmlns:xlink="http://www.w3.org/1999/xlink">
 <defs>
  <style type="text/css">
*{stroke-linecap:butt;stroke-linejoin:round;}
  </style>
 </defs>
 <g id="figure_1">
  <g id="patch_1">
   <path d="M 0 144 
L 216 144 
L 216 0 
L 0 0 
z
" style="fill:#ffffff;"/>
  </g>
  <g id="axes_1">
   <g id="patch_2">
    <path d="M 27 126 
L 194.4 126 
L 194.4 17.28 
L 27 17.28 
z
" style="fill:#ffffff;"/>
   </g>
   <g id="matplotlib.axis_1">
    <g id="xtick_1">
     <g id="line2d_1">
      <path clip-path="url(#p3ec65f307e)" d="M 27 126 
L 27 17.28 
" style="fill:none;stroke:#cccccc;stroke-linecap:round;stroke-width:0.8;"/>
     </g>
     <g id="line2d_2">
      <defs>
       <path d="M 0 0 
L 0 3.5 
" id="md557a2eb39" style="stroke:#262626;stroke-width:0.8;"/>
      </defs>
      <g>
       <use style="fill:#262626;stroke:#262626;stroke-width:0.8;" x="27" xlink:href="#md557a2eb39" y="126"/>
      </g>
     </g>
     <g id="text_1">
      <!-- 0 -->
      <defs>
       <path d="M 31.78125 66.40625 
Q 24.171875 66.40625 20.328125 58.90625 
Q 16.5 51.421875 16.5 36.375 
Q 16.5 21.390625 20.328125 13.890625 
Q 24.171875 6.390625 31.78125 6.390625 
Q 39.453125 6.390625 43.28125 13.890625 
Q 47.125 21.390625 47.125 36.375 
Q 47.125 51.421875 43.28125 58.90625 
Q 39.453125 66.40625 31.78125 66.40625 
z
M 31.78125 74.21875 
Q 44.046875 74.21875 50.515625 64.515625 
Q 56.984375 54.828125 56.984375 36.375 
Q 56.984375 17.96875 50.515625 8.265625 
Q 44.046875 -1.421875 31.78125 -1.421875 
Q 19.53125 -1.421875 13.0625 8.265625 
Q 6.59375 17.96875 6.59375 36.375 
Q 6.59375 54.828125 13.0625 64.515625 
Q 19.53125 74.21875 31.78125 74.21875 
z
" id="DejaVuSans-48"/>
      </defs>
      <g style="fill:#262626;" transform="translate(23.81875 140.598437)scale(0.1 -0.1)">
       <use xlink:href="#DejaVuSans-48"/>
      </g>
     </g>
    </g>
    <g id="xtick_2">
     <g id="line2d_3">
      <path clip-path="url(#p3ec65f307e)" d="M 60.48 126 
L 60.48 17.28 
" style="fill:none;stroke:#cccccc;stroke-linecap:round;stroke-width:0.8;"/>
     </g>
     <g id="line2d_4">
      <g>
       <use style="fill:#262626;stroke:#262626;stroke-width:0.8;" x="60.48" xlink:href="#md557a2eb39" y="126"/>
      </g>
     </g>
     <g id="text_2">
      <!-- 10 -->
      <defs>
       <path d="M 12.40625 8.296875 
L 28.515625 8.296875 
L 28.515625 63.921875 
L 10.984375 60.40625 
L 10.984375 69.390625 
L 28.421875 72.90625 
L 38.28125 72.90625 
L 38.28125 8.296875 
L 54.390625 8.296875 
L 54.390625 0 
L 12.40625 0 
z
" id="DejaVuSans-49"/>
      </defs>
      <g style="fill:#262626;" transform="translate(54.1175 140.598437)scale(0.1 -0.1)">
       <use xlink:href="#DejaVuSans-49"/>
       <use x="63.623047" xlink:href="#DejaVuSans-48"/>
      </g>
     </g>
    </g>
    <g id="xtick_3">
     <g id="line2d_5">
      <path clip-path="url(#p3ec65f307e)" d="M 93.96 126 
L 93.96 17.28 
" style="fill:none;stroke:#cccccc;stroke-linecap:round;stroke-width:0.8;"/>
     </g>
     <g id="line2d_6">
      <g>
       <use style="fill:#262626;stroke:#262626;stroke-width:0.8;" x="93.96" xlink:href="#md557a2eb39" y="126"/>
      </g>
     </g>
     <g id="text_3">
      <!-- 20 -->
      <defs>
       <path d="M 19.1875 8.296875 
L 53.609375 8.296875 
L 53.609375 0 
L 7.328125 0 
L 7.328125 8.296875 
Q 12.9375 14.109375 22.625 23.890625 
Q 32.328125 33.6875 34.8125 36.53125 
Q 39.546875 41.84375 41.421875 45.53125 
Q 43.3125 49.21875 43.3125 52.78125 
Q 43.3125 58.59375 39.234375 62.25 
Q 35.15625 65.921875 28.609375 65.921875 
Q 23.96875 65.921875 18.8125 64.3125 
Q 13.671875 62.703125 7.8125 59.421875 
L 7.8125 69.390625 
Q 13.765625 71.78125 18.9375 73 
Q 24.125 74.21875 28.421875 74.21875 
Q 39.75 74.21875 46.484375 68.546875 
Q 53.21875 62.890625 53.21875 53.421875 
Q 53.21875 48.921875 51.53125 44.890625 
Q 49.859375 40.875 45.40625 35.40625 
Q 44.1875 33.984375 37.640625 27.21875 
Q 31.109375 20.453125 19.1875 8.296875 
z
" id="DejaVuSans-50"/>
      </defs>
      <g style="fill:#262626;" transform="translate(87.5975 140.598437)scale(0.1 -0.1)">
       <use xlink:href="#DejaVuSans-50"/>
       <use x="63.623047" xlink:href="#DejaVuSans-48"/>
      </g>
     </g>
    </g>
    <g id="xtick_4">
     <g id="line2d_7">
      <path clip-path="url(#p3ec65f307e)" d="M 127.44 126 
L 127.44 17.28 
" style="fill:none;stroke:#cccccc;stroke-linecap:round;stroke-width:0.8;"/>
     </g>
     <g id="line2d_8">
      <g>
       <use style="fill:#262626;stroke:#262626;stroke-width:0.8;" x="127.44" xlink:href="#md557a2eb39" y="126"/>
      </g>
     </g>
     <g id="text_4">
      <!-- 30 -->
      <defs>
       <path d="M 40.578125 39.3125 
Q 47.65625 37.796875 51.625 33 
Q 55.609375 28.21875 55.609375 21.1875 
Q 55.609375 10.40625 48.1875 4.484375 
Q 40.765625 -1.421875 27.09375 -1.421875 
Q 22.515625 -1.421875 17.65625 -0.515625 
Q 12.796875 0.390625 7.625 2.203125 
L 7.625 11.71875 
Q 11.71875 9.328125 16.59375 8.109375 
Q 21.484375 6.890625 26.8125 6.890625 
Q 36.078125 6.890625 40.9375 10.546875 
Q 45.796875 14.203125 45.796875 21.1875 
Q 45.796875 27.640625 41.28125 31.265625 
Q 36.765625 34.90625 28.71875 34.90625 
L 20.21875 34.90625 
L 20.21875 43.015625 
L 29.109375 43.015625 
Q 36.375 43.015625 40.234375 45.921875 
Q 44.09375 48.828125 44.09375 54.296875 
Q 44.09375 59.90625 40.109375 62.90625 
Q 36.140625 65.921875 28.71875 65.921875 
Q 24.65625 65.921875 20.015625 65.03125 
Q 15.375 64.15625 9.8125 62.3125 
L 9.8125 71.09375 
Q 15.4375 72.65625 20.34375 73.4375 
Q 25.25 74.21875 29.59375 74.21875 
Q 40.828125 74.21875 47.359375 69.109375 
Q 53.90625 64.015625 53.90625 55.328125 
Q 53.90625 49.265625 50.4375 45.09375 
Q 46.96875 40.921875 40.578125 39.3125 
z
" id="DejaVuSans-51"/>
      </defs>
      <g style="fill:#262626;" transform="translate(121.0775 140.598437)scale(0.1 -0.1)">
       <use xlink:href="#DejaVuSans-51"/>
       <use x="63.623047" xlink:href="#DejaVuSans-48"/>
      </g>
     </g>
    </g>
    <g id="xtick_5">
     <g id="line2d_9">
      <path clip-path="url(#p3ec65f307e)" d="M 160.92 126 
L 160.92 17.28 
" style="fill:none;stroke:#cccccc;stroke-linecap:round;stroke-width:0.8;"/>
     </g>
     <g id="line2d_10">
      <g>
       <use style="fill:#262626;stroke:#262626;stroke-width:0.8;" x="160.92" xlink:href="#md557a2eb39" y="126"/>
      </g>
     </g>
     <g id="text_5">
      <!-- 40 -->
      <defs>
       <path d="M 37.796875 64.3125 
L 12.890625 25.390625 
L 37.796875 25.390625 
z
M 35.203125 72.90625 
L 47.609375 72.90625 
L 47.609375 25.390625 
L 58.015625 25.390625 
L 58.015625 17.1875 
L 47.609375 17.1875 
L 47.609375 0 
L 37.796875 0 
L 37.796875 17.1875 
L 4.890625 17.1875 
L 4.890625 26.703125 
z
" id="DejaVuSans-52"/>
      </defs>
      <g style="fill:#262626;" transform="translate(154.5575 140.598437)scale(0.1 -0.1)">
       <use xlink:href="#DejaVuSans-52"/>
       <use x="63.623047" xlink:href="#DejaVuSans-48"/>
      </g>
     </g>
    </g>
    <g id="xtick_6">
     <g id="line2d_11">
      <path clip-path="url(#p3ec65f307e)" d="M 194.4 126 
L 194.4 17.28 
" style="fill:none;stroke:#cccccc;stroke-linecap:round;stroke-width:0.8;"/>
     </g>
     <g id="line2d_12">
      <g>
       <use style="fill:#262626;stroke:#262626;stroke-width:0.8;" x="194.4" xlink:href="#md557a2eb39" y="126"/>
      </g>
     </g>
     <g id="text_6">
      <!-- 50 -->
      <defs>
       <path d="M 10.796875 72.90625 
L 49.515625 72.90625 
L 49.515625 64.59375 
L 19.828125 64.59375 
L 19.828125 46.734375 
Q 21.96875 47.46875 24.109375 47.828125 
Q 26.265625 48.1875 28.421875 48.1875 
Q 40.625 48.1875 47.75 41.5 
Q 54.890625 34.8125 54.890625 23.390625 
Q 54.890625 11.625 47.5625 5.09375 
Q 40.234375 -1.421875 26.90625 -1.421875 
Q 22.3125 -1.421875 17.546875 -0.640625 
Q 12.796875 0.140625 7.71875 1.703125 
L 7.71875 11.625 
Q 12.109375 9.234375 16.796875 8.0625 
Q 21.484375 6.890625 26.703125 6.890625 
Q 35.15625 6.890625 40.078125 11.328125 
Q 45.015625 15.765625 45.015625 23.390625 
Q 45.015625 31 40.078125 35.4375 
Q 35.15625 39.890625 26.703125 39.890625 
Q 22.75 39.890625 18.8125 39.015625 
Q 14.890625 38.140625 10.796875 36.28125 
z
" id="DejaVuSans-53"/>
      </defs>
      <g style="fill:#262626;" transform="translate(188.0375 140.598437)scale(0.1 -0.1)">
       <use xlink:href="#DejaVuSans-53"/>
       <use x="63.623047" xlink:href="#DejaVuSans-48"/>
      </g>
     </g>
    </g>
    <g id="text_7">
     <!-- Time (days) -->
     <defs>
      <path d="M -0.296875 72.90625 
L 61.375 72.90625 
L 61.375 64.59375 
L 35.5 64.59375 
L 35.5 0 
L 25.59375 0 
L 25.59375 64.59375 
L -0.296875 64.59375 
z
" id="DejaVuSans-84"/>
      <path d="M 9.421875 54.6875 
L 18.40625 54.6875 
L 18.40625 0 
L 9.421875 0 
z
M 9.421875 75.984375 
L 18.40625 75.984375 
L 18.40625 64.59375 
L 9.421875 64.59375 
z
" id="DejaVuSans-105"/>
      <path d="M 52 44.1875 
Q 55.375 50.25 60.0625 53.125 
Q 64.75 56 71.09375 56 
Q 79.640625 56 84.28125 50.015625 
Q 88.921875 44.046875 88.921875 33.015625 
L 88.921875 0 
L 79.890625 0 
L 79.890625 32.71875 
Q 79.890625 40.578125 77.09375 44.375 
Q 74.3125 48.1875 68.609375 48.1875 
Q 61.625 48.1875 57.5625 43.546875 
Q 53.515625 38.921875 53.515625 30.90625 
L 53.515625 0 
L 44.484375 0 
L 44.484375 32.71875 
Q 44.484375 40.625 41.703125 44.40625 
Q 38.921875 48.1875 33.109375 48.1875 
Q 26.21875 48.1875 22.15625 43.53125 
Q 18.109375 38.875 18.109375 30.90625 
L 18.109375 0 
L 9.078125 0 
L 9.078125 54.6875 
L 18.109375 54.6875 
L 18.109375 46.1875 
Q 21.1875 51.21875 25.484375 53.609375 
Q 29.78125 56 35.6875 56 
Q 41.65625 56 45.828125 52.96875 
Q 50 49.953125 52 44.1875 
z
" id="DejaVuSans-109"/>
      <path d="M 56.203125 29.59375 
L 56.203125 25.203125 
L 14.890625 25.203125 
Q 15.484375 15.921875 20.484375 11.0625 
Q 25.484375 6.203125 34.421875 6.203125 
Q 39.59375 6.203125 44.453125 7.46875 
Q 49.3125 8.734375 54.109375 11.28125 
L 54.109375 2.78125 
Q 49.265625 0.734375 44.1875 -0.34375 
Q 39.109375 -1.421875 33.890625 -1.421875 
Q 20.796875 -1.421875 13.15625 6.1875 
Q 5.515625 13.8125 5.515625 26.8125 
Q 5.515625 40.234375 12.765625 48.109375 
Q 20.015625 56 32.328125 56 
Q 43.359375 56 49.78125 48.890625 
Q 56.203125 41.796875 56.203125 29.59375 
z
M 47.21875 32.234375 
Q 47.125 39.59375 43.09375 43.984375 
Q 39.0625 48.390625 32.421875 48.390625 
Q 24.90625 48.390625 20.390625 44.140625 
Q 15.875 39.890625 15.1875 32.171875 
z
" id="DejaVuSans-101"/>
      <path id="DejaVuSans-32"/>
      <path d="M 31 75.875 
Q 24.46875 64.65625 21.28125 53.65625 
Q 18.109375 42.671875 18.109375 31.390625 
Q 18.109375 20.125 21.3125 9.0625 
Q 24.515625 -2 31 -13.1875 
L 23.1875 -13.1875 
Q 15.875 -1.703125 12.234375 9.375 
Q 8.59375 20.453125 8.59375 31.390625 
Q 8.59375 42.28125 12.203125 53.3125 
Q 15.828125 64.359375 23.1875 75.875 
z
" id="DejaVuSans-40"/>
      <path d="M 45.40625 46.390625 
L 45.40625 75.984375 
L 54.390625 75.984375 
L 54.390625 0 
L 45.40625 0 
L 45.40625 8.203125 
Q 42.578125 3.328125 38.25 0.953125 
Q 33.9375 -1.421875 27.875 -1.421875 
Q 17.96875 -1.421875 11.734375 6.484375 
Q 5.515625 14.40625 5.515625 27.296875 
Q 5.515625 40.1875 11.734375 48.09375 
Q 17.96875 56 27.875 56 
Q 33.9375 56 38.25 53.625 
Q 42.578125 51.265625 45.40625 46.390625 
z
M 14.796875 27.296875 
Q 14.796875 17.390625 18.875 11.75 
Q 22.953125 6.109375 30.078125 6.109375 
Q 37.203125 6.109375 41.296875 11.75 
Q 45.40625 17.390625 45.40625 27.296875 
Q 45.40625 37.203125 41.296875 42.84375 
Q 37.203125 48.484375 30.078125 48.484375 
Q 22.953125 48.484375 18.875 42.84375 
Q 14.796875 37.203125 14.796875 27.296875 
z
" id="DejaVuSans-100"/>
      <path d="M 34.28125 27.484375 
Q 23.390625 27.484375 19.1875 25 
Q 14.984375 22.515625 14.984375 16.5 
Q 14.984375 11.71875 18.140625 8.90625 
Q 21.296875 6.109375 26.703125 6.109375 
Q 34.1875 6.109375 38.703125 11.40625 
Q 43.21875 16.703125 43.21875 25.484375 
L 43.21875 27.484375 
z
M 52.203125 31.203125 
L 52.203125 0 
L 43.21875 0 
L 43.21875 8.296875 
Q 40.140625 3.328125 35.546875 0.953125 
Q 30.953125 -1.421875 24.3125 -1.421875 
Q 15.921875 -1.421875 10.953125 3.296875 
Q 6 8.015625 6 15.921875 
Q 6 25.140625 12.171875 29.828125 
Q 18.359375 34.515625 30.609375 34.515625 
L 43.21875 34.515625 
L 43.21875 35.40625 
Q 43.21875 41.609375 39.140625 45 
Q 35.0625 48.390625 27.6875 48.390625 
Q 23 48.390625 18.546875 47.265625 
Q 14.109375 46.140625 10.015625 43.890625 
L 10.015625 52.203125 
Q 14.9375 54.109375 19.578125 55.046875 
Q 24.21875 56 28.609375 56 
Q 40.484375 56 46.34375 49.84375 
Q 52.203125 43.703125 52.203125 31.203125 
z
" id="DejaVuSans-97"/>
      <path d="M 32.171875 -5.078125 
Q 28.375 -14.84375 24.75 -17.8125 
Q 21.140625 -20.796875 15.09375 -20.796875 
L 7.90625 -20.796875 
L 7.90625 -13.28125 
L 13.1875 -13.28125 
Q 16.890625 -13.28125 18.9375 -11.515625 
Q 21 -9.765625 23.484375 -3.21875 
L 25.09375 0.875 
L 2.984375 54.6875 
L 12.5 54.6875 
L 29.59375 11.921875 
L 46.6875 54.6875 
L 56.203125 54.6875 
z
" id="DejaVuSans-121"/>
      <path d="M 44.28125 53.078125 
L 44.28125 44.578125 
Q 40.484375 46.53125 36.375 47.5 
Q 32.28125 48.484375 27.875 48.484375 
Q 21.1875 48.484375 17.84375 46.4375 
Q 14.5 44.390625 14.5 40.28125 
Q 14.5 37.15625 16.890625 35.375 
Q 19.28125 33.59375 26.515625 31.984375 
L 29.59375 31.296875 
Q 39.15625 29.25 43.1875 25.515625 
Q 47.21875 21.78125 47.21875 15.09375 
Q 47.21875 7.46875 41.1875 3.015625 
Q 35.15625 -1.421875 24.609375 -1.421875 
Q 20.21875 -1.421875 15.453125 -0.5625 
Q 10.6875 0.296875 5.421875 2 
L 5.421875 11.28125 
Q 10.40625 8.6875 15.234375 7.390625 
Q 20.0625 6.109375 24.8125 6.109375 
Q 31.15625 6.109375 34.5625 8.28125 
Q 37.984375 10.453125 37.984375 14.40625 
Q 37.984375 18.0625 35.515625 20.015625 
Q 33.0625 21.96875 24.703125 23.78125 
L 21.578125 24.515625 
Q 13.234375 26.265625 9.515625 29.90625 
Q 5.8125 33.546875 5.8125 39.890625 
Q 5.8125 47.609375 11.28125 51.796875 
Q 16.75 56 26.8125 56 
Q 31.78125 56 36.171875 55.265625 
Q 40.578125 54.546875 44.28125 53.078125 
z
" id="DejaVuSans-115"/>
      <path d="M 8.015625 75.875 
L 15.828125 75.875 
Q 23.140625 64.359375 26.78125 53.3125 
Q 30.421875 42.28125 30.421875 31.390625 
Q 30.421875 20.453125 26.78125 9.375 
Q 23.140625 -1.703125 15.828125 -13.1875 
L 8.015625 -13.1875 
Q 14.5 -2 17.703125 9.0625 
Q 20.90625 20.125 20.90625 31.390625 
Q 20.90625 42.671875 17.703125 53.65625 
Q 14.5 64.65625 8.015625 75.875 
z
" id="DejaVuSans-41"/>
     </defs>
     <g style="fill:#262626;" transform="translate(81.019531 154.276563)scale(0.1 -0.1)">
      <use xlink:href="#DejaVuSans-84"/>
      <use x="61.037109" xlink:href="#DejaVuSans-105"/>
      <use x="88.820312" xlink:href="#DejaVuSans-109"/>
      <use x="186.232422" xlink:href="#DejaVuSans-101"/>
      <use x="247.755859" xlink:href="#DejaVuSans-32"/>
      <use x="279.542969" xlink:href="#DejaVuSans-40"/>
      <use x="318.556641" xlink:href="#DejaVuSans-100"/>
      <use x="382.033203" xlink:href="#DejaVuSans-97"/>
      <use x="443.3125" xlink:href="#DejaVuSans-121"/>
      <use x="502.492188" xlink:href="#DejaVuSans-115"/>
      <use x="554.591797" xlink:href="#DejaVuSans-41"/>
     </g>
    </g>
   </g>
   <g id="matplotlib.axis_2">
    <g id="ytick_1">
     <g id="line2d_13">
      <path clip-path="url(#p3ec65f307e)" d="M 27 121.1171 
L 194.4 121.1171 
" style="fill:none;stroke:#cccccc;stroke-linecap:round;stroke-width:0.8;"/>
     </g>
     <g id="line2d_14">
      <defs>
       <path d="M 0 0 
L -3.5 0 
" id="m47483a5e5e" style="stroke:#262626;stroke-width:0.8;"/>
      </defs>
      <g>
       <use style="fill:#262626;stroke:#262626;stroke-width:0.8;" x="27" xlink:href="#m47483a5e5e" y="121.1171"/>
      </g>
     </g>
     <g id="text_8">
      <!-- $\mathdefault{0}$ -->
      <g style="fill:#262626;" transform="translate(13.6 124.916318)scale(0.1 -0.1)">
       <use transform="translate(0 0.78125)" xlink:href="#DejaVuSans-48"/>
      </g>
     </g>
    </g>
    <g id="ytick_2">
     <g id="line2d_15">
      <path clip-path="url(#p3ec65f307e)" d="M 27 94.392178 
L 194.4 94.392178 
" style="fill:none;stroke:#cccccc;stroke-linecap:round;stroke-width:0.8;"/>
     </g>
     <g id="line2d_16">
      <g>
       <use style="fill:#262626;stroke:#262626;stroke-width:0.8;" x="27" xlink:href="#m47483a5e5e" y="94.392178"/>
      </g>
     </g>
     <g id="text_9">
      <!-- $\mathdefault{10^{-3}}$ -->
      <defs>
       <path d="M 10.59375 35.5 
L 73.1875 35.5 
L 73.1875 27.203125 
L 10.59375 27.203125 
z
" id="DejaVuSans-8722"/>
      </defs>
      <g style="fill:#262626;" transform="translate(-3.5 98.191397)scale(0.1 -0.1)">
       <use transform="translate(0 0.765625)" xlink:href="#DejaVuSans-49"/>
       <use transform="translate(63.623047 0.765625)" xlink:href="#DejaVuSans-48"/>
       <use transform="translate(128.203125 39.046875)scale(0.7)" xlink:href="#DejaVuSans-8722"/>
       <use transform="translate(186.855469 39.046875)scale(0.7)" xlink:href="#DejaVuSans-51"/>
      </g>
     </g>
    </g>
    <g id="ytick_3">
     <g id="line2d_17">
      <path clip-path="url(#p3ec65f307e)" d="M 27 70.339749 
L 194.4 70.339749 
" style="fill:none;stroke:#cccccc;stroke-linecap:round;stroke-width:0.8;"/>
     </g>
     <g id="line2d_18">
      <g>
       <use style="fill:#262626;stroke:#262626;stroke-width:0.8;" x="27" xlink:href="#m47483a5e5e" y="70.339749"/>
      </g>
     </g>
     <g id="text_10">
      <!-- $\mathdefault{10^{-2}}$ -->
      <g style="fill:#262626;" transform="translate(-3.5 74.138968)scale(0.1 -0.1)">
       <use transform="translate(0 0.765625)" xlink:href="#DejaVuSans-49"/>
       <use transform="translate(63.623047 0.765625)" xlink:href="#DejaVuSans-48"/>
       <use transform="translate(128.203125 39.046875)scale(0.7)" xlink:href="#DejaVuSans-8722"/>
       <use transform="translate(186.855469 39.046875)scale(0.7)" xlink:href="#DejaVuSans-50"/>
      </g>
     </g>
    </g>
    <g id="ytick_4">
     <g id="line2d_19">
      <path clip-path="url(#p3ec65f307e)" d="M 27 46.28732 
L 194.4 46.28732 
" style="fill:none;stroke:#cccccc;stroke-linecap:round;stroke-width:0.8;"/>
     </g>
     <g id="line2d_20">
      <g>
       <use style="fill:#262626;stroke:#262626;stroke-width:0.8;" x="27" xlink:href="#m47483a5e5e" y="46.28732"/>
      </g>
     </g>
     <g id="text_11">
      <!-- $\mathdefault{10^{-1}}$ -->
      <g style="fill:#262626;" transform="translate(-3.5 50.086539)scale(0.1 -0.1)">
       <use transform="translate(0 0.684375)" xlink:href="#DejaVuSans-49"/>
       <use transform="translate(63.623047 0.684375)" xlink:href="#DejaVuSans-48"/>
       <use transform="translate(128.203125 38.965625)scale(0.7)" xlink:href="#DejaVuSans-8722"/>
       <use transform="translate(186.855469 38.965625)scale(0.7)" xlink:href="#DejaVuSans-49"/>
      </g>
     </g>
    </g>
    <g id="ytick_5">
     <g id="line2d_21">
      <path clip-path="url(#p3ec65f307e)" d="M 27 22.234891 
L 194.4 22.234891 
" style="fill:none;stroke:#cccccc;stroke-linecap:round;stroke-width:0.8;"/>
     </g>
     <g id="line2d_22">
      <g>
       <use style="fill:#262626;stroke:#262626;stroke-width:0.8;" x="27" xlink:href="#m47483a5e5e" y="22.234891"/>
      </g>
     </g>
     <g id="text_12">
      <!-- $\mathdefault{10^{0}}$ -->
      <g style="fill:#262626;" transform="translate(2.4 26.03411)scale(0.1 -0.1)">
       <use transform="translate(0 0.765625)" xlink:href="#DejaVuSans-49"/>
       <use transform="translate(63.623047 0.765625)" xlink:href="#DejaVuSans-48"/>
       <use transform="translate(128.203125 39.046875)scale(0.7)" xlink:href="#DejaVuSans-48"/>
      </g>
     </g>
    </g>
    <g id="text_13">
     <!-- Population (symlog) -->
     <defs>
      <path d="M 19.671875 64.796875 
L 19.671875 37.40625 
L 32.078125 37.40625 
Q 38.96875 37.40625 42.71875 40.96875 
Q 46.484375 44.53125 46.484375 51.125 
Q 46.484375 57.671875 42.71875 61.234375 
Q 38.96875 64.796875 32.078125 64.796875 
z
M 9.8125 72.90625 
L 32.078125 72.90625 
Q 44.34375 72.90625 50.609375 67.359375 
Q 56.890625 61.8125 56.890625 51.125 
Q 56.890625 40.328125 50.609375 34.8125 
Q 44.34375 29.296875 32.078125 29.296875 
L 19.671875 29.296875 
L 19.671875 0 
L 9.8125 0 
z
" id="DejaVuSans-80"/>
      <path d="M 30.609375 48.390625 
Q 23.390625 48.390625 19.1875 42.75 
Q 14.984375 37.109375 14.984375 27.296875 
Q 14.984375 17.484375 19.15625 11.84375 
Q 23.34375 6.203125 30.609375 6.203125 
Q 37.796875 6.203125 41.984375 11.859375 
Q 46.1875 17.53125 46.1875 27.296875 
Q 46.1875 37.015625 41.984375 42.703125 
Q 37.796875 48.390625 30.609375 48.390625 
z
M 30.609375 56 
Q 42.328125 56 49.015625 48.375 
Q 55.71875 40.765625 55.71875 27.296875 
Q 55.71875 13.875 49.015625 6.21875 
Q 42.328125 -1.421875 30.609375 -1.421875 
Q 18.84375 -1.421875 12.171875 6.21875 
Q 5.515625 13.875 5.515625 27.296875 
Q 5.515625 40.765625 12.171875 48.375 
Q 18.84375 56 30.609375 56 
z
" id="DejaVuSans-111"/>
      <path d="M 18.109375 8.203125 
L 18.109375 -20.796875 
L 9.078125 -20.796875 
L 9.078125 54.6875 
L 18.109375 54.6875 
L 18.109375 46.390625 
Q 20.953125 51.265625 25.265625 53.625 
Q 29.59375 56 35.59375 56 
Q 45.5625 56 51.78125 48.09375 
Q 58.015625 40.1875 58.015625 27.296875 
Q 58.015625 14.40625 51.78125 6.484375 
Q 45.5625 -1.421875 35.59375 -1.421875 
Q 29.59375 -1.421875 25.265625 0.953125 
Q 20.953125 3.328125 18.109375 8.203125 
z
M 48.6875 27.296875 
Q 48.6875 37.203125 44.609375 42.84375 
Q 40.53125 48.484375 33.40625 48.484375 
Q 26.265625 48.484375 22.1875 42.84375 
Q 18.109375 37.203125 18.109375 27.296875 
Q 18.109375 17.390625 22.1875 11.75 
Q 26.265625 6.109375 33.40625 6.109375 
Q 40.53125 6.109375 44.609375 11.75 
Q 48.6875 17.390625 48.6875 27.296875 
z
" id="DejaVuSans-112"/>
      <path d="M 8.5 21.578125 
L 8.5 54.6875 
L 17.484375 54.6875 
L 17.484375 21.921875 
Q 17.484375 14.15625 20.5 10.265625 
Q 23.53125 6.390625 29.59375 6.390625 
Q 36.859375 6.390625 41.078125 11.03125 
Q 45.3125 15.671875 45.3125 23.6875 
L 45.3125 54.6875 
L 54.296875 54.6875 
L 54.296875 0 
L 45.3125 0 
L 45.3125 8.40625 
Q 42.046875 3.421875 37.71875 1 
Q 33.40625 -1.421875 27.6875 -1.421875 
Q 18.265625 -1.421875 13.375 4.4375 
Q 8.5 10.296875 8.5 21.578125 
z
M 31.109375 56 
z
" id="DejaVuSans-117"/>
      <path d="M 9.421875 75.984375 
L 18.40625 75.984375 
L 18.40625 0 
L 9.421875 0 
z
" id="DejaVuSans-108"/>
      <path d="M 18.3125 70.21875 
L 18.3125 54.6875 
L 36.8125 54.6875 
L 36.8125 47.703125 
L 18.3125 47.703125 
L 18.3125 18.015625 
Q 18.3125 11.328125 20.140625 9.421875 
Q 21.96875 7.515625 27.59375 7.515625 
L 36.8125 7.515625 
L 36.8125 0 
L 27.59375 0 
Q 17.1875 0 13.234375 3.875 
Q 9.28125 7.765625 9.28125 18.015625 
L 9.28125 47.703125 
L 2.6875 47.703125 
L 2.6875 54.6875 
L 9.28125 54.6875 
L 9.28125 70.21875 
z
" id="DejaVuSans-116"/>
      <path d="M 54.890625 33.015625 
L 54.890625 0 
L 45.90625 0 
L 45.90625 32.71875 
Q 45.90625 40.484375 42.875 44.328125 
Q 39.84375 48.1875 33.796875 48.1875 
Q 26.515625 48.1875 22.3125 43.546875 
Q 18.109375 38.921875 18.109375 30.90625 
L 18.109375 0 
L 9.078125 0 
L 9.078125 54.6875 
L 18.109375 54.6875 
L 18.109375 46.1875 
Q 21.34375 51.125 25.703125 53.5625 
Q 30.078125 56 35.796875 56 
Q 45.21875 56 50.046875 50.171875 
Q 54.890625 44.34375 54.890625 33.015625 
z
" id="DejaVuSans-110"/>
      <path d="M 45.40625 27.984375 
Q 45.40625 37.75 41.375 43.109375 
Q 37.359375 48.484375 30.078125 48.484375 
Q 22.859375 48.484375 18.828125 43.109375 
Q 14.796875 37.75 14.796875 27.984375 
Q 14.796875 18.265625 18.828125 12.890625 
Q 22.859375 7.515625 30.078125 7.515625 
Q 37.359375 7.515625 41.375 12.890625 
Q 45.40625 18.265625 45.40625 27.984375 
z
M 54.390625 6.78125 
Q 54.390625 -7.171875 48.1875 -13.984375 
Q 42 -20.796875 29.203125 -20.796875 
Q 24.46875 -20.796875 20.265625 -20.09375 
Q 16.0625 -19.390625 12.109375 -17.921875 
L 12.109375 -9.1875 
Q 16.0625 -11.328125 19.921875 -12.34375 
Q 23.78125 -13.375 27.78125 -13.375 
Q 36.625 -13.375 41.015625 -8.765625 
Q 45.40625 -4.15625 45.40625 5.171875 
L 45.40625 9.625 
Q 42.625 4.78125 38.28125 2.390625 
Q 33.9375 0 27.875 0 
Q 17.828125 0 11.671875 7.65625 
Q 5.515625 15.328125 5.515625 27.984375 
Q 5.515625 40.671875 11.671875 48.328125 
Q 17.828125 56 27.875 56 
Q 33.9375 56 38.28125 53.609375 
Q 42.625 51.21875 45.40625 46.390625 
L 45.40625 54.6875 
L 54.390625 54.6875 
z
" id="DejaVuSans-103"/>
     </defs>
     <g style="fill:#262626;" transform="translate(-9.579688 121.632969)rotate(-90)scale(0.1 -0.1)">
      <use xlink:href="#DejaVuSans-80"/>
      <use x="60.255859" xlink:href="#DejaVuSans-111"/>
      <use x="121.4375" xlink:href="#DejaVuSans-112"/>
      <use x="184.914062" xlink:href="#DejaVuSans-117"/>
      <use x="248.292969" xlink:href="#DejaVuSans-108"/>
      <use x="276.076172" xlink:href="#DejaVuSans-97"/>
      <use x="337.355469" xlink:href="#DejaVuSans-116"/>
      <use x="376.564453" xlink:href="#DejaVuSans-105"/>
      <use x="404.347656" xlink:href="#DejaVuSans-111"/>
      <use x="465.529297" xlink:href="#DejaVuSans-110"/>
      <use x="528.908203" xlink:href="#DejaVuSans-32"/>
      <use x="560.695312" xlink:href="#DejaVuSans-40"/>
      <use x="599.708984" xlink:href="#DejaVuSans-115"/>
      <use x="651.808594" xlink:href="#DejaVuSans-121"/>
      <use x="710.988281" xlink:href="#DejaVuSans-109"/>
      <use x="808.400391" xlink:href="#DejaVuSans-108"/>
      <use x="836.183594" xlink:href="#DejaVuSans-111"/>
      <use x="897.365234" xlink:href="#DejaVuSans-103"/>
      <use x="960.841797" xlink:href="#DejaVuSans-41"/>
     </g>
    </g>
   </g>
   <g id="line2d_23">
    <path clip-path="url(#p3ec65f307e)" d="M 27 120.849851 
L 29.681081 120.522338 
L 31.524324 120.086494 
L 33.032432 119.500507 
L 34.205405 118.82373 
L 35.210811 118.021543 
L 36.216216 116.938081 
L 37.221622 115.476039 
L 38.059459 113.875609 
L 38.897297 111.819309 
L 39.735135 109.177864 
L 40.572973 105.784691 
L 41.410811 101.433728 
L 42.248649 95.847853 
L 42.583784 93.93267 
L 63.194595 30.031295 
L 64.535135 26.571843 
L 65.372973 24.893771 
L 66.210811 23.71094 
L 66.881081 23.102201 
L 67.718919 22.658625 
L 68.724324 22.406514 
L 70.4 22.271447 
L 75.594595 22.235186 
L 132.232432 22.244436 
L 141.448649 22.235739 
L 194.4 22.23548 
L 194.4 22.23548 
" style="fill:none;stroke:#ff0c00;stroke-linecap:round;stroke-width:1.5;"/>
   </g>
   <g id="line2d_24">
    <path clip-path="url(#p3ec65f307e)" d="M 27 120.849851 
L 52.805405 120.543274 
L 120 120.919805 
L 194.4 121.058182 
L 194.4 121.058182 
" style="fill:none;stroke:#000cf9;stroke-linecap:round;stroke-width:1.5;"/>
   </g>
   <g id="line2d_25">
    <path clip-path="url(#p3ec65f307e)" d="M 27 120.641856 
L 29.010811 120.251034 
L 30.518919 119.759415 
L 31.859459 119.091584 
L 33.032432 118.242346 
L 34.037838 117.237575 
L 35.043243 115.880876 
L 35.881081 114.393332 
L 36.718919 112.482351 
L 37.556757 110.031831 
L 38.394595 106.886127 
L 39.232432 102.843576 
L 40.07027 97.650994 
L 40.572973 94.183046 
L 61.351351 29.791835 
L 62.691892 26.377484 
L 63.52973 24.751303 
L 64.367568 23.617493 
L 65.037838 23.042995 
L 65.875676 22.626986 
L 66.881081 22.392679 
L 68.556757 22.268347 
L 73.081081 22.235143 
L 141.616216 22.23441 
L 174.962162 22.237893 
L 194.4 22.235212 
L 194.4 22.235212 
" style="fill:none;stroke:#ff1800;stroke-linecap:round;stroke-width:1.5;"/>
   </g>
   <g id="line2d_26">
    <path clip-path="url(#p3ec65f307e)" d="M 27 120.641856 
L 33.367568 120.351544 
L 40.740541 120.068458 
L 48.113514 120.044689 
L 69.562162 120.320888 
L 106.594595 120.677157 
L 156.864865 120.921879 
L 194.4 121.010942 
L 194.4 121.010942 
" style="fill:none;stroke:#0018f3;stroke-linecap:round;stroke-width:1.5;"/>
   </g>
   <g id="line2d_27">
    <path clip-path="url(#p3ec65f307e)" d="M 27 120.271984 
L 28.508108 119.791615 
L 29.848649 119.139991 
L 31.021622 118.312142 
L 32.027027 117.330497 
L 33.032432 116.004984 
L 33.87027 114.554353 
L 34.708108 112.691775 
L 35.545946 110.298266 
L 36.383784 107.223789 
L 37.221622 103.278482 
L 38.059459 98.2175 
L 38.72973 93.917293 
L 59.340541 30.017334 
L 60.681081 26.560603 
L 61.518919 24.885288 
L 62.356757 23.705409 
L 63.027027 23.098661 
L 63.864865 22.656784 
L 64.87027 22.405743 
L 66.545946 22.271299 
L 71.740541 22.235178 
L 128.378378 22.244487 
L 137.762162 22.236068 
L 194.4 22.235918 
L 194.4 22.235918 
" style="fill:none;stroke:#ff2400;stroke-linecap:round;stroke-width:1.5;"/>
   </g>
   <g id="line2d_28">
    <path clip-path="url(#p3ec65f307e)" d="M 27 120.271984 
L 31.356757 119.945118 
L 39.4 119.304842 
L 44.259459 119.18637 
L 51.464865 119.263178 
L 110.783784 120.373238 
L 148.654054 120.712067 
L 194.4 120.923792 
L 194.4 120.923792 
" style="fill:none;stroke:#0024ed;stroke-linecap:round;stroke-width:1.5;"/>
   </g>
   <g id="line2d_29">
    <path clip-path="url(#p3ec65f307e)" d="M 27 119.614247 
L 28.172973 118.984525 
L 29.345946 118.090469 
L 30.351351 117.032958 
L 31.356757 115.60435 
L 32.194595 114.038072 
L 33.032432 112.026328 
L 33.87027 109.446701 
L 34.708108 106.134521 
L 35.545946 101.878196 
L 36.383784 96.410906 
L 36.718919 94.167677 
L 57.497297 29.778034 
L 58.837838 26.366869 
L 59.675676 24.743032 
L 60.513514 23.612252 
L 61.183784 23.039708 
L 62.021622 22.625229 
L 63.027027 22.391902 
L 64.702703 22.268155 
L 69.394595 22.234849 
L 158.875676 22.234105 
L 184.513514 22.237752 
L 194.4 22.235449 
L 194.4 22.235449 
" style="fill:none;stroke:#ff3000;stroke-linecap:round;stroke-width:1.5;"/>
   </g>
   <g id="line2d_30">
    <path clip-path="url(#p3ec65f307e)" d="M 27 119.614247 
L 30.183784 119.221045 
L 39.567568 117.877952 
L 43.254054 117.69201 
L 47.945946 117.699987 
L 55.989189 117.976534 
L 85.816216 119.104581 
L 109.108108 119.716562 
L 136.756757 120.212325 
L 170.940541 120.593338 
L 194.4 120.75813 
L 194.4 120.75813 
" style="fill:none;stroke:#0030e7;stroke-linecap:round;stroke-width:1.5;"/>
   </g>
   <g id="line2d_31">
    <path clip-path="url(#p3ec65f307e)" d="M 27 118.444608 
L 28.005405 117.509795 
L 29.010811 116.246852 
L 29.848649 114.864933 
L 30.686486 113.091046 
L 31.524324 110.811048 
L 32.362162 107.882665 
L 33.2 104.122661 
L 34.037838 99.300922 
L 34.875676 93.901902 
L 55.486486 30.003295 
L 56.827027 26.549323 
L 57.664865 24.876768 
L 58.502703 23.699875 
L 59.172973 23.095132 
L 60.010811 22.65493 
L 61.016216 22.40497 
L 62.691892 22.271055 
L 67.886486 22.235233 
L 124.524324 22.243773 
L 132.4 22.233662 
L 194.4 22.236572 
L 194.4 22.236572 
" style="fill:none;stroke:#ff3c00;stroke-linecap:round;stroke-width:1.5;"/>
   </g>
   <g id="line2d_32">
    <path clip-path="url(#p3ec65f307e)" d="M 27 118.444608 
L 29.345946 117.963988 
L 32.697297 117.01203 
L 37.054054 115.81871 
L 39.735135 115.32419 
L 42.583784 115.039977 
L 45.767568 114.956401 
L 50.124324 115.085308 
L 58 115.589032 
L 81.124324 117.12306 
L 98.886486 118.045797 
L 118.324324 118.829307 
L 140.275676 119.487607 
L 165.913514 120.027953 
L 194.4 120.424946 
L 194.4 120.424946 
" style="fill:none;stroke:#003ce1;stroke-linecap:round;stroke-width:1.5;"/>
   </g>
   <g id="line2d_33">
    <path clip-path="url(#p3ec65f307e)" d="M 27 116.364662 
L 27.837838 115.015106 
L 28.675676 113.280852 
L 29.513514 111.055811 
L 30.351351 108.201916 
L 31.189189 104.53479 
L 32.027027 99.82348 
L 33.032432 93.63009 
L 53.643243 29.764198 
L 54.983784 26.35588 
L 55.821622 24.734867 
L 56.659459 23.60702 
L 57.32973 23.036395 
L 58.167568 22.623525 
L 59.172973 22.391169 
L 60.848649 22.267994 
L 65.540541 22.234843 
L 155.189189 22.234873 
L 178.816216 22.234061 
L 194.4 22.236148 
L 194.4 22.236148 
" style="fill:none;stroke:#ff4900;stroke-linecap:round;stroke-width:1.5;"/>
   </g>
   <g id="line2d_34">
    <path clip-path="url(#p3ec65f307e)" d="M 27 116.364662 
L 28.843243 115.7241 
L 31.021622 114.701185 
L 37.054054 111.684462 
L 39.232432 110.925075 
L 41.243243 110.453677 
L 43.421622 110.164127 
L 45.935135 110.054999 
L 49.118919 110.148483 
L 53.810811 110.535656 
L 64.032432 111.672293 
L 81.124324 113.511253 
L 96.205405 114.902589 
L 111.789189 116.115303 
L 128.210811 117.16856 
L 145.972973 118.081837 
L 165.578378 118.86253 
L 187.697297 119.515888 
L 194.4 119.675222 
L 194.4 119.675222 
" style="fill:none;stroke:#0049db;stroke-linecap:round;stroke-width:1.5;"/>
   </g>
   <g id="line2d_35">
    <path clip-path="url(#p3ec65f307e)" d="M 27 112.665938 
L 27.837838 110.266049 
L 28.675676 107.182853 
L 29.513514 103.226466 
L 30.351351 98.149295 
L 31.021622 93.88577 
L 51.632432 29.990731 
L 52.972973 26.538674 
L 53.810811 24.869666 
L 54.648649 23.694453 
L 55.318919 23.092139 
L 56.156757 22.653354 
L 57.162162 22.400177 
L 58.837838 22.270073 
L 63.52973 22.234828 
L 194.4 22.23499 
L 194.4 22.23499 
" style="fill:none;stroke:#ff5500;stroke-linecap:round;stroke-width:1.5;"/>
   </g>
   <g id="line2d_36">
    <path clip-path="url(#p3ec65f307e)" d="M 27 112.665938 
L 28.340541 111.879135 
L 29.848649 110.740254 
L 32.027027 108.769119 
L 36.216216 104.955209 
L 38.059459 103.613378 
L 39.735135 102.657853 
L 41.410811 101.958952 
L 43.086486 101.487656 
L 44.92973 101.189021 
L 47.108108 101.06246 
L 49.789189 101.138161 
L 53.475676 101.488359 
L 59.172973 102.282016 
L 76.767568 105.075908 
L 95.032432 107.841331 
L 110.951351 110.02888 
L 126.032432 111.878198 
L 140.945946 113.48192 
L 156.027027 114.877776 
L 171.610811 116.094576 
L 188.032432 117.15168 
L 194.4 117.505521 
L 194.4 117.505521 
" style="fill:none;stroke:#0055d4;stroke-linecap:round;stroke-width:1.5;"/>
   </g>
   <g id="line2d_37">
    <path clip-path="url(#p3ec65f307e)" d="M 27 106.088572 
L 27.837838 101.8209 
L 28.675676 96.339125 
L 29.010811 94.13777 
L 49.789189 29.734775 
L 51.12973 26.33735 
L 51.967568 24.723244 
L 52.805405 23.598098 
L 53.475676 23.030388 
L 54.313514 22.621342 
L 55.318919 22.39091 
L 56.994595 22.268434 
L 61.686486 22.235479 
L 121.172973 22.235896 
L 127.875676 22.236409 
L 155.021622 22.235635 
L 182 22.24619 
L 194.4 22.235179 
L 194.4 22.235179 
" style="fill:none;stroke:#ff6100;stroke-linecap:round;stroke-width:1.5;"/>
   </g>
   <g id="line2d_38">
    <path clip-path="url(#p3ec65f307e)" d="M 27 106.088572 
L 28.172973 104.886886 
L 29.513514 103.152793 
L 31.189189 100.556766 
L 35.043243 94.281861 
L 36.886486 93.267938 
L 38.897297 92.430099 
L 40.908108 91.837378 
L 43.254054 91.384786 
L 46.102703 91.076818 
L 49.956757 90.909878 
L 55.821622 90.910301 
L 67.383784 91.17551 
L 89.837838 91.922221 
L 112.291892 92.884097 
L 133.07027 93.995261 
L 140.443243 94.53015 
L 165.410811 98.664223 
L 194.4 103.504043 
L 194.4 103.504043 
" style="fill:none;stroke:#0061ce;stroke-linecap:round;stroke-width:1.5;"/>
   </g>
   <g id="line2d_39">
    <path clip-path="url(#p3ec65f307e)" d="M 27 94.392178 
L 47.778378 29.977575 
L 49.118919 26.528211 
L 49.956757 24.861783 
L 50.794595 23.689397 
L 51.464865 23.089013 
L 52.302703 22.65085 
L 53.308108 22.401407 
L 54.816216 22.276346 
L 58.67027 22.236417 
L 106.259459 22.234509 
L 164.740541 22.233713 
L 176.805405 22.234068 
L 194.4 22.235131 
L 194.4 22.235131 
" style="fill:none;stroke:#ff6d00;stroke-linecap:round;stroke-width:1.5;"/>
   </g>
   <g id="line2d_40">
    <path clip-path="url(#p3ec65f307e)" d="M 27 94.392178 
L 28.508108 93.335338 
L 31.189189 91.120201 
L 33.702703 89.153652 
L 35.713514 87.837341 
L 37.724324 86.794251 
L 39.735135 85.99299 
L 42.081081 85.304617 
L 44.92973 84.714377 
L 48.783784 84.160183 
L 55.821622 83.414852 
L 70.064865 81.899677 
L 79.281081 80.681633 
L 87.324324 79.395604 
L 94.362162 78.051481 
L 100.72973 76.611565 
L 106.427027 75.100365 
L 111.621622 73.492012 
L 116.313514 71.811357 
L 120.67027 70.017509 
L 124.691892 68.122306 
L 128.545946 66.059114 
L 132.232432 63.830257 
L 135.918919 61.33136 
L 139.605405 58.566686 
L 144.297297 54.746355 
L 150.664865 49.569678 
L 153.513514 47.562437 
L 155.859459 46.175453 
L 158.037838 45.137786 
L 160.216216 44.342483 
L 162.394595 43.776985 
L 164.908108 43.365513 
L 167.756757 43.133695 
L 171.275676 43.079574 
L 177.475676 43.255691 
L 188.535135 43.569371 
L 194.4 43.619559 
L 194.4 43.619559 
" style="fill:none;stroke:#006dc8;stroke-linecap:round;stroke-width:1.5;"/>
   </g>
   <g id="line2d_41">
    <path clip-path="url(#p3ec65f307e)" d="M 27 88.379071 
L 45.935135 29.728278 
L 47.275676 26.321921 
L 48.113514 24.72166 
L 48.951351 23.598306 
L 49.621622 23.022919 
L 50.459459 22.617624 
L 51.464865 22.38747 
L 52.972973 22.2738 
L 57.162162 22.236267 
L 116.648649 22.235482 
L 125.362162 22.233454 
L 194.4 22.237372 
L 194.4 22.237372 
" style="fill:none;stroke:#ff7900;stroke-linecap:round;stroke-width:1.5;"/>
   </g>
   <g id="line2d_42">
    <path clip-path="url(#p3ec65f307e)" d="M 27 88.379071 
L 28.508108 87.323638 
L 31.189189 85.110634 
L 33.87027 83.004835 
L 36.048649 81.566972 
L 38.227027 80.403396 
L 40.572973 79.400387 
L 43.589189 78.368955 
L 48.448649 76.988042 
L 57.32973 74.470379 
L 62.524324 72.746918 
L 67.048649 71.01653 
L 71.237838 69.18158 
L 75.091892 67.259374 
L 78.778378 65.18183 
L 82.464865 62.843716 
L 86.151351 60.233754 
L 90.172973 57.098011 
L 101.4 48.121614 
L 103.913514 46.547613 
L 106.091892 45.433412 
L 108.27027 44.564225 
L 110.448649 43.931649 
L 112.794595 43.476612 
L 115.475676 43.188428 
L 118.659459 43.078223 
L 123.518919 43.156394 
L 140.275676 43.603847 
L 154.854054 43.610707 
L 194.4 43.592058 
L 194.4 43.592058 
" style="fill:none;stroke:#0079c2;stroke-linecap:round;stroke-width:1.5;"/>
   </g>
   <g id="line2d_43">
    <path clip-path="url(#p3ec65f307e)" d="M 27 82.365964 
L 43.924324 29.96366 
L 45.264865 26.51698 
L 46.102703 24.853419 
L 46.940541 23.683941 
L 47.610811 23.085523 
L 48.448649 22.649043 
L 49.454054 22.400692 
L 50.962162 22.276175 
L 54.816216 22.23643 
L 102.572973 22.234785 
L 160.383784 22.236145 
L 194.4 22.241836 
L 194.4 22.241836 
" style="fill:none;stroke:#ff8600;stroke-linecap:round;stroke-width:1.5;"/>
   </g>
   <g id="line2d_44">
    <path clip-path="url(#p3ec65f307e)" d="M 27 82.365964 
L 28.508108 81.313039 
L 31.021622 79.245697 
L 34.037838 76.843166 
L 36.383784 75.239358 
L 39.064865 73.690488 
L 42.583784 71.942133 
L 51.632432 67.557102 
L 55.486486 65.396582 
L 59.172973 63.078485 
L 62.859459 60.491946 
L 66.881081 57.381063 
L 73.918919 51.561399 
L 77.437838 48.838563 
L 79.951351 47.152464 
L 82.297297 45.839995 
L 84.475676 44.875994 
L 86.654054 44.153788 
L 89 43.615732 
L 91.513514 43.270773 
L 94.52973 43.097543 
L 98.718919 43.103637 
L 107.432432 43.406138 
L 116.648649 43.598008 
L 130.389189 43.614406 
L 182.67027 43.592397 
L 194.4 43.592539 
L 194.4 43.592539 
" style="fill:none;stroke:#0086bc;stroke-linecap:round;stroke-width:1.5;"/>
   </g>
   <g id="line2d_45">
    <path clip-path="url(#p3ec65f307e)" d="M 27 76.352857 
L 42.081081 29.715422 
L 43.421622 26.30828 
L 44.259459 24.711872 
L 45.097297 23.593181 
L 45.767568 23.020962 
L 46.605405 22.616493 
L 47.610811 22.381622 
L 49.454054 22.262469 
L 55.654054 22.234422 
L 118.827027 22.235558 
L 126.032432 22.234851 
L 190.378378 22.245323 
L 194.4 22.242374 
L 194.4 22.242374 
" style="fill:none;stroke:#ff9200;stroke-linecap:round;stroke-width:1.5;"/>
   </g>
   <g id="line2d_46">
    <path clip-path="url(#p3ec65f307e)" d="M 27 76.352857 
L 28.675676 75.176071 
L 31.524324 72.822852 
L 34.875676 70.1564 
L 38.059459 67.912164 
L 49.454054 60.159828 
L 53.643243 56.871479 
L 64.2 48.391537 
L 66.713514 46.774276 
L 69.059459 45.536877 
L 71.237838 44.643511 
L 73.416216 43.987588 
L 75.762162 43.510884 
L 78.443243 43.204238 
L 81.627027 43.080773 
L 86.318919 43.143387 
L 104.751351 43.612424 
L 123.686486 43.599184 
L 194.4 43.592459 
L 194.4 43.592459 
" style="fill:none;stroke:#0092b6;stroke-linecap:round;stroke-width:1.5;"/>
   </g>
   <g id="line2d_47">
    <path clip-path="url(#p3ec65f307e)" d="M 27 70.339749 
L 40.07027 29.949746 
L 41.410811 26.505706 
L 42.248649 24.845155 
L 43.086486 23.678545 
L 43.756757 23.082064 
L 44.594595 22.647506 
L 45.6 22.399494 
L 47.275676 22.269637 
L 51.8 22.234783 
L 194.4 22.235356 
L 194.4 22.235356 
" style="fill:none;stroke:#ff9e00;stroke-linecap:round;stroke-width:1.5;"/>
   </g>
   <g id="line2d_48">
    <path clip-path="url(#p3ec65f307e)" d="M 27 70.339749 
L 28.675676 69.172648 
L 31.356757 66.980216 
L 36.383784 62.87791 
L 45.935135 55.214851 
L 52.805405 49.621519 
L 55.654054 47.61262 
L 58 46.219729 
L 60.178378 45.174708 
L 62.356757 44.371803 
L 64.535135 43.794701 
L 66.881081 43.395375 
L 69.72973 43.14819 
L 73.248649 43.076307 
L 78.778378 43.223022 
L 91.513514 43.579398 
L 104.416216 43.619687 
L 163.232432 43.592504 
L 194.4 43.592396 
L 194.4 43.592396 
" style="fill:none;stroke:#009eb0;stroke-linecap:round;stroke-width:1.5;"/>
   </g>
   <g id="line2d_49">
    <path clip-path="url(#p3ec65f307e)" d="M 27 64.326642 
L 38.227027 29.70239 
L 39.567568 26.29609 
L 40.405405 24.702927 
L 41.243243 23.588069 
L 41.913514 23.018744 
L 42.751351 22.615482 
L 43.924324 22.360524 
L 45.935135 22.255216 
L 53.978378 22.234444 
L 98.383784 22.231426 
L 109.108108 22.233852 
L 194.4 22.235028 
L 194.4 22.235028 
" style="fill:none;stroke:#ffaa00;stroke-linecap:round;stroke-width:1.5;"/>
   </g>
   <g id="line2d_50">
    <path clip-path="url(#p3ec65f307e)" d="M 27 64.326642 
L 28.843243 63.051474 
L 31.691892 60.757674 
L 44.92973 49.861701 
L 47.778378 47.839477 
L 50.124324 46.422278 
L 52.302703 45.343989 
L 54.481081 44.509639 
L 56.827027 43.86367 
L 59.340541 43.41797 
L 62.189189 43.158416 
L 65.708108 43.086311 
L 71.405405 43.225825 
L 83.637838 43.573259 
L 95.2 43.620748 
L 194.4 43.592379 
L 194.4 43.592379 
" style="fill:none;stroke:#00aaaa;stroke-linecap:round;stroke-width:1.5;"/>
   </g>
   <g id="line2d_51">
    <path clip-path="url(#p3ec65f307e)" d="M 27 58.313535 
L 36.216216 29.935795 
L 37.556757 26.494287 
L 38.394595 24.837116 
L 39.232432 23.673239 
L 39.902703 23.078616 
L 40.740541 22.646394 
L 41.745946 22.396537 
L 43.421622 22.269406 
L 48.281081 22.235354 
L 139.605405 22.222389 
L 193.227027 22.234837 
L 194.4 22.235994 
L 194.4 22.235994 
" style="fill:none;stroke:#ffb600;stroke-linecap:round;stroke-width:1.5;"/>
   </g>
   <g id="line2d_52">
    <path clip-path="url(#p3ec65f307e)" d="M 27 58.313535 
L 29.178378 56.834308 
L 32.864865 54.002802 
L 38.897297 49.409155 
L 41.745946 47.515562 
L 44.259459 46.109287 
L 46.605405 45.060067 
L 48.783784 44.317955 
L 51.12973 43.756552 
L 53.643243 43.381183 
L 56.659459 43.163241 
L 60.513514 43.127813 
L 67.886486 43.341843 
L 78.108108 43.580848 
L 91.010811 43.61571 
L 175.967568 43.592422 
L 194.4 43.592377 
L 194.4 43.592377 
" style="fill:none;stroke:#00b6a4;stroke-linecap:round;stroke-width:1.5;"/>
   </g>
   <g id="line2d_53">
    <path clip-path="url(#p3ec65f307e)" d="M 27 52.300427 
L 34.372973 29.688876 
L 35.713514 26.288856 
L 36.551351 24.69652 
L 37.389189 23.582412 
L 38.059459 23.015381 
L 38.897297 22.612927 
L 39.902703 22.380678 
L 41.745946 22.262364 
L 47.945946 22.234171 
L 125.362162 22.239653 
L 132.567568 22.234416 
L 194.4 22.235104 
L 194.4 22.235104 
" style="fill:none;stroke:#ffc300;stroke-linecap:round;stroke-width:1.5;"/>
   </g>
   <g id="line2d_54">
    <path clip-path="url(#p3ec65f307e)" d="M 27 52.300427 
L 36.718919 46.441329 
L 39.232432 45.330439 
L 41.578378 44.527642 
L 44.091892 43.907316 
L 46.772973 43.489238 
L 49.789189 43.253055 
L 53.643243 43.179627 
L 60.010811 43.320891 
L 72.913514 43.59023 
L 89.837838 43.605046 
L 164.405405 43.592433 
L 194.4 43.59238 
L 194.4 43.59238 
" style="fill:none;stroke:#00c39e;stroke-linecap:round;stroke-width:1.5;"/>
   </g>
   <g id="line2d_55">
    <path clip-path="url(#p3ec65f307e)" d="M 27 46.28732 
L 32.362162 29.920129 
L 33.702703 26.48142 
L 34.540541 24.828221 
L 35.378378 23.66706 
L 36.048649 23.074555 
L 36.886486 22.642433 
L 37.891892 22.399065 
L 39.567568 22.268758 
L 44.259459 22.234693 
L 194.4 22.235617 
L 194.4 22.235617 
" style="fill:none;stroke:#ffcf00;stroke-linecap:round;stroke-width:1.5;"/>
   </g>
   <g id="line2d_56">
    <path clip-path="url(#p3ec65f307e)" d="M 27 46.28732 
L 29.010811 45.183053 
L 31.021622 44.334521 
L 33.032432 43.724429 
L 35.210811 43.297521 
L 37.724324 43.03404 
L 40.740541 42.94434 
L 45.097297 43.055892 
L 60.345946 43.587832 
L 71.908108 43.62661 
L 127.875676 43.592446 
L 194.4 43.592386 
L 194.4 43.592386 
" style="fill:none;stroke:#00cf98;stroke-linecap:round;stroke-width:1.5;"/>
   </g>
   <g id="line2d_57">
    <path clip-path="url(#p3ec65f307e)" d="M 27 40.274213 
L 30.686486 29.202157 
L 31.859459 26.278428 
L 32.697297 24.685144 
L 33.535135 23.572129 
L 34.205405 23.008505 
L 35.043243 22.610111 
L 36.048649 22.386224 
L 37.724324 22.267012 
L 43.589189 22.234258 
L 148.654054 22.23305 
L 156.027027 22.234835 
L 194.4 22.237676 
L 194.4 22.237676 
" style="fill:none;stroke:#ffdb00;stroke-linecap:round;stroke-width:1.5;"/>
   </g>
   <g id="line2d_58">
    <path clip-path="url(#p3ec65f307e)" d="M 27 40.274213 
L 28.005405 39.771811 
L 29.178378 39.450224 
L 30.351351 39.357131 
L 31.859459 39.483746 
L 33.702703 39.881015 
L 36.886486 40.840631 
L 41.913514 42.343335 
L 45.097297 43.041378 
L 48.281081 43.512649 
L 51.632432 43.782505 
L 55.989189 43.891821 
L 62.691892 43.802912 
L 78.108108 43.586219 
L 108.437838 43.592547 
L 194.4 43.592395 
L 194.4 43.592395 
" style="fill:none;stroke:#00db92;stroke-linecap:round;stroke-width:1.5;"/>
   </g>
   <g id="line2d_59">
    <path clip-path="url(#p3ec65f307e)" d="M 27 34.261106 
L 29.178378 28.022391 
L 30.183784 25.697138 
L 31.021622 24.256067 
L 31.691892 23.461646 
L 32.362162 22.944575 
L 33.2 22.577358 
L 34.372973 22.353011 
L 36.383784 22.253748 
L 43.756757 22.235461 
L 102.237838 22.228861 
L 113.464865 22.233704 
L 194.4 22.241096 
L 194.4 22.241096 
" style="fill:none;stroke:#ffe700;stroke-linecap:round;stroke-width:1.5;"/>
   </g>
   <g id="line2d_60">
    <path clip-path="url(#p3ec65f307e)" d="M 27 34.261106 
L 27.67027 33.973308 
L 28.340541 33.893951 
L 29.178378 34.025733 
L 30.183784 34.421013 
L 31.691892 35.3027 
L 34.205405 37.100517 
L 38.394595 40.083171 
L 40.740541 41.47375 
L 42.918919 42.524325 
L 44.92973 43.263364 
L 47.108108 43.827929 
L 49.454054 44.201542 
L 52.135135 44.386757 
L 55.486486 44.380126 
L 61.016216 44.103869 
L 70.232432 43.672057 
L 78.108108 43.554173 
L 94.864865 43.580937 
L 144.12973 43.592243 
L 194.4 43.592403 
L 194.4 43.592403 
" style="fill:none;stroke:#00e78c;stroke-linecap:round;stroke-width:1.5;"/>
   </g>
   <g id="line2d_61">
    <path clip-path="url(#p3ec65f307e)" d="M 27 28.247998 
L 28.172973 25.536993 
L 29.010811 24.145564 
L 29.681081 23.385854 
L 30.351351 22.896874 
L 31.189189 22.552965 
L 32.362162 22.344159 
L 34.540541 22.249876 
L 43.421622 22.235224 
L 60.513514 22.23303 
L 68.556757 22.233977 
L 146.643243 22.247095 
L 163.232432 22.23651 
L 194.4 22.235344 
L 194.4 22.235344 
" style="fill:none;stroke:#fff300;stroke-linecap:round;stroke-width:1.5;"/>
   </g>
   <g id="line2d_62">
    <path clip-path="url(#p3ec65f307e)" d="M 27 28.247998 
L 27.502703 28.0998 
L 28.005405 28.152528 
L 28.675676 28.46939 
L 29.681081 29.25579 
L 31.189189 30.774395 
L 35.210811 35.298664 
L 38.227027 38.471345 
L 40.405405 40.462496 
L 42.416216 41.985517 
L 44.259459 43.10684 
L 46.102703 43.950687 
L 47.945946 44.540729 
L 49.789189 44.904727 
L 51.967568 45.093739 
L 54.481081 45.07671 
L 58 44.806669 
L 69.562162 43.752909 
L 75.259459 43.553785 
L 83.47027 43.513621 
L 126.2 43.593359 
L 194.4 43.592409 
L 194.4 43.592409 
" style="fill:none;stroke:#00f386;stroke-linecap:round;stroke-width:1.5;"/>
   </g>
   <g id="patch_3">
    <path d="M 27 126 
L 27 17.28 
" style="fill:none;stroke:#262626;stroke-linecap:square;stroke-linejoin:miter;stroke-width:0.8;"/>
   </g>
   <g id="patch_4">
    <path d="M 194.4 126 
L 194.4 17.28 
" style="fill:none;stroke:#262626;stroke-linecap:square;stroke-linejoin:miter;stroke-width:0.8;"/>
   </g>
   <g id="patch_5">
    <path d="M 27 126 
L 194.4 126 
" style="fill:none;stroke:#262626;stroke-linecap:square;stroke-linejoin:miter;stroke-width:0.8;"/>
   </g>
   <g id="patch_6">
    <path d="M 27 17.28 
L 194.4 17.28 
" style="fill:none;stroke:#262626;stroke-linecap:square;stroke-linejoin:miter;stroke-width:0.8;"/>
   </g>
  </g>
 </g>
 <defs>
  <clipPath id="p3ec65f307e">
   <rect height="108.72" width="167.4" x="27" y="17.28"/>
  </clipPath>
 </defs>
</svg>
