<?xml version="1.0" encoding="utf-8" standalone="no"?>
<!DOCTYPE svg PUBLIC "-//W3C//DTD SVG 1.1//EN"
  "http://www.w3.org/Graphics/SVG/1.1/DTD/svg11.dtd">
<!-- Created with matplotlib (https://matplotlib.org/) -->
<svg height="144pt" version="1.1" viewBox="0 0 216 144" width="216pt" xmlns="http://www.w3.org/2000/svg" xmlns:xlink="http://www.w3.org/1999/xlink">
 <defs>
  <style type="text/css">
*{stroke-linecap:butt;stroke-linejoin:round;}
  </style>
 </defs>
 <g id="figure_1">
  <g id="patch_1">
   <path d="M 0 144 
L 216 144 
L 216 0 
L 0 0 
z
" style="fill:#ffffff;"/>
  </g>
  <g id="axes_1">
   <g id="patch_2">
    <path d="M 27 126 
L 194.4 126 
L 194.4 17.28 
L 27 17.28 
z
" style="fill:#ffffff;"/>
   </g>
   <g id="matplotlib.axis_1">
    <g id="xtick_1">
     <g id="line2d_1">
      <path clip-path="url(#p70609b5098)" d="M 27 126 
L 27 17.28 
" style="fill:none;stroke:#cccccc;stroke-linecap:round;stroke-width:0.8;"/>
     </g>
     <g id="line2d_2">
      <defs>
       <path d="M 0 0 
L 0 3.5 
" id="mc710c934a7" style="stroke:#262626;stroke-width:0.8;"/>
      </defs>
      <g>
       <use style="fill:#262626;stroke:#262626;stroke-width:0.8;" x="27" xlink:href="#mc710c934a7" y="126"/>
      </g>
     </g>
     <g id="text_1">
      <!-- 0 -->
      <defs>
       <path d="M 31.78125 66.40625 
Q 24.171875 66.40625 20.328125 58.90625 
Q 16.5 51.421875 16.5 36.375 
Q 16.5 21.390625 20.328125 13.890625 
Q 24.171875 6.390625 31.78125 6.390625 
Q 39.453125 6.390625 43.28125 13.890625 
Q 47.125 21.390625 47.125 36.375 
Q 47.125 51.421875 43.28125 58.90625 
Q 39.453125 66.40625 31.78125 66.40625 
z
M 31.78125 74.21875 
Q 44.046875 74.21875 50.515625 64.515625 
Q 56.984375 54.828125 56.984375 36.375 
Q 56.984375 17.96875 50.515625 8.265625 
Q 44.046875 -1.421875 31.78125 -1.421875 
Q 19.53125 -1.421875 13.0625 8.265625 
Q 6.59375 17.96875 6.59375 36.375 
Q 6.59375 54.828125 13.0625 64.515625 
Q 19.53125 74.21875 31.78125 74.21875 
z
" id="DejaVuSans-48"/>
      </defs>
      <g style="fill:#262626;" transform="translate(23.81875 140.598437)scale(0.1 -0.1)">
       <use xlink:href="#DejaVuSans-48"/>
      </g>
     </g>
    </g>
    <g id="xtick_2">
     <g id="line2d_3">
      <path clip-path="url(#p70609b5098)" d="M 60.48 126 
L 60.48 17.28 
" style="fill:none;stroke:#cccccc;stroke-linecap:round;stroke-width:0.8;"/>
     </g>
     <g id="line2d_4">
      <g>
       <use style="fill:#262626;stroke:#262626;stroke-width:0.8;" x="60.48" xlink:href="#mc710c934a7" y="126"/>
      </g>
     </g>
     <g id="text_2">
      <!-- 10 -->
      <defs>
       <path d="M 12.40625 8.296875 
L 28.515625 8.296875 
L 28.515625 63.921875 
L 10.984375 60.40625 
L 10.984375 69.390625 
L 28.421875 72.90625 
L 38.28125 72.90625 
L 38.28125 8.296875 
L 54.390625 8.296875 
L 54.390625 0 
L 12.40625 0 
z
" id="DejaVuSans-49"/>
      </defs>
      <g style="fill:#262626;" transform="translate(54.1175 140.598437)scale(0.1 -0.1)">
       <use xlink:href="#DejaVuSans-49"/>
       <use x="63.623047" xlink:href="#DejaVuSans-48"/>
      </g>
     </g>
    </g>
    <g id="xtick_3">
     <g id="line2d_5">
      <path clip-path="url(#p70609b5098)" d="M 93.96 126 
L 93.96 17.28 
" style="fill:none;stroke:#cccccc;stroke-linecap:round;stroke-width:0.8;"/>
     </g>
     <g id="line2d_6">
      <g>
       <use style="fill:#262626;stroke:#262626;stroke-width:0.8;" x="93.96" xlink:href="#mc710c934a7" y="126"/>
      </g>
     </g>
     <g id="text_3">
      <!-- 20 -->
      <defs>
       <path d="M 19.1875 8.296875 
L 53.609375 8.296875 
L 53.609375 0 
L 7.328125 0 
L 7.328125 8.296875 
Q 12.9375 14.109375 22.625 23.890625 
Q 32.328125 33.6875 34.8125 36.53125 
Q 39.546875 41.84375 41.421875 45.53125 
Q 43.3125 49.21875 43.3125 52.78125 
Q 43.3125 58.59375 39.234375 62.25 
Q 35.15625 65.921875 28.609375 65.921875 
Q 23.96875 65.921875 18.8125 64.3125 
Q 13.671875 62.703125 7.8125 59.421875 
L 7.8125 69.390625 
Q 13.765625 71.78125 18.9375 73 
Q 24.125 74.21875 28.421875 74.21875 
Q 39.75 74.21875 46.484375 68.546875 
Q 53.21875 62.890625 53.21875 53.421875 
Q 53.21875 48.921875 51.53125 44.890625 
Q 49.859375 40.875 45.40625 35.40625 
Q 44.1875 33.984375 37.640625 27.21875 
Q 31.109375 20.453125 19.1875 8.296875 
z
" id="DejaVuSans-50"/>
      </defs>
      <g style="fill:#262626;" transform="translate(87.5975 140.598437)scale(0.1 -0.1)">
       <use xlink:href="#DejaVuSans-50"/>
       <use x="63.623047" xlink:href="#DejaVuSans-48"/>
      </g>
     </g>
    </g>
    <g id="xtick_4">
     <g id="line2d_7">
      <path clip-path="url(#p70609b5098)" d="M 127.44 126 
L 127.44 17.28 
" style="fill:none;stroke:#cccccc;stroke-linecap:round;stroke-width:0.8;"/>
     </g>
     <g id="line2d_8">
      <g>
       <use style="fill:#262626;stroke:#262626;stroke-width:0.8;" x="127.44" xlink:href="#mc710c934a7" y="126"/>
      </g>
     </g>
     <g id="text_4">
      <!-- 30 -->
      <defs>
       <path d="M 40.578125 39.3125 
Q 47.65625 37.796875 51.625 33 
Q 55.609375 28.21875 55.609375 21.1875 
Q 55.609375 10.40625 48.1875 4.484375 
Q 40.765625 -1.421875 27.09375 -1.421875 
Q 22.515625 -1.421875 17.65625 -0.515625 
Q 12.796875 0.390625 7.625 2.203125 
L 7.625 11.71875 
Q 11.71875 9.328125 16.59375 8.109375 
Q 21.484375 6.890625 26.8125 6.890625 
Q 36.078125 6.890625 40.9375 10.546875 
Q 45.796875 14.203125 45.796875 21.1875 
Q 45.796875 27.640625 41.28125 31.265625 
Q 36.765625 34.90625 28.71875 34.90625 
L 20.21875 34.90625 
L 20.21875 43.015625 
L 29.109375 43.015625 
Q 36.375 43.015625 40.234375 45.921875 
Q 44.09375 48.828125 44.09375 54.296875 
Q 44.09375 59.90625 40.109375 62.90625 
Q 36.140625 65.921875 28.71875 65.921875 
Q 24.65625 65.921875 20.015625 65.03125 
Q 15.375 64.15625 9.8125 62.3125 
L 9.8125 71.09375 
Q 15.4375 72.65625 20.34375 73.4375 
Q 25.25 74.21875 29.59375 74.21875 
Q 40.828125 74.21875 47.359375 69.109375 
Q 53.90625 64.015625 53.90625 55.328125 
Q 53.90625 49.265625 50.4375 45.09375 
Q 46.96875 40.921875 40.578125 39.3125 
z
" id="DejaVuSans-51"/>
      </defs>
      <g style="fill:#262626;" transform="translate(121.0775 140.598437)scale(0.1 -0.1)">
       <use xlink:href="#DejaVuSans-51"/>
       <use x="63.623047" xlink:href="#DejaVuSans-48"/>
      </g>
     </g>
    </g>
    <g id="xtick_5">
     <g id="line2d_9">
      <path clip-path="url(#p70609b5098)" d="M 160.92 126 
L 160.92 17.28 
" style="fill:none;stroke:#cccccc;stroke-linecap:round;stroke-width:0.8;"/>
     </g>
     <g id="line2d_10">
      <g>
       <use style="fill:#262626;stroke:#262626;stroke-width:0.8;" x="160.92" xlink:href="#mc710c934a7" y="126"/>
      </g>
     </g>
     <g id="text_5">
      <!-- 40 -->
      <defs>
       <path d="M 37.796875 64.3125 
L 12.890625 25.390625 
L 37.796875 25.390625 
z
M 35.203125 72.90625 
L 47.609375 72.90625 
L 47.609375 25.390625 
L 58.015625 25.390625 
L 58.015625 17.1875 
L 47.609375 17.1875 
L 47.609375 0 
L 37.796875 0 
L 37.796875 17.1875 
L 4.890625 17.1875 
L 4.890625 26.703125 
z
" id="DejaVuSans-52"/>
      </defs>
      <g style="fill:#262626;" transform="translate(154.5575 140.598437)scale(0.1 -0.1)">
       <use xlink:href="#DejaVuSans-52"/>
       <use x="63.623047" xlink:href="#DejaVuSans-48"/>
      </g>
     </g>
    </g>
    <g id="xtick_6">
     <g id="line2d_11">
      <path clip-path="url(#p70609b5098)" d="M 194.4 126 
L 194.4 17.28 
" style="fill:none;stroke:#cccccc;stroke-linecap:round;stroke-width:0.8;"/>
     </g>
     <g id="line2d_12">
      <g>
       <use style="fill:#262626;stroke:#262626;stroke-width:0.8;" x="194.4" xlink:href="#mc710c934a7" y="126"/>
      </g>
     </g>
     <g id="text_6">
      <!-- 50 -->
      <defs>
       <path d="M 10.796875 72.90625 
L 49.515625 72.90625 
L 49.515625 64.59375 
L 19.828125 64.59375 
L 19.828125 46.734375 
Q 21.96875 47.46875 24.109375 47.828125 
Q 26.265625 48.1875 28.421875 48.1875 
Q 40.625 48.1875 47.75 41.5 
Q 54.890625 34.8125 54.890625 23.390625 
Q 54.890625 11.625 47.5625 5.09375 
Q 40.234375 -1.421875 26.90625 -1.421875 
Q 22.3125 -1.421875 17.546875 -0.640625 
Q 12.796875 0.140625 7.71875 1.703125 
L 7.71875 11.625 
Q 12.109375 9.234375 16.796875 8.0625 
Q 21.484375 6.890625 26.703125 6.890625 
Q 35.15625 6.890625 40.078125 11.328125 
Q 45.015625 15.765625 45.015625 23.390625 
Q 45.015625 31 40.078125 35.4375 
Q 35.15625 39.890625 26.703125 39.890625 
Q 22.75 39.890625 18.8125 39.015625 
Q 14.890625 38.140625 10.796875 36.28125 
z
" id="DejaVuSans-53"/>
      </defs>
      <g style="fill:#262626;" transform="translate(188.0375 140.598437)scale(0.1 -0.1)">
       <use xlink:href="#DejaVuSans-53"/>
       <use x="63.623047" xlink:href="#DejaVuSans-48"/>
      </g>
     </g>
    </g>
    <g id="text_7">
     <!-- Time (days) -->
     <defs>
      <path d="M -0.296875 72.90625 
L 61.375 72.90625 
L 61.375 64.59375 
L 35.5 64.59375 
L 35.5 0 
L 25.59375 0 
L 25.59375 64.59375 
L -0.296875 64.59375 
z
" id="DejaVuSans-84"/>
      <path d="M 9.421875 54.6875 
L 18.40625 54.6875 
L 18.40625 0 
L 9.421875 0 
z
M 9.421875 75.984375 
L 18.40625 75.984375 
L 18.40625 64.59375 
L 9.421875 64.59375 
z
" id="DejaVuSans-105"/>
      <path d="M 52 44.1875 
Q 55.375 50.25 60.0625 53.125 
Q 64.75 56 71.09375 56 
Q 79.640625 56 84.28125 50.015625 
Q 88.921875 44.046875 88.921875 33.015625 
L 88.921875 0 
L 79.890625 0 
L 79.890625 32.71875 
Q 79.890625 40.578125 77.09375 44.375 
Q 74.3125 48.1875 68.609375 48.1875 
Q 61.625 48.1875 57.5625 43.546875 
Q 53.515625 38.921875 53.515625 30.90625 
L 53.515625 0 
L 44.484375 0 
L 44.484375 32.71875 
Q 44.484375 40.625 41.703125 44.40625 
Q 38.921875 48.1875 33.109375 48.1875 
Q 26.21875 48.1875 22.15625 43.53125 
Q 18.109375 38.875 18.109375 30.90625 
L 18.109375 0 
L 9.078125 0 
L 9.078125 54.6875 
L 18.109375 54.6875 
L 18.109375 46.1875 
Q 21.1875 51.21875 25.484375 53.609375 
Q 29.78125 56 35.6875 56 
Q 41.65625 56 45.828125 52.96875 
Q 50 49.953125 52 44.1875 
z
" id="DejaVuSans-109"/>
      <path d="M 56.203125 29.59375 
L 56.203125 25.203125 
L 14.890625 25.203125 
Q 15.484375 15.921875 20.484375 11.0625 
Q 25.484375 6.203125 34.421875 6.203125 
Q 39.59375 6.203125 44.453125 7.46875 
Q 49.3125 8.734375 54.109375 11.28125 
L 54.109375 2.78125 
Q 49.265625 0.734375 44.1875 -0.34375 
Q 39.109375 -1.421875 33.890625 -1.421875 
Q 20.796875 -1.421875 13.15625 6.1875 
Q 5.515625 13.8125 5.515625 26.8125 
Q 5.515625 40.234375 12.765625 48.109375 
Q 20.015625 56 32.328125 56 
Q 43.359375 56 49.78125 48.890625 
Q 56.203125 41.796875 56.203125 29.59375 
z
M 47.21875 32.234375 
Q 47.125 39.59375 43.09375 43.984375 
Q 39.0625 48.390625 32.421875 48.390625 
Q 24.90625 48.390625 20.390625 44.140625 
Q 15.875 39.890625 15.1875 32.171875 
z
" id="DejaVuSans-101"/>
      <path id="DejaVuSans-32"/>
      <path d="M 31 75.875 
Q 24.46875 64.65625 21.28125 53.65625 
Q 18.109375 42.671875 18.109375 31.390625 
Q 18.109375 20.125 21.3125 9.0625 
Q 24.515625 -2 31 -13.1875 
L 23.1875 -13.1875 
Q 15.875 -1.703125 12.234375 9.375 
Q 8.59375 20.453125 8.59375 31.390625 
Q 8.59375 42.28125 12.203125 53.3125 
Q 15.828125 64.359375 23.1875 75.875 
z
" id="DejaVuSans-40"/>
      <path d="M 45.40625 46.390625 
L 45.40625 75.984375 
L 54.390625 75.984375 
L 54.390625 0 
L 45.40625 0 
L 45.40625 8.203125 
Q 42.578125 3.328125 38.25 0.953125 
Q 33.9375 -1.421875 27.875 -1.421875 
Q 17.96875 -1.421875 11.734375 6.484375 
Q 5.515625 14.40625 5.515625 27.296875 
Q 5.515625 40.1875 11.734375 48.09375 
Q 17.96875 56 27.875 56 
Q 33.9375 56 38.25 53.625 
Q 42.578125 51.265625 45.40625 46.390625 
z
M 14.796875 27.296875 
Q 14.796875 17.390625 18.875 11.75 
Q 22.953125 6.109375 30.078125 6.109375 
Q 37.203125 6.109375 41.296875 11.75 
Q 45.40625 17.390625 45.40625 27.296875 
Q 45.40625 37.203125 41.296875 42.84375 
Q 37.203125 48.484375 30.078125 48.484375 
Q 22.953125 48.484375 18.875 42.84375 
Q 14.796875 37.203125 14.796875 27.296875 
z
" id="DejaVuSans-100"/>
      <path d="M 34.28125 27.484375 
Q 23.390625 27.484375 19.1875 25 
Q 14.984375 22.515625 14.984375 16.5 
Q 14.984375 11.71875 18.140625 8.90625 
Q 21.296875 6.109375 26.703125 6.109375 
Q 34.1875 6.109375 38.703125 11.40625 
Q 43.21875 16.703125 43.21875 25.484375 
L 43.21875 27.484375 
z
M 52.203125 31.203125 
L 52.203125 0 
L 43.21875 0 
L 43.21875 8.296875 
Q 40.140625 3.328125 35.546875 0.953125 
Q 30.953125 -1.421875 24.3125 -1.421875 
Q 15.921875 -1.421875 10.953125 3.296875 
Q 6 8.015625 6 15.921875 
Q 6 25.140625 12.171875 29.828125 
Q 18.359375 34.515625 30.609375 34.515625 
L 43.21875 34.515625 
L 43.21875 35.40625 
Q 43.21875 41.609375 39.140625 45 
Q 35.0625 48.390625 27.6875 48.390625 
Q 23 48.390625 18.546875 47.265625 
Q 14.109375 46.140625 10.015625 43.890625 
L 10.015625 52.203125 
Q 14.9375 54.109375 19.578125 55.046875 
Q 24.21875 56 28.609375 56 
Q 40.484375 56 46.34375 49.84375 
Q 52.203125 43.703125 52.203125 31.203125 
z
" id="DejaVuSans-97"/>
      <path d="M 32.171875 -5.078125 
Q 28.375 -14.84375 24.75 -17.8125 
Q 21.140625 -20.796875 15.09375 -20.796875 
L 7.90625 -20.796875 
L 7.90625 -13.28125 
L 13.1875 -13.28125 
Q 16.890625 -13.28125 18.9375 -11.515625 
Q 21 -9.765625 23.484375 -3.21875 
L 25.09375 0.875 
L 2.984375 54.6875 
L 12.5 54.6875 
L 29.59375 11.921875 
L 46.6875 54.6875 
L 56.203125 54.6875 
z
" id="DejaVuSans-121"/>
      <path d="M 44.28125 53.078125 
L 44.28125 44.578125 
Q 40.484375 46.53125 36.375 47.5 
Q 32.28125 48.484375 27.875 48.484375 
Q 21.1875 48.484375 17.84375 46.4375 
Q 14.5 44.390625 14.5 40.28125 
Q 14.5 37.15625 16.890625 35.375 
Q 19.28125 33.59375 26.515625 31.984375 
L 29.59375 31.296875 
Q 39.15625 29.25 43.1875 25.515625 
Q 47.21875 21.78125 47.21875 15.09375 
Q 47.21875 7.46875 41.1875 3.015625 
Q 35.15625 -1.421875 24.609375 -1.421875 
Q 20.21875 -1.421875 15.453125 -0.5625 
Q 10.6875 0.296875 5.421875 2 
L 5.421875 11.28125 
Q 10.40625 8.6875 15.234375 7.390625 
Q 20.0625 6.109375 24.8125 6.109375 
Q 31.15625 6.109375 34.5625 8.28125 
Q 37.984375 10.453125 37.984375 14.40625 
Q 37.984375 18.0625 35.515625 20.015625 
Q 33.0625 21.96875 24.703125 23.78125 
L 21.578125 24.515625 
Q 13.234375 26.265625 9.515625 29.90625 
Q 5.8125 33.546875 5.8125 39.890625 
Q 5.8125 47.609375 11.28125 51.796875 
Q 16.75 56 26.8125 56 
Q 31.78125 56 36.171875 55.265625 
Q 40.578125 54.546875 44.28125 53.078125 
z
" id="DejaVuSans-115"/>
      <path d="M 8.015625 75.875 
L 15.828125 75.875 
Q 23.140625 64.359375 26.78125 53.3125 
Q 30.421875 42.28125 30.421875 31.390625 
Q 30.421875 20.453125 26.78125 9.375 
Q 23.140625 -1.703125 15.828125 -13.1875 
L 8.015625 -13.1875 
Q 14.5 -2 17.703125 9.0625 
Q 20.90625 20.125 20.90625 31.390625 
Q 20.90625 42.671875 17.703125 53.65625 
Q 14.5 64.65625 8.015625 75.875 
z
" id="DejaVuSans-41"/>
     </defs>
     <g style="fill:#262626;" transform="translate(81.019531 154.276563)scale(0.1 -0.1)">
      <use xlink:href="#DejaVuSans-84"/>
      <use x="61.037109" xlink:href="#DejaVuSans-105"/>
      <use x="88.820312" xlink:href="#DejaVuSans-109"/>
      <use x="186.232422" xlink:href="#DejaVuSans-101"/>
      <use x="247.755859" xlink:href="#DejaVuSans-32"/>
      <use x="279.542969" xlink:href="#DejaVuSans-40"/>
      <use x="318.556641" xlink:href="#DejaVuSans-100"/>
      <use x="382.033203" xlink:href="#DejaVuSans-97"/>
      <use x="443.3125" xlink:href="#DejaVuSans-121"/>
      <use x="502.492188" xlink:href="#DejaVuSans-115"/>
      <use x="554.591797" xlink:href="#DejaVuSans-41"/>
     </g>
    </g>
   </g>
   <g id="matplotlib.axis_2">
    <g id="ytick_1">
     <g id="line2d_13">
      <path clip-path="url(#p70609b5098)" d="M 27 121.125881 
L 194.4 121.125881 
" style="fill:none;stroke:#cccccc;stroke-linecap:round;stroke-width:0.8;"/>
     </g>
     <g id="line2d_14">
      <defs>
       <path d="M 0 0 
L -3.5 0 
" id="m5617e9e50a" style="stroke:#262626;stroke-width:0.8;"/>
      </defs>
      <g>
       <use style="fill:#262626;stroke:#262626;stroke-width:0.8;" x="27" xlink:href="#m5617e9e50a" y="121.125881"/>
      </g>
     </g>
     <g id="text_8">
      <!-- $\mathdefault{0}$ -->
      <g style="fill:#262626;" transform="translate(13.6 124.9251)scale(0.1 -0.1)">
       <use transform="translate(0 0.78125)" xlink:href="#DejaVuSans-48"/>
      </g>
     </g>
    </g>
    <g id="ytick_2">
     <g id="line2d_15">
      <path clip-path="url(#p70609b5098)" d="M 27 94.398673 
L 194.4 94.398673 
" style="fill:none;stroke:#cccccc;stroke-linecap:round;stroke-width:0.8;"/>
     </g>
     <g id="line2d_16">
      <g>
       <use style="fill:#262626;stroke:#262626;stroke-width:0.8;" x="27" xlink:href="#m5617e9e50a" y="94.398673"/>
      </g>
     </g>
     <g id="text_9">
      <!-- $\mathdefault{10^{-3}}$ -->
      <defs>
       <path d="M 10.59375 35.5 
L 73.1875 35.5 
L 73.1875 27.203125 
L 10.59375 27.203125 
z
" id="DejaVuSans-8722"/>
      </defs>
      <g style="fill:#262626;" transform="translate(-3.5 98.197892)scale(0.1 -0.1)">
       <use transform="translate(0 0.765625)" xlink:href="#DejaVuSans-49"/>
       <use transform="translate(63.623047 0.765625)" xlink:href="#DejaVuSans-48"/>
       <use transform="translate(128.203125 39.046875)scale(0.7)" xlink:href="#DejaVuSans-8722"/>
       <use transform="translate(186.855469 39.046875)scale(0.7)" xlink:href="#DejaVuSans-51"/>
      </g>
     </g>
    </g>
    <g id="ytick_3">
     <g id="line2d_17">
      <path clip-path="url(#p70609b5098)" d="M 27 70.344186 
L 194.4 70.344186 
" style="fill:none;stroke:#cccccc;stroke-linecap:round;stroke-width:0.8;"/>
     </g>
     <g id="line2d_18">
      <g>
       <use style="fill:#262626;stroke:#262626;stroke-width:0.8;" x="27" xlink:href="#m5617e9e50a" y="70.344186"/>
      </g>
     </g>
     <g id="text_10">
      <!-- $\mathdefault{10^{-2}}$ -->
      <g style="fill:#262626;" transform="translate(-3.5 74.143405)scale(0.1 -0.1)">
       <use transform="translate(0 0.765625)" xlink:href="#DejaVuSans-49"/>
       <use transform="translate(63.623047 0.765625)" xlink:href="#DejaVuSans-48"/>
       <use transform="translate(128.203125 39.046875)scale(0.7)" xlink:href="#DejaVuSans-8722"/>
       <use transform="translate(186.855469 39.046875)scale(0.7)" xlink:href="#DejaVuSans-50"/>
      </g>
     </g>
    </g>
    <g id="ytick_4">
     <g id="line2d_19">
      <path clip-path="url(#p70609b5098)" d="M 27 46.289699 
L 194.4 46.289699 
" style="fill:none;stroke:#cccccc;stroke-linecap:round;stroke-width:0.8;"/>
     </g>
     <g id="line2d_20">
      <g>
       <use style="fill:#262626;stroke:#262626;stroke-width:0.8;" x="27" xlink:href="#m5617e9e50a" y="46.289699"/>
      </g>
     </g>
     <g id="text_11">
      <!-- $\mathdefault{10^{-1}}$ -->
      <g style="fill:#262626;" transform="translate(-3.5 50.088917)scale(0.1 -0.1)">
       <use transform="translate(0 0.684375)" xlink:href="#DejaVuSans-49"/>
       <use transform="translate(63.623047 0.684375)" xlink:href="#DejaVuSans-48"/>
       <use transform="translate(128.203125 38.965625)scale(0.7)" xlink:href="#DejaVuSans-8722"/>
       <use transform="translate(186.855469 38.965625)scale(0.7)" xlink:href="#DejaVuSans-49"/>
      </g>
     </g>
    </g>
    <g id="ytick_5">
     <g id="line2d_21">
      <path clip-path="url(#p70609b5098)" d="M 27 22.235212 
L 194.4 22.235212 
" style="fill:none;stroke:#cccccc;stroke-linecap:round;stroke-width:0.8;"/>
     </g>
     <g id="line2d_22">
      <g>
       <use style="fill:#262626;stroke:#262626;stroke-width:0.8;" x="27" xlink:href="#m5617e9e50a" y="22.235212"/>
      </g>
     </g>
     <g id="text_12">
      <!-- $\mathdefault{10^{0}}$ -->
      <g style="fill:#262626;" transform="translate(2.4 26.03443)scale(0.1 -0.1)">
       <use transform="translate(0 0.765625)" xlink:href="#DejaVuSans-49"/>
       <use transform="translate(63.623047 0.765625)" xlink:href="#DejaVuSans-48"/>
       <use transform="translate(128.203125 39.046875)scale(0.7)" xlink:href="#DejaVuSans-48"/>
      </g>
     </g>
    </g>
    <g id="text_13">
     <!-- Population (symlog) -->
     <defs>
      <path d="M 19.671875 64.796875 
L 19.671875 37.40625 
L 32.078125 37.40625 
Q 38.96875 37.40625 42.71875 40.96875 
Q 46.484375 44.53125 46.484375 51.125 
Q 46.484375 57.671875 42.71875 61.234375 
Q 38.96875 64.796875 32.078125 64.796875 
z
M 9.8125 72.90625 
L 32.078125 72.90625 
Q 44.34375 72.90625 50.609375 67.359375 
Q 56.890625 61.8125 56.890625 51.125 
Q 56.890625 40.328125 50.609375 34.8125 
Q 44.34375 29.296875 32.078125 29.296875 
L 19.671875 29.296875 
L 19.671875 0 
L 9.8125 0 
z
" id="DejaVuSans-80"/>
      <path d="M 30.609375 48.390625 
Q 23.390625 48.390625 19.1875 42.75 
Q 14.984375 37.109375 14.984375 27.296875 
Q 14.984375 17.484375 19.15625 11.84375 
Q 23.34375 6.203125 30.609375 6.203125 
Q 37.796875 6.203125 41.984375 11.859375 
Q 46.1875 17.53125 46.1875 27.296875 
Q 46.1875 37.015625 41.984375 42.703125 
Q 37.796875 48.390625 30.609375 48.390625 
z
M 30.609375 56 
Q 42.328125 56 49.015625 48.375 
Q 55.71875 40.765625 55.71875 27.296875 
Q 55.71875 13.875 49.015625 6.21875 
Q 42.328125 -1.421875 30.609375 -1.421875 
Q 18.84375 -1.421875 12.171875 6.21875 
Q 5.515625 13.875 5.515625 27.296875 
Q 5.515625 40.765625 12.171875 48.375 
Q 18.84375 56 30.609375 56 
z
" id="DejaVuSans-111"/>
      <path d="M 18.109375 8.203125 
L 18.109375 -20.796875 
L 9.078125 -20.796875 
L 9.078125 54.6875 
L 18.109375 54.6875 
L 18.109375 46.390625 
Q 20.953125 51.265625 25.265625 53.625 
Q 29.59375 56 35.59375 56 
Q 45.5625 56 51.78125 48.09375 
Q 58.015625 40.1875 58.015625 27.296875 
Q 58.015625 14.40625 51.78125 6.484375 
Q 45.5625 -1.421875 35.59375 -1.421875 
Q 29.59375 -1.421875 25.265625 0.953125 
Q 20.953125 3.328125 18.109375 8.203125 
z
M 48.6875 27.296875 
Q 48.6875 37.203125 44.609375 42.84375 
Q 40.53125 48.484375 33.40625 48.484375 
Q 26.265625 48.484375 22.1875 42.84375 
Q 18.109375 37.203125 18.109375 27.296875 
Q 18.109375 17.390625 22.1875 11.75 
Q 26.265625 6.109375 33.40625 6.109375 
Q 40.53125 6.109375 44.609375 11.75 
Q 48.6875 17.390625 48.6875 27.296875 
z
" id="DejaVuSans-112"/>
      <path d="M 8.5 21.578125 
L 8.5 54.6875 
L 17.484375 54.6875 
L 17.484375 21.921875 
Q 17.484375 14.15625 20.5 10.265625 
Q 23.53125 6.390625 29.59375 6.390625 
Q 36.859375 6.390625 41.078125 11.03125 
Q 45.3125 15.671875 45.3125 23.6875 
L 45.3125 54.6875 
L 54.296875 54.6875 
L 54.296875 0 
L 45.3125 0 
L 45.3125 8.40625 
Q 42.046875 3.421875 37.71875 1 
Q 33.40625 -1.421875 27.6875 -1.421875 
Q 18.265625 -1.421875 13.375 4.4375 
Q 8.5 10.296875 8.5 21.578125 
z
M 31.109375 56 
z
" id="DejaVuSans-117"/>
      <path d="M 9.421875 75.984375 
L 18.40625 75.984375 
L 18.40625 0 
L 9.421875 0 
z
" id="DejaVuSans-108"/>
      <path d="M 18.3125 70.21875 
L 18.3125 54.6875 
L 36.8125 54.6875 
L 36.8125 47.703125 
L 18.3125 47.703125 
L 18.3125 18.015625 
Q 18.3125 11.328125 20.140625 9.421875 
Q 21.96875 7.515625 27.59375 7.515625 
L 36.8125 7.515625 
L 36.8125 0 
L 27.59375 0 
Q 17.1875 0 13.234375 3.875 
Q 9.28125 7.765625 9.28125 18.015625 
L 9.28125 47.703125 
L 2.6875 47.703125 
L 2.6875 54.6875 
L 9.28125 54.6875 
L 9.28125 70.21875 
z
" id="DejaVuSans-116"/>
      <path d="M 54.890625 33.015625 
L 54.890625 0 
L 45.90625 0 
L 45.90625 32.71875 
Q 45.90625 40.484375 42.875 44.328125 
Q 39.84375 48.1875 33.796875 48.1875 
Q 26.515625 48.1875 22.3125 43.546875 
Q 18.109375 38.921875 18.109375 30.90625 
L 18.109375 0 
L 9.078125 0 
L 9.078125 54.6875 
L 18.109375 54.6875 
L 18.109375 46.1875 
Q 21.34375 51.125 25.703125 53.5625 
Q 30.078125 56 35.796875 56 
Q 45.21875 56 50.046875 50.171875 
Q 54.890625 44.34375 54.890625 33.015625 
z
" id="DejaVuSans-110"/>
      <path d="M 45.40625 27.984375 
Q 45.40625 37.75 41.375 43.109375 
Q 37.359375 48.484375 30.078125 48.484375 
Q 22.859375 48.484375 18.828125 43.109375 
Q 14.796875 37.75 14.796875 27.984375 
Q 14.796875 18.265625 18.828125 12.890625 
Q 22.859375 7.515625 30.078125 7.515625 
Q 37.359375 7.515625 41.375 12.890625 
Q 45.40625 18.265625 45.40625 27.984375 
z
M 54.390625 6.78125 
Q 54.390625 -7.171875 48.1875 -13.984375 
Q 42 -20.796875 29.203125 -20.796875 
Q 24.46875 -20.796875 20.265625 -20.09375 
Q 16.0625 -19.390625 12.109375 -17.921875 
L 12.109375 -9.1875 
Q 16.0625 -11.328125 19.921875 -12.34375 
Q 23.78125 -13.375 27.78125 -13.375 
Q 36.625 -13.375 41.015625 -8.765625 
Q 45.40625 -4.15625 45.40625 5.171875 
L 45.40625 9.625 
Q 42.625 4.78125 38.28125 2.390625 
Q 33.9375 0 27.875 0 
Q 17.828125 0 11.671875 7.65625 
Q 5.515625 15.328125 5.515625 27.984375 
Q 5.515625 40.671875 11.671875 48.328125 
Q 17.828125 56 27.875 56 
Q 33.9375 56 38.28125 53.609375 
Q 42.625 51.21875 45.40625 46.390625 
L 45.40625 54.6875 
L 54.390625 54.6875 
z
" id="DejaVuSans-103"/>
     </defs>
     <g style="fill:#262626;" transform="translate(-9.579688 121.632969)rotate(-90)scale(0.1 -0.1)">
      <use xlink:href="#DejaVuSans-80"/>
      <use x="60.255859" xlink:href="#DejaVuSans-111"/>
      <use x="121.4375" xlink:href="#DejaVuSans-112"/>
      <use x="184.914062" xlink:href="#DejaVuSans-117"/>
      <use x="248.292969" xlink:href="#DejaVuSans-108"/>
      <use x="276.076172" xlink:href="#DejaVuSans-97"/>
      <use x="337.355469" xlink:href="#DejaVuSans-116"/>
      <use x="376.564453" xlink:href="#DejaVuSans-105"/>
      <use x="404.347656" xlink:href="#DejaVuSans-111"/>
      <use x="465.529297" xlink:href="#DejaVuSans-110"/>
      <use x="528.908203" xlink:href="#DejaVuSans-32"/>
      <use x="560.695312" xlink:href="#DejaVuSans-40"/>
      <use x="599.708984" xlink:href="#DejaVuSans-115"/>
      <use x="651.808594" xlink:href="#DejaVuSans-121"/>
      <use x="710.988281" xlink:href="#DejaVuSans-109"/>
      <use x="808.400391" xlink:href="#DejaVuSans-108"/>
      <use x="836.183594" xlink:href="#DejaVuSans-111"/>
      <use x="897.365234" xlink:href="#DejaVuSans-103"/>
      <use x="960.841797" xlink:href="#DejaVuSans-41"/>
     </g>
    </g>
   </g>
   <g id="line2d_23">
    <path clip-path="url(#p70609b5098)" d="M 27 120.858609 
L 29.848649 120.542911 
L 31.859459 120.115057 
L 33.535135 119.526564 
L 34.875676 118.817843 
L 36.048649 117.943656 
L 37.054054 116.93502 
L 38.059459 115.608078 
L 39.064865 113.859922 
L 39.902703 111.986166 
L 40.740541 109.628942 
L 41.578378 106.666875 
L 42.416216 102.940861 
L 43.254054 98.251738 
L 43.924324 94.107173 
L 66.210811 30.64857 
L 67.718919 26.971647 
L 68.724324 25.051311 
L 69.562162 23.896037 
L 70.4 23.146097 
L 71.237838 22.708927 
L 72.243243 22.443125 
L 73.751351 22.293192 
L 77.437838 22.237137 
L 194.4 22.235793 
L 194.4 22.235793 
" style="fill:none;stroke:#ff0c00;stroke-linecap:round;stroke-width:1.5;"/>
   </g>
   <g id="line2d_24">
    <path clip-path="url(#p70609b5098)" d="M 27 120.858609 
L 33.535135 120.484885 
L 39.567568 120.220764 
L 46.27027 120.1814 
L 64.2 120.402878 
L 99.389189 120.742974 
L 147.481081 120.966376 
L 194.4 121.058182 
L 194.4 121.058182 
" style="fill:none;stroke:#000cf9;stroke-linecap:round;stroke-width:1.5;"/>
   </g>
   <g id="line2d_25">
    <path clip-path="url(#p70609b5098)" d="M 27 120.650596 
L 29.178378 120.262895 
L 30.854054 119.760938 
L 32.194595 119.155598 
L 33.367568 118.4093 
L 34.540541 117.381312 
L 35.545946 116.194724 
L 36.551351 114.631531 
L 37.556757 112.574491 
L 38.394595 110.371215 
L 39.232432 107.59829 
L 40.07027 104.10941 
L 40.908108 99.721685 
L 42.081081 93.366226 
L 64.367568 29.969251 
L 65.708108 26.774755 
L 66.713514 24.90014 
L 67.551351 23.793804 
L 68.389189 23.084156 
L 69.227027 22.675406 
L 70.232432 22.427847 
L 71.908108 22.280526 
L 76.935135 22.236536 
L 194.4 22.241007 
L 194.4 22.241007 
" style="fill:none;stroke:#ff1800;stroke-linecap:round;stroke-width:1.5;"/>
   </g>
   <g id="line2d_26">
    <path clip-path="url(#p70609b5098)" d="M 27 120.650596 
L 31.356757 120.231425 
L 37.724324 119.611904 
L 42.081081 119.446444 
L 48.113514 119.467753 
L 65.708108 119.866105 
L 92.016216 120.338944 
L 124.524324 120.688672 
L 169.264865 120.93215 
L 194.4 121.003416 
L 194.4 121.003416 
" style="fill:none;stroke:#0018f3;stroke-linecap:round;stroke-width:1.5;"/>
   </g>
   <g id="line2d_27">
    <path clip-path="url(#p70609b5098)" d="M 27 120.280692 
L 28.675676 119.7886 
L 30.183784 119.105379 
L 31.356757 118.340461 
L 32.52973 117.285267 
L 33.535135 116.068397 
L 34.540541 114.466991 
L 35.545946 112.356907 
L 36.383784 110.095174 
L 37.221622 107.25139 
L 38.059459 103.677055 
L 38.897297 99.179369 
L 39.902703 93.581327 
L 62.021622 30.605271 
L 63.52973 26.937029 
L 64.535135 25.024206 
L 65.372973 23.877563 
L 66.210811 23.134957 
L 67.048649 22.702505 
L 68.054054 22.440196 
L 69.562162 22.292542 
L 73.248649 22.237186 
L 194.4 22.235976 
L 194.4 22.235976 
" style="fill:none;stroke:#ff2400;stroke-linecap:round;stroke-width:1.5;"/>
   </g>
   <g id="line2d_28">
    <path clip-path="url(#p70609b5098)" d="M 27 120.280692 
L 30.183784 119.767669 
L 37.556757 118.451262 
L 40.740541 118.186012 
L 44.594595 118.105276 
L 50.291892 118.233898 
L 100.059459 119.889168 
L 125.864865 120.347256 
L 158.540541 120.694638 
L 194.4 120.901231 
L 194.4 120.901231 
" style="fill:none;stroke:#0024ed;stroke-linecap:round;stroke-width:1.5;"/>
   </g>
   <g id="line2d_29">
    <path clip-path="url(#p70609b5098)" d="M 27 119.6229 
L 28.340541 118.956448 
L 29.513514 118.134779 
L 30.518919 117.187841 
L 31.524324 115.940033 
L 32.52973 114.296197 
L 33.535135 112.13226 
L 34.372973 109.815272 
L 35.210811 106.899507 
L 36.048649 103.230918 
L 36.886486 98.615333 
L 37.724324 93.797502 
L 60.178378 29.925171 
L 61.518919 26.732843 
L 62.524324 24.874982 
L 63.362162 23.775487 
L 64.2 23.073086 
L 65.037838 22.668626 
L 66.043243 22.424821 
L 67.718919 22.281427 
L 71.908108 22.236894 
L 194.4 22.235889 
L 194.4 22.235889 
" style="fill:none;stroke:#ff3000;stroke-linecap:round;stroke-width:1.5;"/>
   </g>
   <g id="line2d_30">
    <path clip-path="url(#p70609b5098)" d="M 27 119.6229 
L 29.345946 118.985883 
L 32.864865 117.755271 
L 36.216216 116.684736 
L 38.562162 116.170384 
L 41.075676 115.854891 
L 43.924324 115.730312 
L 47.778378 115.805555 
L 54.145946 116.18904 
L 79.616216 117.871325 
L 96.205405 118.680507 
L 114.805405 119.360395 
L 136.589189 119.92655 
L 162.897297 120.377822 
L 194.4 120.702774 
L 194.4 120.702774 
" style="fill:none;stroke:#0030e7;stroke-linecap:round;stroke-width:1.5;"/>
   </g>
   <g id="line2d_31">
    <path clip-path="url(#p70609b5098)" d="M 27 118.45316 
L 28.172973 117.441119 
L 29.178378 116.272951 
L 30.183784 114.736494 
L 31.189189 112.712656 
L 32.027027 110.54313 
L 32.864865 107.813251 
L 33.702703 104.382454 
L 34.540541 100.068624 
L 35.713514 93.534641 
L 58 30.1249 
L 59.508108 26.548152 
L 60.513514 24.735058 
L 61.351351 23.682131 
L 62.189189 23.017749 
L 63.027027 22.637668 
L 64.2 22.386405 
L 66.043243 22.266516 
L 71.405405 22.234844 
L 194.4 22.239381 
L 194.4 22.239381 
" style="fill:none;stroke:#ff3c00;stroke-linecap:round;stroke-width:1.5;"/>
   </g>
   <g id="line2d_32">
    <path clip-path="url(#p70609b5098)" d="M 27 118.45316 
L 28.843243 117.594349 
L 31.021622 116.309156 
L 35.545946 113.551789 
L 37.556757 112.640168 
L 39.4 112.049844 
L 41.410811 111.656479 
L 43.589189 111.465452 
L 46.27027 111.465195 
L 49.956757 111.712031 
L 56.156757 112.388944 
L 76.6 114.718053 
L 89.67027 115.936055 
L 103.578378 117.003676 
L 118.659459 117.932645 
L 135.248649 118.727509 
L 154.016216 119.399935 
L 175.967568 119.957233 
L 194.4 120.286092 
L 194.4 120.286092 
" style="fill:none;stroke:#003ce1;stroke-linecap:round;stroke-width:1.5;"/>
   </g>
   <g id="line2d_33">
    <path clip-path="url(#p70609b5098)" d="M 27 116.373037 
L 28.005405 114.867224 
L 29.010811 112.882928 
L 29.848649 110.759046 
L 30.686486 108.088354 
L 31.524324 104.726797 
L 32.362162 100.497555 
L 33.702703 93.270735 
L 55.989189 29.880895 
L 57.497297 26.336429 
L 58.502703 24.598723 
L 59.340541 23.594132 
L 60.178378 22.961117 
L 61.016216 22.607187 
L 62.189189 22.372058 
L 64.367568 22.257444 
L 71.740541 22.234219 
L 182.502703 22.232008 
L 194.064865 22.235415 
L 194.4 22.235366 
L 194.4 22.235366 
" style="fill:none;stroke:#ff4900;stroke-linecap:round;stroke-width:1.5;"/>
   </g>
   <g id="line2d_34">
    <path clip-path="url(#p70609b5098)" d="M 27 116.373037 
L 28.508108 115.154495 
L 30.183784 113.487405 
L 36.383784 106.886319 
L 37.891892 105.750836 
L 39.4 104.88744 
L 40.908108 104.280077 
L 42.583784 103.858386 
L 44.427027 103.638349 
L 46.605405 103.616989 
L 49.286486 103.822078 
L 53.140541 104.362569 
L 60.178378 105.623159 
L 77.940541 108.833413 
L 89.837838 110.733295 
L 101.735135 112.407163 
L 113.8 113.879718 
L 126.367568 115.187974 
L 139.605405 116.340342 
L 153.848649 117.353387 
L 169.432432 118.2338 
L 186.691892 118.982548 
L 194.4 119.253679 
L 194.4 119.253679 
" style="fill:none;stroke:#0049db;stroke-linecap:round;stroke-width:1.5;"/>
   </g>
   <g id="line2d_35">
    <path clip-path="url(#p70609b5098)" d="M 27 112.673996 
L 27.837838 110.495229 
L 28.675676 107.753211 
L 29.513514 104.305914 
L 30.351351 99.972993 
L 31.524324 93.487665 
L 53.643243 30.518757 
L 55.151351 26.867263 
L 56.156757 24.9704 
L 56.994595 23.841081 
L 57.832432 23.11306 
L 58.67027 22.690266 
L 59.675676 22.433856 
L 61.183784 22.29118 
L 64.702703 22.23769 
L 194.4 22.235309 
L 194.4 22.235309 
" style="fill:none;stroke:#ff5500;stroke-linecap:round;stroke-width:1.5;"/>
   </g>
   <g id="line2d_36">
    <path clip-path="url(#p70609b5098)" d="M 27 112.673996 
L 28.172973 111.032364 
L 29.513514 108.791285 
L 31.356757 105.209863 
L 35.043243 97.934159 
L 36.551351 95.438507 
L 37.389189 94.337351 
L 39.064865 93.597746 
L 40.908108 93.051797 
L 42.918919 92.689395 
L 45.432432 92.46864 
L 48.783784 92.417569 
L 53.643243 92.592343 
L 61.854054 93.143395 
L 75.92973 94.330402 
L 77.437838 94.576839 
L 105.254054 100.985179 
L 120 104.144026 
L 133.07027 106.717276 
L 145.302703 108.897217 
L 157.2 110.790408 
L 169.097297 112.457125 
L 181.162162 113.922733 
L 193.72973 115.224283 
L 194.4 115.287642 
L 194.4 115.287642 
" style="fill:none;stroke:#0055d4;stroke-linecap:round;stroke-width:1.5;"/>
   </g>
   <g id="line2d_37">
    <path clip-path="url(#p70609b5098)" d="M 27 106.096067 
L 27.837838 102.221612 
L 28.675676 97.346416 
L 29.178378 94.181712 
L 51.8 29.841009 
L 53.140541 26.667848 
L 54.145946 24.822321 
L 54.983784 23.734068 
L 55.821622 23.041922 
L 56.659459 22.658666 
L 57.832432 22.387971 
L 59.675676 22.268335 
L 65.037838 22.235528 
L 164.405405 22.223888 
L 182.837838 22.246547 
L 194.4 22.235799 
L 194.4 22.235799 
" style="fill:none;stroke:#ff6100;stroke-linecap:round;stroke-width:1.5;"/>
   </g>
   <g id="line2d_38">
    <path clip-path="url(#p70609b5098)" d="M 27 106.096067 
L 28.172973 103.176838 
L 29.513514 99.19032 
L 31.189189 94.021361 
L 32.864865 91.940837 
L 34.372973 90.404507 
L 35.881081 89.173445 
L 37.389189 88.212671 
L 39.064865 87.40554 
L 40.908108 86.765572 
L 43.086486 86.246418 
L 45.935135 85.815544 
L 49.956757 85.463848 
L 56.994595 85.116949 
L 84.308108 83.904534 
L 97.545946 83.051627 
L 108.772973 82.108804 
L 118.324324 81.08839 
L 126.535135 79.994114 
L 133.740541 78.815447 
L 139.940541 77.582715 
L 145.47027 76.265255 
L 150.32973 74.884945 
L 154.686486 73.41998 
L 158.540541 71.899927 
L 162.059459 70.275847 
L 165.243243 68.561942 
L 168.259459 66.675085 
L 170.940541 64.733978 
L 173.454054 62.630049 
L 175.8 60.375786 
L 178.145946 57.802873 
L 180.324324 55.084582 
L 182.837838 51.56673 
L 185.518919 47.400782 
L 189.037838 41.97228 
L 190.545946 39.995698 
L 191.886486 38.568337 
L 193.227027 37.474304 
L 194.4 36.793719 
L 194.4 36.793719 
" style="fill:none;stroke:#0061ce;stroke-linecap:round;stroke-width:1.5;"/>
   </g>
   <g id="line2d_39">
    <path clip-path="url(#p70609b5098)" d="M 27 94.398673 
L 49.621622 30.039457 
L 50.962162 26.830199 
L 51.967568 24.944626 
L 52.805405 23.82307 
L 53.643243 23.101952 
L 54.481081 22.684279 
L 55.486486 22.431811 
L 56.994595 22.290332 
L 60.681081 22.237161 
L 194.4 22.23603 
L 194.4 22.23603 
" style="fill:none;stroke:#ff6d00;stroke-linecap:round;stroke-width:1.5;"/>
   </g>
   <g id="line2d_40">
    <path clip-path="url(#p70609b5098)" d="M 27 94.398673 
L 31.356757 87.771697 
L 33.032432 85.709432 
L 34.708108 84.017081 
L 36.383784 82.668424 
L 38.059459 81.604021 
L 39.902703 80.686997 
L 42.248649 79.785157 
L 45.264865 78.879742 
L 51.297297 77.364973 
L 58 75.596098 
L 62.691892 74.132445 
L 66.881081 72.59385 
L 70.567568 71.004573 
L 73.918919 69.318497 
L 76.935135 67.553479 
L 79.616216 65.739258 
L 82.297297 63.652002 
L 84.643243 61.548714 
L 86.989189 59.138419 
L 89.167568 56.592403 
L 91.513514 53.491299 
L 94.027027 49.780105 
L 100.227027 40.420236 
L 101.567568 38.902018 
L 102.908108 37.718304 
L 104.081081 36.967478 
L 105.254054 36.463295 
L 106.594595 36.143702 
L 108.102703 36.043635 
L 109.945946 36.170323 
L 112.627027 36.621575 
L 119.664865 37.916779 
L 123.016216 38.239078 
L 126.702703 38.35395 
L 132.232432 38.258296 
L 143.794595 38.025956 
L 161.054054 38.061862 
L 194.4 38.061787 
L 194.4 38.061787 
" style="fill:none;stroke:#006dc8;stroke-linecap:round;stroke-width:1.5;"/>
   </g>
   <g id="line2d_41">
    <path clip-path="url(#p70609b5098)" d="M 27 88.385051 
L 47.443243 30.231539 
L 48.951351 26.633479 
L 49.956757 24.796878 
L 50.794595 23.717611 
L 51.632432 23.033485 
L 52.47027 22.653143 
L 53.643243 22.383947 
L 55.486486 22.268001 
L 61.016216 22.235747 
L 174.459459 22.233513 
L 187.194595 22.234065 
L 194.4 22.242218 
L 194.4 22.242218 
" style="fill:none;stroke:#ff7900;stroke-linecap:round;stroke-width:1.5;"/>
   </g>
   <g id="line2d_42">
    <path clip-path="url(#p70609b5098)" d="M 27 88.385051 
L 31.356757 81.741722 
L 33.032432 79.641415 
L 34.708108 77.876033 
L 36.383784 76.410006 
L 38.394595 74.954165 
L 40.908108 73.438188 
L 45.6 70.945356 
L 49.789189 68.612276 
L 52.805405 66.690211 
L 55.486486 64.732004 
L 58 62.621332 
L 60.345946 60.363457 
L 62.691892 57.790459 
L 64.87027 55.067817 
L 67.383784 51.554169 
L 70.064865 47.381335 
L 73.583784 41.954626 
L 75.259459 39.781557 
L 76.6 38.396411 
L 77.772973 37.461801 
L 78.945946 36.787699 
L 80.118919 36.352392 
L 81.459459 36.097182 
L 82.967568 36.052657 
L 84.978378 36.24733 
L 87.994595 36.802305 
L 93.691892 37.852509 
L 97.043243 38.205622 
L 100.72973 38.350625 
L 105.589189 38.288176 
L 119.497297 38.022517 
L 162.562162 38.061366 
L 194.4 38.061017 
L 194.4 38.061017 
" style="fill:none;stroke:#0079c2;stroke-linecap:round;stroke-width:1.5;"/>
   </g>
   <g id="line2d_43">
    <path clip-path="url(#p70609b5098)" d="M 27 82.371429 
L 45.264865 30.43227 
L 46.772973 26.796385 
L 47.778378 24.917934 
L 48.616216 23.805248 
L 49.454054 23.091382 
L 50.291892 22.678234 
L 51.297297 22.428634 
L 52.805405 22.289671 
L 56.491892 22.237424 
L 194.4 22.235887 
L 194.4 22.235887 
" style="fill:none;stroke:#ff8600;stroke-linecap:round;stroke-width:1.5;"/>
   </g>
   <g id="line2d_44">
    <path clip-path="url(#p70609b5098)" d="M 27 82.371429 
L 31.524324 75.469575 
L 33.367568 73.138822 
L 35.378378 70.963859 
L 37.724324 68.782845 
L 46.772973 60.75644 
L 49.118919 58.19555 
L 51.464865 55.2947 
L 53.978378 51.794712 
L 56.491892 47.920477 
L 60.345946 41.958765 
L 62.021622 39.786119 
L 63.362162 38.399812 
L 64.535135 37.464009 
L 65.708108 36.789773 
L 66.881081 36.353951 
L 68.221622 36.098275 
L 69.72973 36.052772 
L 71.740541 36.245663 
L 74.756757 36.79992 
L 80.454054 37.851858 
L 83.805405 38.20553 
L 87.324324 38.348936 
L 92.016216 38.297253 
L 106.92973 38.02159 
L 194.4 38.061167 
L 194.4 38.061167 
" style="fill:none;stroke:#0086bc;stroke-linecap:round;stroke-width:1.5;"/>
   </g>
   <g id="line2d_45">
    <path clip-path="url(#p70609b5098)" d="M 27 76.357808 
L 43.254054 30.185789 
L 44.762162 26.574534 
L 45.767568 24.76995 
L 46.605405 23.712573 
L 47.443243 23.031793 
L 48.281081 22.646696 
L 49.454054 22.389724 
L 51.12973 22.273436 
L 55.821622 22.236365 
L 116.816216 22.238395 
L 136.924324 22.236066 
L 149.827027 22.234568 
L 194.4 22.24152 
L 194.4 22.24152 
" style="fill:none;stroke:#ff9200;stroke-linecap:round;stroke-width:1.5;"/>
   </g>
   <g id="line2d_46">
    <path clip-path="url(#p70609b5098)" d="M 27 76.357808 
L 31.859459 68.936874 
L 34.205405 65.911383 
L 37.389189 62.21962 
L 41.410811 57.501555 
L 43.924324 54.199315 
L 46.437838 50.530678 
L 53.308108 40.203014 
L 54.648649 38.722854 
L 55.821622 37.708632 
L 56.994595 36.961062 
L 58.167568 36.459532 
L 59.508108 36.142607 
L 61.016216 36.040242 
L 62.859459 36.168455 
L 65.372973 36.591329 
L 72.578378 37.918935 
L 75.762162 38.228882 
L 79.448649 38.354407 
L 84.308108 38.280515 
L 97.210811 38.02387 
L 120.167568 38.064864 
L 194.4 38.061107 
L 194.4 38.061107 
" style="fill:none;stroke:#0092b6;stroke-linecap:round;stroke-width:1.5;"/>
   </g>
   <g id="line2d_47">
    <path clip-path="url(#p70609b5098)" d="M 27 70.344186 
L 41.075676 30.389057 
L 42.583784 26.761128 
L 43.589189 24.89195 
L 44.427027 23.787584 
L 45.264865 23.080757 
L 46.102703 22.672634 
L 47.275676 22.399687 
L 48.951351 22.27502 
L 53.308108 22.236371 
L 109.778378 22.228762 
L 119.832432 22.234047 
L 194.4 22.235658 
L 194.4 22.235658 
" style="fill:none;stroke:#ff9e00;stroke-linecap:round;stroke-width:1.5;"/>
   </g>
   <g id="line2d_48">
    <path clip-path="url(#p70609b5098)" d="M 27 70.344186 
L 32.697297 61.62468 
L 41.075676 49.611688 
L 46.605405 41.160204 
L 48.113514 39.33873 
L 49.454054 38.052236 
L 50.627027 37.213793 
L 51.8 36.630029 
L 53.140541 36.232868 
L 54.481081 36.071383 
L 56.156757 36.105671 
L 58.335135 36.395919 
L 63.027027 37.326805 
L 66.713514 37.928042 
L 70.064865 38.243452 
L 73.751351 38.350576 
L 79.448649 38.249596 
L 90.340541 38.028122 
L 105.589189 38.057244 
L 178.145946 38.060696 
L 194.4 38.061223 
L 194.4 38.061223 
" style="fill:none;stroke:#009eb0;stroke-linecap:round;stroke-width:1.5;"/>
   </g>
   <g id="line2d_49">
    <path clip-path="url(#p70609b5098)" d="M 27 64.330564 
L 39.064865 30.143753 
L 40.572973 26.538349 
L 41.578378 24.744245 
L 42.416216 23.695983 
L 43.254054 23.022913 
L 44.091892 22.641843 
L 45.264865 22.388773 
L 46.940541 22.273069 
L 51.8 22.23634 
L 117.151351 22.240657 
L 125.697297 22.235532 
L 176.135135 22.233767 
L 194.4 22.236014 
L 194.4 22.236014 
" style="fill:none;stroke:#ffaa00;stroke-linecap:round;stroke-width:1.5;"/>
   </g>
   <g id="line2d_50">
    <path clip-path="url(#p70609b5098)" d="M 27 64.330564 
L 41.745946 41.481825 
L 43.254054 39.622297 
L 44.594595 38.295173 
L 45.767568 37.408751 
L 46.940541 36.777638 
L 48.113514 36.371636 
L 49.454054 36.141001 
L 50.962162 36.110245 
L 52.972973 36.306792 
L 56.324324 36.916671 
L 61.518919 37.846569 
L 64.87027 38.196294 
L 68.556757 38.342283 
L 73.416216 38.284358 
L 87.827027 38.022876 
L 159.043243 38.060413 
L 194.4 38.061093 
L 194.4 38.061093 
" style="fill:none;stroke:#00aaaa;stroke-linecap:round;stroke-width:1.5;"/>
   </g>
   <g id="line2d_51">
    <path clip-path="url(#p70609b5098)" d="M 27 58.316942 
L 36.886486 30.345877 
L 38.394595 26.725822 
L 39.4 24.866364 
L 40.237838 23.770133 
L 41.075676 23.070257 
L 41.913514 22.667531 
L 43.086486 22.395438 
L 44.92973 22.26873 
L 50.291892 22.235414 
L 149.994595 22.22282 
L 192.891892 22.2348 
L 194.4 22.236457 
L 194.4 22.236457 
" style="fill:none;stroke:#ffb600;stroke-linecap:round;stroke-width:1.5;"/>
   </g>
   <g id="line2d_52">
    <path clip-path="url(#p70609b5098)" d="M 27 58.316942 
L 38.059459 41.227588 
L 39.567568 39.455875 
L 40.908108 38.200057 
L 42.081081 37.370583 
L 43.254054 36.782955 
L 44.594595 36.371721 
L 45.935135 36.187778 
L 47.610811 36.19293 
L 49.789189 36.44734 
L 53.978378 37.231193 
L 58.167568 37.90912 
L 61.518919 38.22097 
L 65.205405 38.334031 
L 70.567568 38.253618 
L 82.464865 38.027795 
L 102.237838 38.065037 
L 194.4 38.061092 
L 194.4 38.061092 
" style="fill:none;stroke:#00b6a4;stroke-linecap:round;stroke-width:1.5;"/>
   </g>
   <g id="line2d_53">
    <path clip-path="url(#p70609b5098)" d="M 27 52.303321 
L 34.875676 30.101216 
L 36.383784 26.510716 
L 37.389189 24.722961 
L 38.227027 23.678357 
L 39.064865 23.01161 
L 39.902703 22.635675 
L 41.075676 22.383365 
L 42.918919 22.266713 
L 48.281081 22.234857 
L 194.4 22.235842 
L 194.4 22.235842 
" style="fill:none;stroke:#ffc300;stroke-linecap:round;stroke-width:1.5;"/>
   </g>
   <g id="line2d_54">
    <path clip-path="url(#p70609b5098)" d="M 27 52.303321 
L 33.032432 43.081984 
L 34.875676 40.679278 
L 36.383784 39.061935 
L 37.724324 37.943672 
L 39.064865 37.137286 
L 40.405405 36.615956 
L 41.745946 36.337806 
L 43.254054 36.248264 
L 45.097297 36.363048 
L 47.778378 36.769699 
L 54.816216 37.933503 
L 58.335135 38.231341 
L 62.189189 38.321128 
L 68.389189 38.209713 
L 78.778378 38.030168 
L 97.378378 38.062852 
L 194.4 38.061225 
L 194.4 38.061225 
" style="fill:none;stroke:#00c39e;stroke-linecap:round;stroke-width:1.5;"/>
   </g>
   <g id="line2d_55">
    <path clip-path="url(#p70609b5098)" d="M 27 46.289699 
L 32.864865 29.867055 
L 34.205405 26.689413 
L 35.210811 24.84005 
L 36.048649 23.751924 
L 36.886486 23.059254 
L 37.724324 22.65993 
L 38.897297 22.39586 
L 40.740541 22.267735 
L 46.102703 22.235095 
L 177.140541 22.222402 
L 194.4 22.236579 
L 194.4 22.236579 
" style="fill:none;stroke:#ffcf00;stroke-linecap:round;stroke-width:1.5;"/>
   </g>
   <g id="line2d_56">
    <path clip-path="url(#p70609b5098)" d="M 27 46.289699 
L 29.681081 42.301517 
L 31.356757 40.163842 
L 32.697297 38.7633 
L 34.037838 37.68382 
L 35.210811 37.003591 
L 36.551351 36.500803 
L 37.891892 36.243029 
L 39.4 36.177302 
L 41.243243 36.319121 
L 44.091892 36.790714 
L 50.459459 37.89157 
L 53.810811 38.209776 
L 57.664865 38.333919 
L 62.859459 38.255109 
L 75.259459 38.026985 
L 96.708108 38.064794 
L 194.4 38.06122 
L 194.4 38.06122 
" style="fill:none;stroke:#00cf98;stroke-linecap:round;stroke-width:1.5;"/>
   </g>
   <g id="line2d_57">
    <path clip-path="url(#p70609b5098)" d="M 27 40.276077 
L 30.854054 29.61704 
L 32.194595 26.483164 
L 33.2 24.698498 
L 34.037838 23.65578 
L 34.875676 22.996397 
L 35.713514 22.627401 
L 36.886486 22.383203 
L 38.72973 22.266805 
L 44.091892 22.235271 
L 119.497297 22.23629 
L 194.4 22.242142 
L 194.4 22.242142 
" style="fill:none;stroke:#ffdb00;stroke-linecap:round;stroke-width:1.5;"/>
   </g>
   <g id="line2d_58">
    <path clip-path="url(#p70609b5098)" d="M 27 40.276077 
L 28.508108 38.128313 
L 29.681081 36.839759 
L 30.686486 36.043831 
L 31.691892 35.515912 
L 32.697297 35.21681 
L 33.87027 35.097494 
L 35.210811 35.184247 
L 37.054054 35.550826 
L 40.237838 36.467937 
L 44.427027 37.611343 
L 47.108108 38.111404 
L 49.956757 38.407856 
L 53.140541 38.503536 
L 57.664865 38.377662 
L 68.556757 38.01814 
L 77.940541 38.026723 
L 99.389189 38.062981 
L 187.864865 38.061025 
L 194.4 38.06108 
L 194.4 38.06108 
" style="fill:none;stroke:#00db92;stroke-linecap:round;stroke-width:1.5;"/>
   </g>
   <g id="line2d_59">
    <path clip-path="url(#p70609b5098)" d="M 27 34.262455 
L 29.178378 28.49124 
L 30.351351 25.920772 
L 31.189189 24.520232 
L 32.027027 23.540517 
L 32.864865 22.933375 
L 33.702703 22.593088 
L 34.875676 22.37021 
L 36.886486 22.260043 
L 44.594595 22.234485 
L 120 22.234738 
L 190.210811 22.248492 
L 194.4 22.246021 
L 194.4 22.246021 
" style="fill:none;stroke:#ffe700;stroke-linecap:round;stroke-width:1.5;"/>
   </g>
   <g id="line2d_60">
    <path clip-path="url(#p70609b5098)" d="M 27 34.262455 
L 28.005405 32.94885 
L 28.675676 32.377317 
L 29.345946 32.040152 
L 30.183784 31.891399 
L 31.021622 31.967147 
L 32.194595 32.328394 
L 33.702703 33.055093 
L 36.383784 34.644499 
L 39.735135 36.576446 
L 41.913514 37.592697 
L 43.924324 38.28704 
L 45.935135 38.74798 
L 47.945946 38.986002 
L 50.291892 39.028608 
L 53.308108 38.848938 
L 64.032432 37.997758 
L 69.394595 37.930223 
L 127.372973 38.06096 
L 194.4 38.060965 
L 194.4 38.060965 
" style="fill:none;stroke:#00e78c;stroke-linecap:round;stroke-width:1.5;"/>
   </g>
   <g id="line2d_61">
    <path clip-path="url(#p70609b5098)" d="M 27 28.248833 
L 28.172973 25.73022 
L 29.010811 24.381332 
L 29.848649 23.449051 
L 30.686486 22.879778 
L 31.691892 22.522102 
L 33.032432 22.328559 
L 35.545946 22.245964 
L 47.778378 22.234028 
L 59.005405 22.23598 
L 107.432432 22.226673 
L 120.837838 22.236163 
L 194.4 22.235773 
L 194.4 22.235773 
" style="fill:none;stroke:#fff300;stroke-linecap:round;stroke-width:1.5;"/>
   </g>
   <g id="line2d_62">
    <path clip-path="url(#p70609b5098)" d="M 27 28.248833 
L 27.67027 27.556725 
L 28.172973 27.310755 
L 28.843243 27.268009 
L 29.681081 27.517048 
L 30.686486 28.084999 
L 32.027027 29.117334 
L 34.205405 31.12398 
L 39.064865 35.695738 
L 41.075676 37.275051 
L 42.751351 38.313735 
L 44.427027 39.097602 
L 45.935135 39.573875 
L 47.610811 39.857116 
L 49.454054 39.918655 
L 51.464865 39.754144 
L 54.481081 39.251623 
L 60.345946 38.244061 
L 63.697297 37.929778 
L 67.383784 37.812426 
L 72.913514 37.890439 
L 85.648649 38.093388 
L 126.702703 38.06154 
L 194.4 38.060917 
L 194.4 38.060917 
" style="fill:none;stroke:#00f386;stroke-linecap:round;stroke-width:1.5;"/>
   </g>
   <g id="patch_3">
    <path d="M 27 126 
L 27 17.28 
" style="fill:none;stroke:#262626;stroke-linecap:square;stroke-linejoin:miter;stroke-width:0.8;"/>
   </g>
   <g id="patch_4">
    <path d="M 194.4 126 
L 194.4 17.28 
" style="fill:none;stroke:#262626;stroke-linecap:square;stroke-linejoin:miter;stroke-width:0.8;"/>
   </g>
   <g id="patch_5">
    <path d="M 27 126 
L 194.4 126 
" style="fill:none;stroke:#262626;stroke-linecap:square;stroke-linejoin:miter;stroke-width:0.8;"/>
   </g>
   <g id="patch_6">
    <path d="M 27 17.28 
L 194.4 17.28 
" style="fill:none;stroke:#262626;stroke-linecap:square;stroke-linejoin:miter;stroke-width:0.8;"/>
   </g>
  </g>
 </g>
 <defs>
  <clipPath id="p70609b5098">
   <rect height="108.72" width="167.4" x="27" y="17.28"/>
  </clipPath>
 </defs>
</svg>
